<svg xmlns="http://www.w3.org/2000/svg" width="24" height="24" fill="none"><mask id="a" width="20" height="20" x="2" y="2" maskUnits="userSpaceOnUse" style="mask-type:alpha"><g fill="#333"><path d="M9.793 7c.115 0 .207.092.207.205v9.35c0 .246-.2.445-.448.445h-1.09a.446.446 0 0 1-.448-.444V9.94c0-.06 0-.628-.349-.51l-1.08.306A.448.448 0 0 1 6 9.312v-.634c0-.188.119-.356.297-.419L9.78 7.002z"/><path fill-rule="evenodd" d="M11.732 15.88a.45.45 0 0 1 .429-.445l.055-.003c.402-.02 1.384-.07 1.71-.182q.575-.201.945-.578.37-.375.548-.92.117-.36.157-.782-.338.344-.778.555a2.3 2.3 0 0 1-.99.221q-.675 0-1.196-.248a2.6 2.6 0 0 1-.885-.698 3.2 3.2 0 0 1-.542-1.048A4.4 4.4 0 0 1 11 10.458q0-.712.225-1.336.231-.624.654-1.1a3.05 3.05 0 0 1 1.023-.746Q13.503 7 14.237 7q.733 0 1.334.289.6.288 1.03.819.43.523.661 1.255.238.732.238 1.624v.672q0 .953-.205 1.772a5.2 5.2 0 0 1-.6 1.483 4.2 4.2 0 0 1-.992 1.128 4.2 4.2 0 0 1-1.367.718c-.675.24-1.675.24-2.175.24-.43 0-.43-.186-.43-.427zm3.866-5.228v.785q-.096.214-.258.396-.184.215-.456.35a1.4 1.4 0 0 1-.601.127q-.35 0-.608-.148a1.35 1.35 0 0 1-.43-.41 2 2 0 0 1-.257-.597 3 3 0 0 1-.086-.718q.001-.375.086-.718.093-.35.258-.618.171-.269.416-.423a1 1 0 0 1 .562-.161q.297 0 .541.134.252.135.436.403.192.262.29.665.107.403.107.933" clip-rule="evenodd"/><path fill-rule="evenodd" d="M12 2C6.477 2 2 6.477 2 12s4.477 10 10 10 10-4.477 10-10S17.523 2 12 2M4 12a8 8 0 1 1 16 0 8 8 0 0 1-16 0" clip-rule="evenodd"/></g></mask><g mask="url(#a)"><path fill="#333" d="M0 0h24v24H0z"/></g></svg>