<svg width="24" height="24" viewBox="0 0 24 24" fill="none" xmlns="http://www.w3.org/2000/svg"><g><g><mask id="yds2-icon-__mask0_7_114" style="mask-type:alpha" maskUnits="userSpaceOnUse" x="2" y="2" width="20" height="20"><g><path d="M9.79339 7C9.9075 7 10 7.09169 10 7.2048V16.5557C10 16.8011 9.79931 17 9.55176 17H8.46218C8.21462 17 8.01394 16.8011 8.01394 16.5557V9.93984C8.01394 9.87968 8.01394 9.31246 7.66529 9.4293L6.58438 9.73579C6.29524 9.82716 6 9.61328 6 9.31246V8.6776C6 8.48988 6.11902 8.32241 6.29735 8.25921L9.77948 7.00239C9.78394 7.00081 9.78865 7 9.79339 7Z" fill="currentColor"/><path fill-rule="evenodd" clip-rule="evenodd" d="M11.7316 15.8796C11.7316 15.6392 11.924 15.4468 12.1609 15.4346L12.2158 15.4318C12.6177 15.4114 13.5998 15.3616 13.9263 15.2498C14.3095 15.1155 14.6243 14.9231 14.8709 14.6725C15.1175 14.4219 15.3003 14.1153 15.4192 13.7528C15.497 13.5129 15.5493 13.2518 15.5762 12.9697C15.3508 13.1992 15.0914 13.3842 14.7983 13.5246C14.49 13.6723 14.1597 13.7461 13.8074 13.7461C13.3582 13.7461 12.9597 13.6633 12.6118 13.4978C12.2639 13.3277 11.9688 13.095 11.7266 12.7997C11.4888 12.4998 11.3083 12.1508 11.185 11.7525C11.0617 11.3542 11 10.9224 11 10.457C11 9.98262 11.0749 9.53735 11.2246 9.12117C11.3787 8.70499 11.5967 8.33804 11.8786 8.02031C12.1648 7.70258 12.5061 7.45422 12.9024 7.27522C13.3032 7.09174 13.748 7 14.2368 7C14.7256 7 15.1704 7.09621 15.5711 7.28864C15.9719 7.48107 16.3154 7.75405 16.6016 8.10757C16.8879 8.45663 17.1081 8.87505 17.2622 9.36283C17.4207 9.85061 17.5 10.3921 17.5 10.9873V11.6585C17.5 12.294 17.4317 12.8847 17.2952 13.4306C17.1631 13.9766 16.9627 14.4711 16.6941 14.9141C16.4299 15.3527 16.0996 15.7286 15.7033 16.0418C15.3113 16.3551 14.8555 16.5945 14.3359 16.7601C13.6609 17 12.6609 17 12.1609 16.9996C11.7316 16.9996 11.7316 16.8136 11.7316 16.5733V15.8796ZM15.5976 10.6516V11.4367C15.5337 11.58 15.4478 11.7121 15.3399 11.8331C15.2166 11.9763 15.0647 12.0926 14.8841 12.1821C14.708 12.2671 14.5076 12.3096 14.283 12.3096C14.0496 12.3096 13.8471 12.2604 13.6753 12.162C13.5036 12.059 13.3604 11.9226 13.2459 11.7525C13.1314 11.578 13.0456 11.3788 12.9883 11.1551C12.9311 10.9269 12.9024 10.6874 12.9024 10.4368C12.9024 10.1862 12.9311 9.94682 12.9883 9.71859C13.05 9.48589 13.1358 9.28004 13.2459 9.10104C13.3604 8.92203 13.4992 8.78107 13.6621 8.67814C13.825 8.57074 14.0122 8.51704 14.2236 8.51704C14.4217 8.51704 14.6023 8.56179 14.7652 8.65129C14.9326 8.74079 15.0779 8.87505 15.2012 9.05405C15.3289 9.22857 15.4258 9.45009 15.4919 9.71859C15.5623 9.9871 15.5976 10.2981 15.5976 10.6516Z" fill="currentColor"/><path fill-rule="evenodd" clip-rule="evenodd" d="M12 2C6.47715 2 2 6.47715 2 12C2 17.5228 6.47715 22 12 22C17.5228 22 22 17.5228 22 12C22 6.47715 17.5228 2 12 2ZM4 12C4 7.58172 7.58172 4 12 4C16.4183 4 20 7.58172 20 12C20 16.4183 16.4183 20 12 20C7.58172 20 4 16.4183 4 12Z" fill="currentColor"/></g></mask><g mask="url(#yds2-icon-__mask0_7_114)"><rect width="24" height="24" fill="currentColor"/></g></g></g></svg>