<svg width="24" height="24" viewBox="0 0 24 24" fill="none" xmlns="http://www.w3.org/2000/svg"><g><g><mask id="yds2-icon-__mask0_1_816" style="mask-type:alpha" maskUnits="userSpaceOnUse" x="5" y="5" width="14" height="15"><path fill-rule="evenodd" clip-rule="evenodd" d="M11.2372 6.20749C11.6631 5.79754 12.3369 5.79754 12.7628 6.20749L17.7628 11.02C18.2005 11.4413 18.2139 12.1376 17.7926 12.5753C17.3713 13.013 16.6749 13.0264 16.2372 12.6051L13.1 9.58552V18C13.1 18.6075 12.6075 19.1 12 19.1C11.3925 19.1 10.9 18.6075 10.9 18V9.58552L7.76284 12.6051C7.32514 13.0264 6.62878 13.013 6.20749 12.5753C5.7862 12.1376 5.7995 11.4413 6.23721 11.02L11.2372 6.20749Z" fill="currentColor"/></mask><g mask="url(#yds2-icon-__mask0_1_816)"><rect width="24" height="24" fill="currentColor"/></g></g></g></svg>