<svg width="24" height="24" viewBox="0 0 24 24" fill="none" xmlns="http://www.w3.org/2000/svg"><g><g><mask id="yds2-icon-__mask0_1_804" style="mask-type:alpha" maskUnits="userSpaceOnUse" x="4" y="4" width="16" height="17"><path fill-rule="evenodd" clip-rule="evenodd" d="M12 21C11.7331 21 11.4773 20.8933 11.2895 20.7037L4.78952 14.1412C4.40087 13.7488 4.4039 13.1157 4.79628 12.727C5.18867 12.3384 5.82183 12.3414 6.21048 12.7338L11 17.5694L11 5C11 4.44771 11.4477 4 12 4C12.5523 4 13 4.44771 13 5L13 17.5694L17.7895 12.7338C18.1782 12.3414 18.8113 12.3384 19.2037 12.727C19.5961 13.1157 19.5991 13.7488 19.2105 14.1412L12.7105 20.7037C12.5227 20.8933 12.2669 21 12 21Z" fill="currentColor"/></mask><g mask="url(#yds2-icon-__mask0_1_804)"><rect width="24" height="24" fill="currentColor"/></g></g></g></svg>