<svg width="24" height="24" viewBox="0 0 24 24" fill="none" xmlns="http://www.w3.org/2000/svg"><g><g><mask id="yds2-icon-__mask0_1_824" style="mask-type:alpha" maskUnits="userSpaceOnUse" x="4" y="5" width="15" height="14"><path fill-rule="evenodd" clip-rule="evenodd" d="M5.20746 12.7628C4.79751 12.3369 4.79751 11.6631 5.20746 11.2372L10.02 6.23721C10.4412 5.7995 11.1376 5.7862 11.5753 6.20749C12.013 6.62878 12.0263 7.32514 11.605 7.76284L8.58549 10.9L17 10.9C17.6075 10.9 18.1 11.3925 18.1 12C18.1 12.6075 17.6075 13.1 17 13.1L8.58549 13.1L11.605 16.2372C12.0263 16.6749 12.013 17.3713 11.5753 17.7926C11.1376 18.2139 10.4412 18.2005 10.02 17.7628L5.20746 12.7628Z" fill="currentColor"/></mask><g mask="url(#yds2-icon-__mask0_1_824)"><rect width="24" height="24" fill="currentColor"/></g></g></g></svg>