<svg width="24" height="24" viewBox="0 0 24 24" fill="none" xmlns="http://www.w3.org/2000/svg"><g><g><mask id="yds2-icon-__mask0_7_71" style="mask-type:alpha" maskUnits="userSpaceOnUse" x="3" y="3" width="19" height="19"><path fill-rule="evenodd" clip-rule="evenodd" d="M5.92329 13.7408C4.69932 14.9648 4.69932 16.9493 5.92329 18.1732C7.14726 19.3972 9.13172 19.3972 10.3557 18.1732L19.1478 9.38115C19.8336 8.69534 19.8336 7.58343 19.1478 6.89762C18.462 6.21181 17.3501 6.21181 16.6642 6.89762L7.87216 15.6897C7.72452 15.8373 7.72452 16.0767 7.87216 16.2244C8.0198 16.372 8.25918 16.372 8.40682 16.2244L16.6421 7.9891C17.0326 7.59857 17.6658 7.59857 18.0563 7.9891C18.4468 8.37962 18.4468 9.01279 18.0563 9.40331L9.82103 17.6386C8.89234 18.5673 7.38664 18.5673 6.45795 17.6386C5.52926 16.7099 5.52926 15.2042 6.45795 14.2755L15.25 5.4834C16.7169 4.01655 19.0951 4.01655 20.562 5.48341C22.0288 6.95026 22.0288 9.3285 20.562 10.7954L11.7699 19.5874C9.76488 21.5925 6.5141 21.5925 4.50908 19.5874C2.50405 17.5824 2.50405 14.3316 4.50908 12.3266L12.7443 4.09135C13.1349 3.70083 13.768 3.70083 14.1586 4.09135C14.5491 4.48188 14.5491 5.11504 14.1586 5.50557L5.92329 13.7408Z" fill="currentColor"/></mask><g mask="url(#yds2-icon-__mask0_7_71)"><rect width="24" height="24" fill="currentColor"/></g></g></g></svg>