<svg width="24" height="24" viewBox="0 0 24 24" fill="none" xmlns="http://www.w3.org/2000/svg"><g><g><mask id="yds2-icon-__mask0_1_649" style="mask-type:alpha" maskUnits="userSpaceOnUse" x="3" y="2" width="18" height="20"><g><path fill-rule="evenodd" clip-rule="evenodd" d="M12.0005 2C7.87928 2 4.61837 5.50671 4.61837 9.72V11.1625L3.16113 14.0571L3.14261 14.106C2.64628 15.4173 3.52201 17 5.05818 17H18.9328C20.4551 17 21.3598 15.4309 20.8584 14.106L20.8398 14.0571L19.3826 11.1625V9.72C19.3826 5.50671 16.1217 2 12.0005 2ZM6.61837 9.72C6.61837 6.51329 9.07936 4 12.0005 4C14.9216 4 17.3826 6.51329 17.3826 9.72V11.6375L18.9963 14.8429C19.0058 14.889 18.9958 14.9316 18.9742 14.9652C18.9614 14.9849 18.9489 14.9942 18.9433 14.9975L18.9401 14.9991C18.9401 14.9991 18.9364 15 18.9328 15H5.05818C5.05332 15 5.05156 14.9988 5.05156 14.9988C5.04807 14.9968 5.037 14.989 5.02508 14.9703C5.0045 14.938 4.99353 14.8936 5.00432 14.8436L6.61837 11.6375V9.72Z" fill="currentColor"/><path d="M9.77026 18.3623C9.41804 17.9369 8.78766 17.8776 8.36227 18.2298C7.93688 18.582 7.87757 19.2124 8.22979 19.6378C9.23279 20.8491 10.5931 21.5 11.9995 21.5C13.4058 21.5 14.7663 20.8492 15.77 19.6381C16.1224 19.2129 16.0634 18.5825 15.6381 18.2301C15.2129 17.8777 14.5825 17.9367 14.2301 18.3619C13.5762 19.1509 12.7647 19.5 11.9995 19.5C11.2342 19.5 10.4233 19.1509 9.77026 18.3623Z" fill="currentColor"/></g></mask><g mask="url(#yds2-icon-__mask0_1_649)"><rect width="24" height="24" fill="currentColor"/></g></g></g></svg>