<svg width="24" height="24" viewBox="0 0 24 24" fill="none" xmlns="http://www.w3.org/2000/svg"><g><g><mask id="yds2-icon-__mask0_1_812" style="mask-type:alpha" maskUnits="userSpaceOnUse" x="4" y="4" width="17" height="16"><path fill-rule="evenodd" clip-rule="evenodd" d="M21 12C21 12.2669 20.8933 12.5227 20.7037 12.7105L14.1412 19.2105C13.7488 19.5991 13.1157 19.5961 12.727 19.2037C12.3384 18.8113 12.3414 18.1782 12.7338 17.7895L17.5694 13H5C4.44771 13 4 12.5523 4 12C4 11.4477 4.44771 11 5 11L17.5694 11L12.7338 6.21048C12.3414 5.82183 12.3384 5.18867 12.727 4.79628C13.1157 4.4039 13.7488 4.40087 14.1412 4.78952L20.7037 11.2895C20.8933 11.4773 21 11.7331 21 12Z" fill="currentColor"/></mask><g mask="url(#yds2-icon-__mask0_1_812)"><rect width="24" height="24" fill="currentColor"/></g></g></g></svg>