<svg width="24" height="24" viewBox="0 0 24 24" fill="none" xmlns="http://www.w3.org/2000/svg"><g><g><mask id="yds2-icon-__mask0_1_800" style="mask-type:alpha" maskUnits="userSpaceOnUse" x="4" y="4" width="16" height="17"><path fill-rule="evenodd" clip-rule="evenodd" d="M12 4C12.2669 4 12.5227 4.10667 12.7105 4.29628L19.2105 10.8588C19.5991 11.2512 19.5961 11.8843 19.2037 12.273C18.8113 12.6616 18.1782 12.6586 17.7895 12.2662L13 7.43064V20C13 20.5523 12.5523 21 12 21C11.4477 21 11 20.5523 11 20V7.43064L6.21048 12.2662C5.82183 12.6586 5.18867 12.6616 4.79628 12.273C4.4039 11.8843 4.40087 11.2512 4.78952 10.8588L11.2895 4.29628C11.4773 4.10667 11.7331 4 12 4Z" fill="currentColor"/></mask><g mask="url(#yds2-icon-__mask0_1_800)"><rect width="24" height="24" fill="currentColor"/></g></g></g></svg>