<svg width="24" height="24" viewBox="0 0 24 24" fill="none" xmlns="http://www.w3.org/2000/svg"><g><g><mask id="yds2-icon-__mask0_1_808" style="mask-type:alpha" maskUnits="userSpaceOnUse" x="3" y="5" width="17" height="15"><path fill-rule="evenodd" clip-rule="evenodd" d="M3 12.5C3 12.2331 3.10667 11.9773 3.29628 11.7895L9.85878 5.28952C10.2512 4.90087 10.8843 4.9039 11.273 5.29628C11.6616 5.68867 11.6586 6.32183 11.2662 6.71048L6.43064 11.5L19 11.5C19.5523 11.5 20 11.9477 20 12.5C20 13.0523 19.5523 13.5 19 13.5L6.43064 13.5L11.2662 18.2895C11.6586 18.6782 11.6616 19.3113 11.273 19.7037C10.8843 20.0961 10.2512 20.0991 9.85879 19.7105L3.29628 13.2105C3.10667 13.0227 3 12.7669 3 12.5Z" fill="currentColor"/></mask><g mask="url(#yds2-icon-__mask0_1_808)"><rect width="24" height="24" fill="currentColor"/></g></g></g></svg>