<svg width="24" height="24" viewBox="0 0 24 24" fill="none" xmlns="http://www.w3.org/2000/svg"><g><g><mask id="yds2-icon-__mask0_1_872" style="mask-type:alpha" maskUnits="userSpaceOnUse" x="2" y="2" width="20" height="20"><path d="M13.1 4.00002C13.1 3.39251 12.6075 2.90002 12 2.90002C11.3925 2.90002 10.9 3.39251 10.9 4.00002V10.9H4.00002C3.39251 10.9 2.90002 11.3925 2.90002 12C2.90002 12.6075 3.39251 13.1 4.00002 13.1H10.9V20C10.9 20.6075 11.3925 21.1 12 21.1C12.6075 21.1 13.1 20.6075 13.1 20V13.1H20C20.6075 13.1 21.1 12.6075 21.1 12C21.1 11.3925 20.6075 10.9 20 10.9H13.1V4.00002Z" fill="currentColor"/></mask><g mask="url(#yds2-icon-__mask0_1_872)"><rect width="24" height="24" fill="currentColor"/></g></g></g></svg>