<svg width="24" height="24" viewBox="0 0 24 24" fill="none" xmlns="http://www.w3.org/2000/svg"><g><g><mask id="yds2-icon-__mask0_1_828" style="mask-type:alpha" maskUnits="userSpaceOnUse" x="5" y="5" width="15" height="14"><path fill-rule="evenodd" clip-rule="evenodd" d="M18.7925 11.2372C19.2025 11.6631 19.2025 12.3369 18.7925 12.7628L13.98 17.7628C13.5587 18.2005 12.8624 18.2139 12.4247 17.7926C11.987 17.3713 11.9737 16.6749 12.395 16.2372L15.4145 13.1L7 13.1C6.39249 13.1 5.9 12.6075 5.9 12C5.9 11.3925 6.39249 10.9 7 10.9L15.4145 10.9L12.395 7.76284C11.9737 7.32514 11.987 6.62878 12.4247 6.20749C12.8624 5.7862 13.5587 5.7995 13.98 6.23721L18.7925 11.2372Z" fill="currentColor"/></mask><g mask="url(#yds2-icon-__mask0_1_828)"><rect width="24" height="24" fill="currentColor"/></g></g></g></svg>