<svg width="24" height="24" viewBox="0 0 24 24" fill="none" xmlns="http://www.w3.org/2000/svg"><g><g><mask id="yds2-icon-__mask0_1_876" style="mask-type:alpha" maskUnits="userSpaceOnUse" x="4" y="4" width="16" height="16"><path d="M13.1 6.00002C13.1 5.39251 12.6075 4.90002 12 4.90002C11.3925 4.90002 10.9 5.39251 10.9 6.00002V10.9H5.99996C5.39245 10.9 4.89996 11.3925 4.89996 12C4.89996 12.6075 5.39245 13.1 5.99996 13.1H10.9V18C10.9 18.6075 11.3925 19.1 12 19.1C12.6075 19.1 13.1 18.6075 13.1 18V13.1H18C18.6075 13.1 19.1 12.6075 19.1 12C19.1 11.3925 18.6075 10.9 18 10.9H13.1V6.00002Z" fill="currentColor"/></mask><g mask="url(#yds2-icon-__mask0_1_876)"><rect width="24" height="24" fill="currentColor"/></g></g></g></svg>