<svg width="24" height="24" viewBox="0 0 24 24" fill="none" xmlns="http://www.w3.org/2000/svg"><g><g><mask id="yds2-icon-__mask0_1_820" style="mask-type:alpha" maskUnits="userSpaceOnUse" x="5" y="5" width="14" height="15"><path fill-rule="evenodd" clip-rule="evenodd" d="M12.7629 18.7926C12.337 19.2025 11.6632 19.2025 11.2373 18.7926L6.23727 13.9801C5.79957 13.5588 5.78626 12.8624 6.20755 12.4247C6.62884 11.987 7.3252 11.9737 7.7629 12.395L10.9001 15.4145L10.9001 7.00002C10.9001 6.39251 11.3926 5.90002 12.0001 5.90002C12.6076 5.90002 13.1001 6.39251 13.1001 7.00002L13.1001 15.4145L16.2373 12.395C16.675 11.9737 17.3713 11.987 17.7926 12.4247C18.2139 12.8624 18.2006 13.5588 17.7629 13.9801L12.7629 18.7926Z" fill="currentColor"/></mask><g mask="url(#yds2-icon-__mask0_1_820)"><rect width="24" height="24" fill="currentColor"/></g></g></g></svg>