<svg width="24" height="24" viewBox="0 0 24 24" fill="none" xmlns="http://www.w3.org/2000/svg"><g><g><mask id="yds2-icon-__mask0_31_420" style="mask-type:alpha" maskUnits="userSpaceOnUse" x="2" y="2" width="20" height="20"><g><path d="M13.8381 2.64709C12.754 1.81458 11.2458 1.81457 10.1617 2.64709L7.80068 4.46023C7.72991 4.51458 7.65229 4.55939 7.56984 4.59351L4.8191 5.73164C3.55608 6.25422 2.80196 7.56041 2.9809 8.91551L3.37061 11.8668C3.3823 11.9552 3.3823 12.0449 3.37061 12.1333L2.9809 15.0846C2.80196 16.4397 3.55608 17.7459 4.8191 18.2685L7.56984 19.4066C7.65229 19.4407 7.7299 19.4855 7.80068 19.5399L10.1617 21.353C11.2458 22.1855 12.754 22.1855 13.8381 21.353L16.1991 19.5399C16.2699 19.4855 16.3475 19.4407 16.43 19.4066L18.2435 18.6562C18.7539 18.4451 18.9964 17.8602 18.7852 17.3499C18.5741 16.8395 17.9892 16.597 17.4789 16.8082L15.6653 17.5585C15.4209 17.6597 15.1908 17.7925 14.981 17.9536L12.62 19.7668C12.2543 20.0476 11.7455 20.0476 11.3798 19.7668L9.01882 17.9536C8.80901 17.7925 8.57892 17.6597 8.33448 17.5585L5.58375 16.4204C5.15771 16.2441 4.90332 15.8035 4.96369 15.3464L5.3534 12.3952C5.38803 12.1329 5.38803 11.8672 5.3534 11.6049L4.96369 8.65368C4.90332 8.19658 5.15771 7.75597 5.58375 7.5797L8.33448 6.44157C8.57892 6.34043 8.80901 6.20759 9.01882 6.04646L11.3798 4.23332C11.7455 3.9525 12.2543 3.9525 12.62 4.23332L14.981 6.04646C15.1908 6.20759 15.4209 6.34043 15.6653 6.44157L18.4161 7.5797C18.8421 7.75597 19.0965 8.19658 19.0361 8.65368L18.6464 11.6049C18.6118 11.8672 18.6118 12.1329 18.6464 12.3952L18.9456 14.6609C19.0179 15.2085 19.5204 15.5937 20.0679 15.5214C20.6154 15.4491 21.0007 14.9467 20.9284 14.3991L20.6292 12.1333C20.6175 12.0449 20.6175 11.9552 20.6292 11.8668L21.0189 8.91551C21.1978 7.56041 20.4437 6.25422 19.1807 5.73164L16.43 4.59351C16.3475 4.55939 16.2699 4.51458 16.1991 4.46023L13.8381 2.64709Z" fill="currentColor"/><path fill-rule="evenodd" clip-rule="evenodd" d="M8.18766 8.59755C7.97329 9.39761 8.44808 10.22 9.24815 10.4344C10.0482 10.6487 10.8706 10.1739 11.085 9.37387C11.2993 8.57381 10.8245 7.75144 10.0245 7.53706C9.22441 7.32269 8.40204 7.79748 8.18766 8.59755Z" fill="currentColor"/><path fill-rule="evenodd" clip-rule="evenodd" d="M13.402 14.0317C12.9878 14.749 13.2336 15.6662 13.9509 16.0804C14.6683 16.4945 15.5855 16.2487 15.9996 15.5314C16.4138 14.8141 16.168 13.8969 15.4507 13.4827C14.7334 13.0686 13.8161 13.3144 13.402 14.0317Z" fill="currentColor"/><path d="M15.5355 8.46449C15.926 8.85502 15.926 9.48818 15.5355 9.87871L9.87862 15.5356C9.4881 15.9261 8.85493 15.9261 8.46441 15.5356C8.07388 15.145 8.07388 14.5119 8.46441 14.1213L14.1213 8.46449C14.5118 8.07397 15.145 8.07397 15.5355 8.46449Z" fill="currentColor"/></g></mask><g mask="url(#yds2-icon-__mask0_31_420)"><rect width="24" height="24" fill="currentColor"/></g></g></g></svg>