<svg width="24" height="24" viewBox="0 0 24 24" fill="none" xmlns="http://www.w3.org/2000/svg"><g><g><mask id="yds2-icon-__mask0_7_86" style="mask-type:alpha" maskUnits="userSpaceOnUse" x="2" y="3" width="20" height="18"><path fill-rule="evenodd" clip-rule="evenodd" d="M9.7564 3.59443C10.3491 3.21812 11.093 3 12 3C12.907 3 13.6509 3.21812 14.2436 3.59443C14.8325 3.96835 15.2176 4.46368 15.4661 4.93698C15.7122 5.40563 15.8306 5.86359 15.8889 6.19695C15.9184 6.36578 15.9336 6.50869 15.9415 6.61332L15.95 7H19C20.6292 7 21.95 8.32076 21.95 9.95V17.45C21.95 19.0792 20.6292 20.4 19 20.4H4.99999C3.37075 20.4 2.04999 19.0792 2.04999 17.45V9.95C2.04999 8.32076 3.37075 7 4.99999 7H8.04999L8.05851 6.61332C8.06636 6.50869 8.08154 6.36578 8.11108 6.19695C8.16942 5.86359 8.28782 5.40564 8.53386 4.93698C8.78234 4.46368 9.16747 3.96836 9.7564 3.59443ZM14.1 6.86313V7.05H9.99999V6.86313L10.0001 6.85828C10.0005 6.84912 10.0013 6.83107 10.0032 6.80542C10.0071 6.75381 10.0153 6.6735 10.0326 6.57447C10.0681 6.37212 10.1372 6.11579 10.2661 5.87016C10.3926 5.62917 10.57 5.41021 10.8248 5.24843C11.0759 5.08902 11.457 4.95 12.05 4.95C12.643 4.95 13.0241 5.08902 13.2752 5.24843C13.53 5.41021 13.7073 5.62918 13.8339 5.87016C13.9628 6.11579 14.0319 6.37212 14.0673 6.57447C14.0847 6.67351 14.0929 6.75381 14.0968 6.80542C14.0987 6.83107 14.0995 6.84912 14.0998 6.85828L14.1 6.86313ZM7.79999 18.55L7.79999 8.95H16.3L16.3 18.55H7.79999ZM17.8 18.55L17.8 8.95H19.05C19.6299 8.95 20.1 9.4201 20.1 10V17.5C20.1 18.0799 19.6299 18.55 19.05 18.55H17.8ZM6.29999 8.95H5.04999C4.47009 8.95 3.99999 9.4201 3.99999 10V17.5C3.99999 18.0799 4.47009 18.55 5.04999 18.55H6.29999L6.29999 8.95Z" fill="currentColor"/></mask><g mask="url(#yds2-icon-__mask0_7_86)"><rect width="24" height="24" fill="currentColor"/></g></g></g></svg>