<svg width="24" height="24" viewBox="0 0 24 24" fill="none" xmlns="http://www.w3.org/2000/svg"><g><g><mask id="yds2-icon-__mask0_7_85" style="mask-type:alpha" maskUnits="userSpaceOnUse" x="3" y="3" width="18" height="18"><g><path d="M13.001 12L19 12C19.5523 12 20 11.5523 20 11C20 10.4477 19.5523 10 19 10L15.4142 10L20.7071 4.70711C21.0976 4.31658 21.0976 3.68342 20.7071 3.29289C20.3166 2.90237 19.6834 2.90237 19.2929 3.29289L14 8.58579L14 5C14 4.44772 13.5523 4 13 4C12.4477 4 12 4.44771 12 5L12 11C12 11.1356 12.027 11.2649 12.0759 11.3828C12.1247 11.5007 12.197 11.6112 12.2929 11.7071C12.3888 11.803 12.4993 11.8753 12.6172 11.9241C12.7324 11.9719 12.8585 11.9988 12.9908 12C12.9938 12 12.9979 12 13.001 12Z" fill="currentColor"/><path d="M10 19V15.4142L4.70711 20.7071C4.31658 21.0976 3.68342 21.0976 3.29289 20.7071C2.90237 20.3166 2.90237 19.6834 3.29289 19.2929L8.58579 14H5C4.44772 14 4 13.5523 4 13C4 12.4477 4.44772 12 5 12H11C11.5523 12 12 12.4477 12 13V19C12 19.5523 11.5523 20 11 20C10.4477 20 10 19.5523 10 19Z" fill="currentColor"/></g></mask><g mask="url(#yds2-icon-__mask0_7_85)"><rect width="24" height="24" fill="currentColor"/></g></g></g></svg>