<svg width="24" height="24" viewBox="0 0 24 24" fill="none" xmlns="http://www.w3.org/2000/svg"><g><g><mask id="yds2-icon-__mask0_7_132" style="mask-type:alpha" maskUnits="userSpaceOnUse" x="3" y="3" width="18" height="18"><path fill-rule="evenodd" clip-rule="evenodd" d="M12 21C16.9706 21 21 16.9706 21 12C21 7.02944 16.9706 3 12 3C7.02944 3 3 7.02944 3 12C3 16.9706 7.02944 21 12 21ZM9.79289 8.70711C9.40237 8.31658 9.40237 7.68342 9.79289 7.29289C10.1834 6.90237 10.8166 6.90237 11.2071 7.29289L15.2071 11.2929C15.5976 11.6834 15.5976 12.3166 15.2071 12.7071L11.2071 16.7071C10.8166 17.0976 10.1834 17.0976 9.79289 16.7071C9.40237 16.3166 9.40237 15.6834 9.79289 15.2929L13.0858 12L9.79289 8.70711Z" fill="currentColor"/></mask><g mask="url(#yds2-icon-__mask0_7_132)"><rect width="24" height="24" fill="currentColor"/></g></g></g></svg>