<svg width="24" height="24" viewBox="0 0 24 24" fill="none" xmlns="http://www.w3.org/2000/svg"><g><g><mask id="yds2-icon-__mask0_7_49" style="mask-type:alpha" maskUnits="userSpaceOnUse" x="2" y="4" width="20" height="16"><g><path d="M6 15.25C6 14.8358 6.33579 14.5 6.75 14.5H7.75C8.16421 14.5 8.5 14.8358 8.5 15.25C8.5 15.6642 8.16421 16 7.75 16H6.75C6.33579 16 6 15.6642 6 15.25Z" fill="currentColor"/><path d="M10.25 14.5C9.83579 14.5 9.5 14.8358 9.5 15.25C9.5 15.6642 9.83579 16 10.25 16H14.25C14.6642 16 15 15.6642 15 15.25C15 14.8358 14.6642 14.5 14.25 14.5H10.25Z" fill="currentColor"/><path fill-rule="evenodd" clip-rule="evenodd" d="M5 4.5C3.34315 4.5 2 5.84315 2 7.5V16.5C2 18.1569 3.34315 19.5 5 19.5H19C20.6569 19.5 22 18.1569 22 16.5V7.5C22 5.84315 20.6569 4.5 19 4.5H5ZM4 7.5C4 6.94772 4.44772 6.5 5 6.5H19C19.5523 6.5 20 6.94772 20 7.5V8H4V7.5ZM4 10V16.5C4 17.0523 4.44772 17.5 5 17.5H19C19.5523 17.5 20 17.0523 20 16.5V10H4Z" fill="currentColor"/></g></mask><g mask="url(#yds2-icon-__mask0_7_49)"><rect width="24" height="24" fill="currentColor"/></g></g></g></svg>