<svg xmlns="http://www.w3.org/2000/svg" width="24" height="24" fill="none"><mask id="a" width="18" height="18" x="3" y="3" maskUnits="userSpaceOnUse" style="mask-type:alpha"><path fill="#333" fill-rule="evenodd" d="M3.5 11.837c0 .529.21 1.036.584 1.41l7.17 7.17c.778.778 2.04.778 2.819 0l6.343-6.344a1.994 1.994 0 0 0 0-2.82l-7.17-7.17a2 2 0 0 0-1.409-.583H5.494A1.994 1.994 0 0 0 3.5 5.494zM10 8.5a1.5 1.5 0 1 1-3 0 1.5 1.5 0 0 1 3 0" clip-rule="evenodd"/></mask><g mask="url(#a)"><path fill="#333" d="M0 0h24v24H0z"/></g></svg>