<svg width="24" height="24" viewBox="0 0 24 24" fill="none" xmlns="http://www.w3.org/2000/svg"><g><g><mask id="yds2-icon-__mask0_7_104" style="mask-type:alpha" maskUnits="userSpaceOnUse" x="4" y="3" width="17" height="18"><g><path fill-rule="evenodd" clip-rule="evenodd" d="M10 3C8.34315 3 7 4.34315 7 6V15C7 16.6569 8.34315 18 10 18H18C19.6569 18 21 16.6569 21 15V6C21 4.34315 19.6569 3 18 3H10ZM9 6C9 5.44772 9.44772 5 10 5H18C18.5523 5 19 5.44772 19 6V15C19 15.5523 18.5523 16 18 16H10C9.44772 16 9 15.5523 9 15V6Z" fill="currentColor"/><path d="M6 7C6 6.44772 5.55228 6 5 6C4.44772 6 4 6.44772 4 7V18C4 19.6569 5.34315 21 7 21H17C17.5523 21 18 20.5523 18 20C18 19.4477 17.5523 19 17 19H7C6.44772 19 6 18.5523 6 18V7Z" fill="currentColor"/></g></mask><g mask="url(#yds2-icon-__mask0_7_104)"><rect width="24" height="24" fill="currentColor"/></g></g></g></svg>