<svg width="24" height="24" viewBox="0 0 24 24" fill="none" xmlns="http://www.w3.org/2000/svg"><g><g><mask id="yds2-icon-__mask0_7_117" style="mask-type:alpha" maskUnits="userSpaceOnUse" x="3" y="3" width="18" height="18"><path fill-rule="evenodd" clip-rule="evenodd" d="M3.5 11.8371C3.5 12.3658 3.71004 12.8729 4.08391 13.2468L11.2532 20.4161C12.0318 21.1946 13.294 21.1946 14.0726 20.4161L20.4161 14.0726C21.1946 13.294 21.1946 12.0318 20.4161 11.2532L13.2468 4.08391C12.8729 3.71004 12.3658 3.5 11.8371 3.5H5.49359C4.39256 3.5 3.50001 4.39256 3.5 5.49358L3.5 11.8371ZM10 8.5C10 9.32843 9.32843 10 8.5 10C7.67157 10 7 9.32843 7 8.5C7 7.67157 7.67157 7 8.5 7C9.32843 7 10 7.67157 10 8.5Z" fill="currentColor"/></mask><g mask="url(#yds2-icon-__mask0_7_117)"><rect width="24" height="24" fill="currentColor"/></g></g></g></svg>