<svg width="24" height="24" viewBox="0 0 24 24" fill="none" xmlns="http://www.w3.org/2000/svg"><g><g><mask id="yds2-icon-__mask0_7_130" style="mask-type:alpha" maskUnits="userSpaceOnUse" x="3" y="3" width="18" height="18"><path fill-rule="evenodd" clip-rule="evenodd" d="M3.00006 12C3.00006 16.9706 7.0295 21 12.0001 21C16.9706 21 21.0001 16.9706 21.0001 12C21.0001 7.02944 16.9706 3 12.0001 3C7.0295 3 3.00006 7.02944 3.00006 12ZM15.293 9.79289C15.6835 9.40237 16.3166 9.40237 16.7072 9.79289C17.0977 10.1834 17.0977 10.8166 16.7072 11.2071L12.7072 15.2071C12.3166 15.5976 11.6835 15.5976 11.293 15.2071L7.29295 11.2071C6.90243 10.8166 6.90243 10.1834 7.29295 9.79289C7.68348 9.40237 8.31664 9.40237 8.70717 9.79289L12.0001 13.0858L15.293 9.79289Z" fill="currentColor"/></mask><g mask="url(#yds2-icon-__mask0_7_130)"><rect width="24" height="24" fill="currentColor"/></g></g></g></svg>