<svg width="24" height="24" viewBox="0 0 24 24" fill="none" xmlns="http://www.w3.org/2000/svg"><g><g><mask id="yds2-icon-__mask0_1_864" style="mask-type:alpha" maskUnits="userSpaceOnUse" x="3" y="3" width="18" height="18"><path d="M18.2222 19.7778C18.6517 20.2074 19.3482 20.2074 19.7778 19.7778C20.2074 19.3483 20.2074 18.6518 19.7778 18.2222L13.5556 12L19.7778 5.77784C20.2074 5.34827 20.2074 4.65178 19.7778 4.22221C19.3482 3.79263 18.6517 3.79263 18.2221 4.22221L12 10.4444L5.77779 4.22221C5.34822 3.79263 4.65174 3.79263 4.22216 4.22221C3.79258 4.65178 3.79258 5.34826 4.22216 5.77784L10.4443 12L4.22215 18.2222C3.79257 18.6518 3.79257 19.3483 4.22215 19.7778C4.65172 20.2074 5.3482 20.2074 5.77778 19.7778L12 13.5557L18.2222 19.7778Z" fill="currentColor"/></mask><g mask="url(#yds2-icon-__mask0_1_864)"><rect width="24" height="24" fill="currentColor"/></g></g></g></svg>