<svg xmlns="http://www.w3.org/2000/svg" width="24" height="24" fill="none"><mask id="a" width="20" height="16" x="2" y="4" maskUnits="userSpaceOnUse" style="mask-type:alpha"><g fill="#333"><path d="M16.5 11.5a.75.75 0 0 0-1.5 0v1a.75.75 0 0 0 1.5 0zM10.963 13.918a1.3 1.3 0 0 1-.586.127q-.404 0-.668-.162a1.15 1.15 0 0 1-.404-.435 2.2 2.2 0 0 1-.2-.625 5 5 0 0 1-.052-.73v-.186q0-.375.052-.718.06-.348.2-.626.146-.284.404-.446.264-.162.656-.162.369 0 .627.162t.399.429.152.602h1.459q-.012-.73-.346-1.268a2.2 2.2 0 0 0-.914-.835q-.58-.295-1.348-.295-.726 0-1.271.243a2.5 2.5 0 0 0-.908.678 3 3 0 0 0-.54 1.008 4.2 4.2 0 0 0-.175 1.228v.186q0 .654.176 1.228.18.573.539 1.008.363.434.908.678.545.243 1.277.243.721 0 1.301-.29a2.5 2.5 0 0 0 .938-.8q.351-.503.363-1.14h-1.459a1.022 1.022 0 0 1-.58.898"/><path fill-rule="evenodd" d="M2 7.5a3 3 0 0 1 3-3h14a3 3 0 0 1 3 3v2.05a1 1 0 0 1-.801.98 1.5 1.5 0 0 0 0 2.94 1 1 0 0 1 .801.98v2.05a3 3 0 0 1-3 3H5a3 3 0 0 1-3-3v-2.05a1 1 0 0 1 .801-.98 1.5 1.5 0 0 0 0-2.94A1 1 0 0 1 2 9.55zm3-1a1 1 0 0 0-1 1v1.337a3.5 3.5 0 0 1 0 6.326V16.5a1 1 0 0 0 1 1h10.043a.8.8 0 0 1-.043-.25v-2a.75.75 0 0 1 1.5 0v2a.8.8 0 0 1-.043.25H19a1 1 0 0 0 1-1v-1.337a3.5 3.5 0 0 1 0-6.326V7.5a1 1 0 0 0-1-1h-2.543a.8.8 0 0 1 .043.25v2a.75.75 0 0 1-1.5 0v-2q0-.132.043-.25z" clip-rule="evenodd"/></g></mask><g mask="url(#a)"><path fill="#333" d="M0 0h24v24H0z"/></g></svg>