<svg width="24" height="24" viewBox="0 0 24 24" fill="none" xmlns="http://www.w3.org/2000/svg"><g><g><mask id="yds2-icon-__mask0_7_119" style="mask-type:alpha" maskUnits="userSpaceOnUse" x="3" y="3" width="18" height="18"><path fill-rule="evenodd" clip-rule="evenodd" d="M12 21C16.9706 21 21 16.9706 21 12C21 7.02944 16.9706 3 12 3C7.02944 3 3 7.02944 3 12C3 16.9706 7.02944 21 12 21ZM12.75 8C12.75 7.58579 12.4142 7.25 12 7.25C11.5858 7.25 11.25 7.58579 11.25 8V12.9825C11.2464 13.1369 11.291 13.2879 11.3751 13.4148C11.4602 13.5428 11.5836 13.6432 11.7289 13.6995L15.0441 15.0727C15.4268 15.2312 15.8655 15.0495 16.024 14.6668C16.1826 14.2841 16.0008 13.8454 15.6182 13.6869L12.75 12.4989V8Z" fill="currentColor"/></mask><g mask="url(#yds2-icon-__mask0_7_119)"><rect width="24" height="24" fill="currentColor"/></g></g></g></svg>