<svg width="24" height="24" viewBox="0 0 24 24" fill="none" xmlns="http://www.w3.org/2000/svg"><g><g><mask id="yds2-icon-__mask0_7_51" style="mask-type:alpha" maskUnits="userSpaceOnUse" x="2" y="3" width="20" height="19"><g><path d="M9 9.5C9.55228 9.5 10 9.05228 10 8.5C10 7.94772 9.55228 7.5 9 7.5C8.44772 7.5 8 7.94772 8 8.5C8 9.05228 8.44772 9.5 9 9.5Z" fill="currentColor"/><path d="M16 8.5C16 9.05228 15.5523 9.5 15 9.5C14.4477 9.5 14 9.05228 14 8.5C14 7.94772 14.4477 7.5 15 7.5C15.5523 7.5 16 7.94772 16 8.5Z" fill="currentColor"/><path d="M7.35214 11.6225C7.56063 11.2651 8.01911 11.1441 8.37673 11.3519C8.6972 11.5325 9.04428 11.6713 9.39059 11.7925C10.0495 12.0231 10.9639 12.2504 12 12.2504C13.0361 12.2504 13.9504 12.0231 14.6094 11.7925C14.9555 11.6714 15.3029 11.5324 15.6231 11.352C15.9808 11.1436 16.4392 11.2648 16.6478 11.6225C16.8565 11.9803 16.7357 12.4395 16.3779 12.6482C15.9783 12.8806 15.5397 13.0561 15.1049 13.2083C14.3352 13.4777 13.2496 13.7504 12 13.7504C10.7504 13.7504 9.6647 13.4777 8.89507 13.2083C8.46053 13.0562 8.0222 12.8809 7.62288 12.6487C7.2651 12.44 7.14343 11.9803 7.35214 11.6225Z" fill="currentColor"/><path fill-rule="evenodd" clip-rule="evenodd" d="M5.5 3.5C3.84315 3.5 2.5 4.84315 2.5 6.5V15C2.5 16.6569 3.84315 18 5.5 18H7.5V20.4449C7.5 21.7103 8.97046 22.4071 9.94986 21.6058L14.357 18H18.5C20.1569 18 21.5 16.6569 21.5 15V6.5C21.5 4.84315 20.1569 3.5 18.5 3.5H5.5ZM4.5 6.5C4.5 5.94772 4.94772 5.5 5.5 5.5H18.5C19.0523 5.5 19.5 5.94772 19.5 6.5V15C19.5 15.5523 19.0523 16 18.5 16H14C13.7692 16 13.5454 16.0799 13.3668 16.226L9.5 19.3898V17C9.5 16.4477 9.05228 16 8.5 16H5.5C4.94772 16 4.5 15.5523 4.5 15V6.5Z" fill="currentColor"/></g></mask><g mask="url(#yds2-icon-__mask0_7_51)"><rect width="24" height="24" fill="currentColor"/></g></g></g></svg>