<svg width="24" height="24" viewBox="0 0 24 24" fill="none" xmlns="http://www.w3.org/2000/svg"><g><g><mask id="yds2-icon-__mask0_1_633" style="mask-type:alpha" maskUnits="userSpaceOnUse" x="2" y="3" width="20" height="18"><g><path fill-rule="evenodd" clip-rule="evenodd" d="M2 4C2 3.44772 2.44772 3 3 3H4.89782C5.85518 3 6.67828 3.67844 6.86104 4.61819L7.32425 7H19.2197C20.5205 7 21.4752 8.22229 21.1601 9.48442L19.8514 14.7266C19.5179 16.0626 18.3177 17 16.9407 17H9.62803C8.17891 17 6.93693 15.9642 6.67677 14.5386L5.51729 8.18523L4.89782 5H3C2.44772 5 2 4.55228 2 4ZM7.69902 9L8.64427 14.1795C8.731 14.6547 9.14499 15 9.62803 15H16.9407C17.3997 15 17.7998 14.6875 17.911 14.2422L19.2197 9H7.69902Z" fill="currentColor"/><path d="M18.8887 19.5C18.8887 20.3284 18.2171 21 17.3887 21C16.5602 21 15.8887 20.3284 15.8887 19.5C15.8887 18.6716 16.5602 18 17.3887 18C18.2171 18 18.8887 18.6716 18.8887 19.5Z" fill="currentColor"/><path d="M9.4 21C10.2284 21 10.9 20.3284 10.9 19.5C10.9 18.6716 10.2284 18 9.4 18C8.57157 18 7.9 18.6716 7.9 19.5C7.9 20.3284 8.57157 21 9.4 21Z" fill="currentColor"/></g></mask><g mask="url(#yds2-icon-__mask0_1_633)"><rect width="24" height="24" fill="currentColor"/></g></g></g></svg>