<svg width="24" height="24" viewBox="0 0 24 24" fill="none" xmlns="http://www.w3.org/2000/svg"><g><g><mask id="yds2-icon-__mask0_7_84" style="mask-type:alpha" maskUnits="userSpaceOnUse" x="2" y="4" width="20" height="18"><g><path d="M13.5 13.75C13.5 13.3358 13.8358 13 14.25 13C14.6642 13 15 13.3358 15 13.75V17.25C15 17.6642 14.6642 18 14.25 18C13.8358 18 13.5 17.6642 13.5 17.25V13.75Z" fill="currentColor"/><path d="M16 13.75C16 13.3358 16.3358 13 16.75 13C17.1642 13 17.5 13.3358 17.5 13.75V17.25C17.5 17.6642 17.1642 18 16.75 18C16.3358 18 16 17.6642 16 17.25V13.75Z" fill="currentColor"/><path fill-rule="evenodd" clip-rule="evenodd" d="M5 4C3.34315 4 2 5.34315 2 7V10.941C2 11.6425 2.38542 12.2854 3 12.617V17C3 18.6569 4.34315 20 6 20H10.8096C11.9925 21.2327 13.6566 22 15.5 22C19.0899 22 22 19.0899 22 15.5C22 14.4012 21.7274 13.3662 21.2461 12.4587C21.7157 12.1028 22 11.5435 22 10.941V7C22 5.34315 20.6569 4 19 4H5ZM19.667 10.5112C19.7976 10.3672 19.9099 10.2061 20 10.0318V7C20 6.44772 19.5523 6 19 6H15.75V9L15.75 9.00472C17.2382 9.061 18.5983 9.61761 19.667 10.5112ZM14.2468 9.1207C14.2489 9.08074 14.25 9.04049 14.25 9V6H9.75V9C9.75 9.82862 10.1979 10.5526 10.8649 10.9431C11.7655 10.0271 12.9356 9.37679 14.2468 9.1207ZM9.93878 12.1332C9.57732 11.8949 9.25952 11.5958 9 11.2504C8.31583 12.161 7.2267 12.75 6 12.75C5.6537 12.75 5.31836 12.7031 5 12.6152V17C5 17.5523 5.44772 18 6 18H9.49816C9.17723 17.2304 9 16.3859 9 15.5C9 14.2675 9.34301 13.1152 9.93878 12.1332ZM4 7C4 6.44772 4.44772 6 5 6H8.25V9C8.25 10.2426 7.24264 11.25 6 11.25C5.12927 11.25 4.37406 10.7554 4 10.0318V7ZM15.5 20.5C18.2614 20.5 20.5 18.2614 20.5 15.5C20.5 12.7386 18.2614 10.5 15.5 10.5C12.7386 10.5 10.5 12.7386 10.5 15.5C10.5 18.2614 12.7386 20.5 15.5 20.5Z" fill="currentColor"/></g></mask><g mask="url(#yds2-icon-__mask0_7_84)"><rect width="24" height="24" fill="currentColor"/></g></g></g></svg>