<svg xmlns="http://www.w3.org/2000/svg" width="24" height="24" fill="none"><mask id="a" width="18" height="19" x="3" y="2" maskUnits="userSpaceOnUse" style="mask-type:alpha"><path fill="#333" fill-rule="evenodd" d="M7 3v1H6a3 3 0 0 0-3 3v11a3 3 0 0 0 3 3h12a3 3 0 0 0 3-3V7a3 3 0 0 0-3-3h-1V3a1 1 0 1 0-2 0v1H9V3a1 1 0 0 0-2 0M6 6a1 1 0 0 0-1 1v.5h14V7a1 1 0 0 0-1-1zm13 3H5v9a1 1 0 0 0 1 1h12a1 1 0 0 0 1-1z" clip-rule="evenodd"/></mask><g mask="url(#a)"><path fill="#333" d="M0 0h24v24H0z"/></g></svg>