<svg xmlns="http://www.w3.org/2000/svg" width="24" height="24" fill="none"><mask id="a" width="18" height="19" x="3" y="3" maskUnits="userSpaceOnUse" style="mask-type:alpha"><g fill="#333"><path d="M19.293 12.707a1 1 0 0 0 1.414-1.414L17.414 8l3.293-3.293a1 1 0 1 0-1.414-1.414L16 6.586l-3.293-3.293a1 1 0 1 0-1.414 1.414L14.586 8l-3.293 3.293a1 1 0 0 0 1.414 1.414L16 9.414z"/><path d="M6 9a1 1 0 0 0-1 1v5.335a1 1 0 0 0 1 1h2.053a1 1 0 0 1 1 1v1.704l3.465-2.514a1 1 0 0 1 .587-.19H16a1 1 0 0 0 1-1v-.81a1 1 0 0 1 2 0v.81a3 3 0 0 1-3 3h-2.57l-4.79 3.474A1 1 0 0 1 7.053 21v-2.665H6a3 3 0 0 1-3-3V10a3 3 0 0 1 3-3h4a1 1 0 1 1 0 2z"/></g></mask><g mask="url(#a)"><path fill="#333" d="M0 0h24v24H0z"/></g></svg>