<svg width="24" height="24" viewBox="0 0 24 24" fill="none" xmlns="http://www.w3.org/2000/svg"><g><g><mask id="yds2-icon-__mask0_7_44" style="mask-type:alpha" maskUnits="userSpaceOnUse" x="2" y="4" width="20" height="16"><g><path d="M16.5 11.5C16.5 11.0858 16.1642 10.75 15.75 10.75C15.3358 10.75 15 11.0858 15 11.5V12.5C15 12.9142 15.3358 13.25 15.75 13.25C16.1642 13.25 16.5 12.9142 16.5 12.5V11.5Z" fill="currentColor"/><path d="M10.9629 13.9176C10.791 14.0025 10.5957 14.045 10.377 14.045C10.1074 14.045 9.88477 13.9909 9.70898 13.8828C9.53711 13.7747 9.40234 13.6298 9.30469 13.4483C9.21094 13.2629 9.14453 13.0544 9.10547 12.8226C9.07031 12.5909 9.05273 12.3476 9.05273 12.0927V11.9073C9.05273 11.6563 9.07031 11.4168 9.10547 11.1889C9.14453 10.9572 9.21094 10.7487 9.30469 10.5633C9.40234 10.374 9.53711 10.2253 9.70898 10.1172C9.88477 10.0091 10.1035 9.95499 10.3652 9.95499C10.6113 9.95499 10.8203 10.0091 10.9922 10.1172C11.1641 10.2253 11.2969 10.3682 11.3906 10.5459C11.4844 10.7236 11.5352 10.9244 11.543 11.1484H13.002C12.9941 10.6618 12.8789 10.2389 12.6562 9.87968C12.4375 9.5205 12.1328 9.24242 11.7422 9.04545C11.3555 8.84848 10.9062 8.75 10.3945 8.75C9.91016 8.75 9.48633 8.83111 9.12305 8.99332C8.75977 9.15553 8.45703 9.38146 8.21484 9.67112C7.97656 9.96078 7.79688 10.2968 7.67578 10.6791C7.55859 11.0615 7.5 11.4709 7.5 11.9073V12.0927C7.5 12.5291 7.55859 12.9385 7.67578 13.3209C7.79688 13.7032 7.97656 14.0392 8.21484 14.3289C8.45703 14.6185 8.75977 14.8445 9.12305 15.0067C9.48633 15.1689 9.91211 15.25 10.4004 15.25C10.8809 15.25 11.3145 15.1534 11.7012 14.9603C12.0918 14.7634 12.4043 14.4969 12.6387 14.1609C12.873 13.8249 12.9941 13.4444 13.002 13.0196H11.543C11.5352 13.2243 11.4785 13.4039 11.373 13.5584C11.2715 13.7129 11.1348 13.8326 10.9629 13.9176Z" fill="currentColor"/><path fill-rule="evenodd" clip-rule="evenodd" d="M2 7.5C2 5.84315 3.34315 4.5 5 4.5H19C20.6569 4.5 22 5.84315 22 7.5V9.55C22 10.0256 21.665 10.4354 21.1989 10.53C20.5147 10.6689 20 11.2755 20 12C20 12.7245 20.5147 13.3311 21.1989 13.47C21.665 13.5646 22 13.9744 22 14.45V16.5C22 18.1569 20.6569 19.5 19 19.5H5C3.34315 19.5 2 18.1569 2 16.5V14.45C2 13.9744 2.33497 13.5646 2.80106 13.47C3.48532 13.3311 4 12.7245 4 12C4 11.2755 3.48532 10.6689 2.80106 10.53C2.33497 10.4354 2 10.0256 2 9.55V7.5ZM5 6.5C4.44772 6.5 4 6.94772 4 7.5V8.83713C5.18241 9.39882 6 10.6032 6 12C6 13.3968 5.18241 14.6012 4 15.1629V16.5C4 17.0523 4.44772 17.5 5 17.5H15.0427C15.015 17.4218 15 17.3377 15 17.25V15.25C15 14.8358 15.3358 14.5 15.75 14.5C16.1642 14.5 16.5 14.8358 16.5 15.25V17.25C16.5 17.3377 16.485 17.4218 16.4573 17.5H19C19.5523 17.5 20 17.0523 20 16.5V15.1629C18.8176 14.6012 18 13.3968 18 12C18 10.6032 18.8176 9.39882 20 8.83713V7.5C20 6.94772 19.5523 6.5 19 6.5H16.4573C16.485 6.57819 16.5 6.66234 16.5 6.75V8.75C16.5 9.16421 16.1642 9.5 15.75 9.5C15.3358 9.5 15 9.16421 15 8.75V6.75C15 6.66234 15.015 6.57819 15.0427 6.5H5Z" fill="currentColor"/></g></mask><g mask="url(#yds2-icon-__mask0_7_44)"><rect width="24" height="24" fill="currentColor"/></g></g></g></svg>