<svg width="24" height="24" viewBox="0 0 24 24" fill="none" xmlns="http://www.w3.org/2000/svg"><g><g><mask id="yds2-icon-__mask0_7_123" style="mask-type:alpha" maskUnits="userSpaceOnUse" x="3" y="3" width="17" height="18"><g><path d="M8.5 3C7.39543 3 6.5 3.89543 6.5 5V16C6.5 17.1046 7.39543 18 8.5 18H17.5C18.6046 18 19.5 17.1046 19.5 16V5C19.5 3.89543 18.6046 3 17.5 3H8.5Z" fill="currentColor"/><path d="M5.5 8C5.5 7.44772 5.05228 7 4.5 7C3.94772 7 3.5 7.44772 3.5 8V18C3.5 19.6569 4.84315 21 6.5 21H15.5C16.0523 21 16.5 20.5523 16.5 20C16.5 19.4477 16.0523 19 15.5 19H6.5C5.94772 19 5.5 18.5523 5.5 18V8Z" fill="currentColor"/></g></mask><g mask="url(#yds2-icon-__mask0_7_123)"><rect width="24" height="24" fill="currentColor"/></g></g></g></svg>