<svg width="24" height="24" viewBox="0 0 24 24" fill="none" xmlns="http://www.w3.org/2000/svg"><g><g><mask id="yds2-icon-__mask0_7_102" style="mask-type:alpha" maskUnits="userSpaceOnUse" x="3" y="3" width="19" height="19"><g><path fill-rule="evenodd" clip-rule="evenodd" d="M9.5 7.25C8.25736 7.25 7.25 8.25736 7.25 9.5C7.25 10.7426 8.25736 11.75 9.5 11.75C10.7426 11.75 11.75 10.7426 11.75 9.5C11.75 8.25736 10.7426 7.25 9.5 7.25ZM8.75 9.5C8.75 9.08579 9.08579 8.75 9.5 8.75C9.91421 8.75 10.25 9.08579 10.25 9.5C10.25 9.91421 9.91421 10.25 9.5 10.25C9.08579 10.25 8.75 9.91421 8.75 9.5Z" fill="currentColor"/><path fill-rule="evenodd" clip-rule="evenodd" d="M12.0894 3.5H6.48239C4.83526 3.5 3.5 4.83527 3.5 6.48239L3.5 12.0894C3.50001 12.8804 3.81422 13.639 4.37353 14.1983L10.8017 20.6265C11.9664 21.7912 13.8547 21.7912 15.0194 20.6265L20.6265 15.0194C21.7912 13.8547 21.7912 11.9664 20.6265 10.8017L14.1983 4.37352C13.639 3.81422 12.8804 3.5 12.0894 3.5ZM6.48239 5.5L12.0894 5.5C12.35 5.5 12.5999 5.6035 12.7841 5.78773L19.2123 12.2159C19.5959 12.5996 19.5959 13.2216 19.2123 13.6052L13.6052 19.2123C13.2216 19.5959 12.5996 19.5959 12.2159 19.2123L5.78774 12.7841C5.60351 12.5999 5.5 12.35 5.5 12.0894L5.5 6.48239C5.5 5.93983 5.93983 5.5 6.48239 5.5Z" fill="currentColor"/></g></mask><g mask="url(#yds2-icon-__mask0_7_102)"><rect width="24" height="24" fill="currentColor"/></g></g></g></svg>