<svg width="24" height="24" viewBox="0 0 24 24" fill="none" xmlns="http://www.w3.org/2000/svg"><g><g><mask id="yds2-icon-__mask0_7_110" style="mask-type:alpha" maskUnits="userSpaceOnUse" x="3" y="3" width="18" height="18"><g><path d="M12 7.25C12.4142 7.25 12.75 7.58579 12.75 8V12.4989L15.6182 13.6869C16.0008 13.8454 16.1826 14.2841 16.024 14.6668C15.8655 15.0495 15.4268 15.2312 15.0441 15.0727L11.7289 13.6995C11.5836 13.6432 11.4602 13.5428 11.3751 13.4148C11.291 13.2879 11.2464 13.1369 11.25 12.9825V8C11.25 7.58579 11.5858 7.25 12 7.25Z" fill="currentColor"/><path fill-rule="evenodd" clip-rule="evenodd" d="M3 12C3 7.02944 7.02944 3 12 3C16.9706 3 21 7.02944 21 12C21 16.9706 16.9706 21 12 21C7.02944 21 3 16.9706 3 12ZM12 5C8.13401 5 5 8.13401 5 12C5 15.866 8.13401 19 12 19C15.866 19 19 15.866 19 12C19 8.13401 15.866 5 12 5Z" fill="currentColor"/></g></mask><g mask="url(#yds2-icon-__mask0_7_110)"><rect width="24" height="24" fill="currentColor"/></g></g></g></svg>