<svg width="24" height="24" viewBox="0 0 24 24" fill="none" xmlns="http://www.w3.org/2000/svg"><g><g><mask id="yds2-icon-__mask0_1_868" style="mask-type:alpha" maskUnits="userSpaceOnUse" x="5" y="5" width="14" height="14"><path d="M16.2222 17.7778C16.6518 18.2074 17.3483 18.2074 17.7778 17.7778C18.2074 17.3483 18.2074 16.6518 17.7778 16.2222L13.5557 12.0001L17.7779 7.77784C18.2075 7.34827 18.2075 6.65178 17.7779 6.22221C17.3483 5.79263 16.6518 5.79263 16.2223 6.22221L12 10.4444L7.77784 6.22221C7.34826 5.79263 6.65178 5.79263 6.22221 6.22221C5.79263 6.65178 5.79263 7.34827 6.22221 7.77784L10.4444 12.0001L6.22226 16.2222C5.79268 16.6518 5.79268 17.3483 6.22226 17.7778C6.65183 18.2074 7.34831 18.2074 7.77789 17.7778L12 13.5557L16.2222 17.7778Z" fill="currentColor"/></mask><g mask="url(#yds2-icon-__mask0_1_868)"><rect width="24" height="24" fill="currentColor"/></g></g></g></svg>