<svg width="24" height="24" viewBox="0 0 24 24" fill="none" xmlns="http://www.w3.org/2000/svg"><g><g><mask id="yds2-icon-__mask0_7_94" style="mask-type:alpha" maskUnits="userSpaceOnUse" x="3" y="2" width="18" height="19"><g><path d="M9 12C9 12.5523 8.55228 13 8 13C7.44772 13 7 12.5523 7 12C7 11.4477 7.44772 11 8 11C8.55228 11 9 11.4477 9 12Z" fill="currentColor"/><path d="M9 16C9 16.5523 8.55228 17 8 17C7.44772 17 7 16.5523 7 16C7 15.4477 7.44772 15 8 15C8.55228 15 9 15.4477 9 16Z" fill="currentColor"/><path d="M13 12C13 12.5523 12.5523 13 12 13C11.4477 13 11 12.5523 11 12C11 11.4477 11.4477 11 12 11C12.5523 11 13 11.4477 13 12Z" fill="currentColor"/><path d="M13 16C13 16.5523 12.5523 17 12 17C11.4477 17 11 16.5523 11 16C11 15.4477 11.4477 15 12 15C12.5523 15 13 15.4477 13 16Z" fill="currentColor"/><path d="M17 12C17 12.5523 16.5523 13 16 13C15.4477 13 15 12.5523 15 12C15 11.4477 15.4477 11 16 11C16.5523 11 17 11.4477 17 12Z" fill="currentColor"/><path d="M17 16C17 16.5523 16.5523 17 16 17C15.4477 17 15 16.5523 15 16C15 15.4477 15.4477 15 16 15C16.5523 15 17 15.4477 17 16Z" fill="currentColor"/><path fill-rule="evenodd" clip-rule="evenodd" d="M7 4V3C7 2.44772 7.44772 2 8 2C8.55228 2 9 2.44772 9 3V4H15V3C15 2.44772 15.4477 2 16 2C16.5523 2 17 2.44772 17 3V4H18C19.6569 4 21 5.34315 21 7V18C21 19.6569 19.6569 21 18 21H6C4.34315 21 3 19.6569 3 18V7C3 5.34315 4.34315 4 6 4H7ZM5 7C5 6.44772 5.44772 6 6 6H18C18.5523 6 19 6.44772 19 7V7.5H5V7ZM5 9H19V18C19 18.5523 18.5523 19 18 19H6C5.44772 19 5 18.5523 5 18V9Z" fill="currentColor"/></g></mask><g mask="url(#yds2-icon-__mask0_7_94)"><rect width="24" height="24" fill="currentColor"/></g></g></g></svg>