<svg xmlns="http://www.w3.org/2000/svg" width="24" height="24" fill="none"><mask id="a" width="17" height="18" x="4" y="3" maskUnits="userSpaceOnUse" style="mask-type:alpha"><g fill="#333"><path fill-rule="evenodd" d="M10 3a3 3 0 0 0-3 3v9a3 3 0 0 0 3 3h8a3 3 0 0 0 3-3V6a3 3 0 0 0-3-3zM9 6a1 1 0 0 1 1-1h8a1 1 0 0 1 1 1v9a1 1 0 0 1-1 1h-8a1 1 0 0 1-1-1z" clip-rule="evenodd"/><path d="M6 7a1 1 0 0 0-2 0v11a3 3 0 0 0 3 3h10a1 1 0 1 0 0-2H7a1 1 0 0 1-1-1z"/></g></mask><g mask="url(#a)"><path fill="#333" d="M0 0h24v24H0z"/></g></svg>