<svg xmlns="http://www.w3.org/2000/svg" width="24" height="24" fill="none"><mask id="a" width="20" height="16" x="2" y="4" maskUnits="userSpaceOnUse" style="mask-type:alpha"><g fill="#333" fill-rule="evenodd" clip-rule="evenodd"><path d="M12 9.75a3.25 3.25 0 1 0 0 6.5 3.25 3.25 0 0 0 0-6.5M10.25 13a1.75 1.75 0 1 1 3.5 0 1.75 1.75 0 0 1-3.5 0"/><path d="M7 6.313A2.31 2.31 0 0 1 9.313 4h5.374A2.31 2.31 0 0 1 17 6.313c0 .172.14.312.313.312H19a3 3 0 0 1 3 3V17a3 3 0 0 1-3 3H5a3 3 0 0 1-3-3V9.625a3 3 0 0 1 3-3h1.688c.172 0 .312-.14.312-.312M9.313 6A.31.31 0 0 0 9 6.313a2.31 2.31 0 0 1-2.312 2.312H5a1 1 0 0 0-1 1V12h2a1 1 0 1 1 0 2H4v3a1 1 0 0 0 1 1h14a1 1 0 0 0 1-1V9.625a1 1 0 0 0-1-1h-1.687A2.31 2.31 0 0 1 15 6.313.31.31 0 0 0 14.688 6z"/></g></mask><g mask="url(#a)"><path fill="#333" d="M0 0h24v24H0z"/></g></svg>