<svg width="24" height="24" viewBox="0 0 24 24" fill="none" xmlns="http://www.w3.org/2000/svg"><g><g><mask id="yds2-icon-__mask0_7_74" style="mask-type:alpha" maskUnits="userSpaceOnUse" x="2" y="4" width="20" height="16"><g><path fill-rule="evenodd" clip-rule="evenodd" d="M12 9.75C10.2051 9.75 8.75 11.2051 8.75 13C8.75 14.7949 10.2051 16.25 12 16.25C13.7949 16.25 15.25 14.7949 15.25 13C15.25 11.2051 13.7949 9.75 12 9.75ZM10.25 13C10.25 12.0335 11.0335 11.25 12 11.25C12.9665 11.25 13.75 12.0335 13.75 13C13.75 13.9665 12.9665 14.75 12 14.75C11.0335 14.75 10.25 13.9665 10.25 13Z" fill="currentColor"/><path fill-rule="evenodd" clip-rule="evenodd" d="M7 6.3125C7 5.03534 8.03534 4 9.3125 4H14.6875C15.9647 4 17 5.03534 17 6.3125C17 6.48509 17.1399 6.625 17.3125 6.625H19C20.6569 6.625 22 7.96815 22 9.625V17C22 18.6569 20.6569 20 19 20H5C3.34315 20 2 18.6569 2 17V9.625C2 7.96815 3.34315 6.625 5 6.625H6.6875C6.86009 6.625 7 6.48509 7 6.3125ZM9.3125 6C9.13991 6 9 6.13991 9 6.3125C9 7.58966 7.96466 8.625 6.6875 8.625H5C4.44772 8.625 4 9.07272 4 9.625V12H6C6.55228 12 7 12.4477 7 13C7 13.5523 6.55228 14 6 14H4V17C4 17.5523 4.44772 18 5 18H19C19.5523 18 20 17.5523 20 17V9.625C20 9.07272 19.5523 8.625 19 8.625H17.3125C16.0353 8.625 15 7.58966 15 6.3125C15 6.13991 14.8601 6 14.6875 6H9.3125Z" fill="currentColor"/></g></mask><g mask="url(#yds2-icon-__mask0_7_74)"><rect width="24" height="24" fill="currentColor"/></g></g></g></svg>