<svg width="24" height="24" viewBox="0 0 24 24" fill="none" xmlns="http://www.w3.org/2000/svg"><g><g><mask id="yds2-icon-__mask0_7_81" style="mask-type:alpha" maskUnits="userSpaceOnUse" x="3" y="3" width="18" height="19"><g><path d="M19.2929 12.7071C19.6834 13.0976 20.3166 13.0976 20.7071 12.7071C21.0977 12.3166 21.0977 11.6834 20.7071 11.2929L17.4142 8L20.7071 4.70711C21.0977 4.31658 21.0977 3.68342 20.7071 3.29289C20.3166 2.90237 19.6834 2.90237 19.2929 3.29289L16 6.58579L12.7071 3.29289C12.3166 2.90237 11.6834 2.90237 11.2929 3.29289C10.9024 3.68342 10.9024 4.31658 11.2929 4.70711L14.5858 8L11.2929 11.2929C10.9024 11.6834 10.9024 12.3166 11.2929 12.7071C11.6834 13.0976 12.3166 13.0976 12.7071 12.7071L16 9.41421L19.2929 12.7071Z" fill="currentColor"/><path d="M6.00003 9C5.44775 9 5.00003 9.44772 5.00003 10V15.3346C5.00003 15.8869 5.44775 16.3346 6.00003 16.3346H8.05266C8.60495 16.3346 9.05266 16.7823 9.05266 17.3346V19.0391L12.5181 16.5251C12.6888 16.4013 12.8944 16.3346 13.1053 16.3346H16C16.5523 16.3346 17 15.8869 17 15.3346V14.5244C17 13.9722 17.4477 13.5244 18 13.5244C18.5523 13.5244 19 13.9722 19 14.5244V15.3346C19 16.9914 17.6569 18.3346 16 18.3346H13.4298L8.63987 21.8094C8.33559 22.0302 7.93323 22.0616 7.59835 21.8908C7.26347 21.7201 7.05266 21.3759 7.05266 21V18.3346H6.00003C4.34318 18.3346 3.00003 16.9914 3.00003 15.3346V10C3.00003 8.34315 4.34318 7 6.00003 7H10C10.5523 7 11 7.44772 11 8C11 8.55229 10.5523 9 10 9H6.00003Z" fill="currentColor"/></g></mask><g mask="url(#yds2-icon-__mask0_7_81)"><rect width="24" height="24" fill="currentColor"/></g></g></g></svg>