<svg xmlns="http://www.w3.org/2000/svg" width="24" height="24" fill="none"><mask id="a" width="19" height="19" x="3" y="3" maskUnits="userSpaceOnUse" style="mask-type:alpha"><g fill="#333" fill-rule="evenodd" clip-rule="evenodd"><path d="M9.5 7.25a2.25 2.25 0 1 0 0 4.5 2.25 2.25 0 0 0 0-4.5M8.75 9.5a.75.75 0 1 1 1.5 0 .75.75 0 0 1-1.5 0"/><path d="M12.09 3.5H6.481A2.98 2.98 0 0 0 3.5 6.482v5.607c0 .791.314 1.55.874 2.11l6.428 6.428a2.98 2.98 0 0 0 4.217 0l5.608-5.608a2.98 2.98 0 0 0 0-4.217l-6.429-6.428A2.98 2.98 0 0 0 12.09 3.5m-5.608 2h5.607c.261 0 .51.104.695.288l6.428 6.428a.98.98 0 0 1 0 1.39l-5.607 5.606a.98.98 0 0 1-1.39 0l-6.427-6.428a.98.98 0 0 1-.288-.695V6.482c0-.542.44-.982.982-.982"/></g></mask><g mask="url(#a)"><path fill="#333" d="M0 0h24v24H0z"/></g></svg>