<svg xmlns="http://www.w3.org/2000/svg" width="24" height="24" fill="none"><mask id="a" width="20" height="18" x="2" y="4" maskUnits="userSpaceOnUse" style="mask-type:alpha"><g fill="#333"><path d="M13.5 13.75a.75.75 0 0 1 1.5 0v3.5a.75.75 0 0 1-1.5 0zM16 13.75a.75.75 0 0 1 1.5 0v3.5a.75.75 0 0 1-1.5 0z"/><path fill-rule="evenodd" d="M5 4a3 3 0 0 0-3 3v3.941c0 .701.385 1.344 1 1.676V17a3 3 0 0 0 3 3h4.81a6.5 6.5 0 0 0 10.436-7.541c.47-.356.754-.915.754-1.518V7a3 3 0 0 0-3-3zm14.667 6.511q.197-.217.333-.48V7a1 1 0 0 0-1-1h-3.25v3.005a6.47 6.47 0 0 1 3.917 1.506m-5.42-1.39L14.25 9V6h-4.5v3c0 .829.448 1.553 1.115 1.943a6.5 6.5 0 0 1 3.382-1.822m-4.308 3.012A3.8 3.8 0 0 1 9 11.25a3.74 3.74 0 0 1-4 1.365V17a1 1 0 0 0 1 1h3.498A6.5 6.5 0 0 1 9 15.5a6.47 6.47 0 0 1 .939-3.367M4 7a1 1 0 0 1 1-1h3.25v3A2.25 2.25 0 0 1 4 10.032zm11.5 13.5a5 5 0 1 0 0-10 5 5 0 0 0 0 10" clip-rule="evenodd"/></g></mask><g mask="url(#a)"><path fill="#333" d="M0 0h24v24H0z"/></g></svg>