<svg xmlns="http://www.w3.org/2000/svg" width="24" height="24" fill="none"><mask id="a" width="16" height="20" x="4" y="2" maskUnits="userSpaceOnUse" style="mask-type:alpha"><g fill="#333"><path d="M8 3.5a1 1 0 0 1 1-1h6a1 1 0 0 1 1 1h3a1 1 0 1 1 0 2H5a1 1 0 0 1 0-2zM10 9.75a.75.75 0 0 1 .75.75v7a.75.75 0 0 1-1.5 0v-7a.75.75 0 0 1 .75-.75M14.75 10.5a.75.75 0 0 0-1.5 0v7a.75.75 0 0 0 1.5 0z"/><path fill-rule="evenodd" d="M6 6.5a1 1 0 0 0-1 1.038l.427 11.077A3 3 0 0 0 8.425 21.5h7.15a3 3 0 0 0 2.998-2.885L19 7.538A1 1 0 0 0 18 6.5zm1.425 12.038L7.04 8.5h9.922l-.386 10.038a1 1 0 0 1-1 .962h-7.15a1 1 0 0 1-1-.962" clip-rule="evenodd"/></g></mask><g mask="url(#a)"><path fill="#333" d="M0 0h24v24H0z"/></g></svg>