<svg width="24" height="24" viewBox="0 0 24 24" fill="none" xmlns="http://www.w3.org/2000/svg"><g><g><mask id="yds2-icon-__mask0_7_111" style="mask-type:alpha" maskUnits="userSpaceOnUse" x="4" y="5" width="17" height="14"><g><path d="M6.27792 5.72209C5.84834 5.29251 5.15186 5.29251 4.72228 5.72208C4.29271 6.15166 4.29271 6.84814 4.72228 7.27772L9.44447 11.9999L4.72228 16.7221C4.29271 17.1517 4.29271 17.8481 4.72228 18.2777C5.15186 18.7073 5.84834 18.7073 6.27792 18.2777L11.7779 12.7777C12.2075 12.3481 12.2075 11.6517 11.7779 11.2221L6.27792 5.72209Z" fill="currentColor"/><path d="M14.2779 5.72209C13.8483 5.29251 13.1519 5.29251 12.7223 5.72208C12.2927 6.15166 12.2927 6.84814 12.7223 7.27772L17.4445 11.9999L12.7223 16.7221C12.2927 17.1517 12.2927 17.8481 12.7223 18.2777C13.1519 18.7073 13.8483 18.7073 14.2779 18.2777L19.7779 12.7777C20.2075 12.3481 20.2075 11.6517 19.7779 11.2221L14.2779 5.72209Z" fill="currentColor"/></g></mask><g mask="url(#yds2-icon-__mask0_7_111)"><rect width="24" height="24" fill="currentColor"/></g></g></g></svg>