<svg width="24" height="24" viewBox="0 0 24 24" fill="none" xmlns="http://www.w3.org/2000/svg"><g><g><mask id="yds2-icon-__mask0_7_96" style="mask-type:alpha" maskUnits="userSpaceOnUse" x="3" y="2" width="18" height="19"><g><path d="M11.3243 16.7372C11.7066 17.0876 12.2934 17.0876 12.6757 16.7372L18.6757 11.2372C19.0828 10.864 19.1103 10.2314 18.7371 9.82428C18.364 9.41716 17.7314 9.38965 17.3243 9.76285L13 13.7268L13 3C13 2.44771 12.5523 2 12 2C11.4477 2 11 2.44771 11 3L11 13.7268L6.67572 9.76285C6.2686 9.38965 5.63603 9.41716 5.26284 9.82427C4.88965 10.2314 4.91715 10.864 5.32427 11.2372L11.3243 16.7372Z" fill="currentColor"/><path d="M4 19C3.44772 19 3 19.4477 3 20C3 20.5523 3.44772 21 4 21H20C20.5523 21 21 20.5523 21 20C21 19.4477 20.5523 19 20 19H4Z" fill="currentColor"/></g></mask><g mask="url(#yds2-icon-__mask0_7_96)"><rect width="24" height="24" fill="currentColor"/></g></g></g></svg>