<svg width="24" height="24" viewBox="0 0 24 24" fill="none" xmlns="http://www.w3.org/2000/svg"><g><g><mask id="yds2-icon-__mask0_7_52" style="mask-type:alpha" maskUnits="userSpaceOnUse" x="4" y="2" width="16" height="20"><g><path d="M8 3.5C8 2.94772 8.44772 2.5 9 2.5H15C15.5523 2.5 16 2.94771 16 3.5L19 3.5C19.5523 3.5 20 3.94772 20 4.5C20 5.05229 19.5523 5.5 19 5.5L5 5.5C4.44772 5.5 4 5.05228 4 4.5C4 3.94772 4.44772 3.5 5 3.5L8 3.5Z" fill="currentColor"/><path d="M10 9.75C10.4142 9.75 10.75 10.0858 10.75 10.5V17.5C10.75 17.9142 10.4142 18.25 10 18.25C9.58579 18.25 9.25 17.9142 9.25 17.5V10.5C9.25 10.0858 9.58579 9.75 10 9.75Z" fill="currentColor"/><path d="M14.75 10.5C14.75 10.0858 14.4142 9.75 14 9.75C13.5858 9.75 13.25 10.0858 13.25 10.5V17.5C13.25 17.9142 13.5858 18.25 14 18.25C14.4142 18.25 14.75 17.9142 14.75 17.5V10.5Z" fill="currentColor"/><path fill-rule="evenodd" clip-rule="evenodd" d="M6 6.5C5.72812 6.5 5.46795 6.6107 5.27943 6.80661C5.09091 7.00252 4.99029 7.26675 5.00074 7.53843L5.42677 18.6153C5.48873 20.2261 6.81256 21.5 8.42456 21.5H15.5754C17.1874 21.5 18.5113 20.2261 18.5732 18.6153L18.9993 7.53843C19.0097 7.26675 18.9091 7.00252 18.7206 6.80661C18.532 6.6107 18.2719 6.5 18 6.5H6ZM7.4253 18.5384L7.0392 8.5H16.9608L16.5747 18.5384C16.5541 19.0754 16.1128 19.5 15.5754 19.5H8.42456C7.88723 19.5 7.44595 19.0754 7.4253 18.5384Z" fill="currentColor"/></g></mask><g mask="url(#yds2-icon-__mask0_7_52)"><rect width="24" height="24" fill="currentColor"/></g></g></g></svg>