<svg xmlns="http://www.w3.org/2000/svg" width="24" height="24" fill="none"><mask id="a" width="17" height="14" x="3" y="5" maskUnits="userSpaceOnUse" style="mask-type:alpha"><g fill="#333" fill-rule="evenodd" clip-rule="evenodd"><path d="M11.278 18.278a1.1 1.1 0 0 1-1.556 0l-5.5-5.5a1.1 1.1 0 0 1 0-1.556l5.5-5.5a1.1 1.1 0 1 1 1.556 1.556L6.556 12l4.722 4.722a1.1 1.1 0 0 1 0 1.556M19.278 18.278a1.1 1.1 0 0 1-1.556 0l-5.5-5.5a1.1 1.1 0 0 1 0-1.556l5.5-5.5a1.1 1.1 0 1 1 1.556 1.556L14.556 12l4.722 4.722a1.1 1.1 0 0 1 0 1.556"/></g></mask><g mask="url(#a)"><path fill="#333" d="M0 0h24v24H0z"/></g></svg>