<svg width="24" height="24" viewBox="0 0 24 24" fill="none" xmlns="http://www.w3.org/2000/svg"><g><g><mask id="yds2-icon-__mask0_7_113" style="mask-type:alpha" maskUnits="userSpaceOnUse" x="3" y="5" width="17" height="14"><g><path fill-rule="evenodd" clip-rule="evenodd" d="M11.2778 18.2778C10.8482 18.7074 10.1518 18.7074 9.72218 18.2778L4.22218 12.7778C3.7926 12.3483 3.7926 11.6518 4.22218 11.2222L9.72217 5.72221C10.1518 5.29263 10.8482 5.29263 11.2778 5.72221C11.7074 6.15178 11.7074 6.84826 11.2778 7.27784L6.55563 12L11.2778 16.7222C11.7074 17.1518 11.7074 17.8483 11.2778 18.2778Z" fill="currentColor"/><path fill-rule="evenodd" clip-rule="evenodd" d="M19.2778 18.2778C18.8482 18.7074 18.1518 18.7074 17.7222 18.2778L12.2222 12.7778C11.7926 12.3483 11.7926 11.6518 12.2222 11.2222L17.7222 5.72221C18.1518 5.29263 18.8482 5.29263 19.2778 5.72221C19.7074 6.15178 19.7074 6.84826 19.2778 7.27784L14.5556 12L19.2778 16.7222C19.7074 17.1518 19.7074 17.8483 19.2778 18.2778Z" fill="currentColor"/></g></mask><g mask="url(#yds2-icon-__mask0_7_113)"><rect width="24" height="24" fill="currentColor"/></g></g></g></svg>