<svg xmlns="http://www.w3.org/2000/svg" width="24" height="24" fill="none"><mask id="a" width="17" height="14" x="4" y="5" maskUnits="userSpaceOnUse" style="mask-type:alpha"><g fill="#333"><path d="M6.278 5.722a1.1 1.1 0 0 0-1.556 1.556L9.444 12l-4.722 4.722a1.1 1.1 0 1 0 1.556 1.556l5.5-5.5a1.1 1.1 0 0 0 0-1.556zM14.278 5.722a1.1 1.1 0 1 0-1.556 1.556L17.445 12l-4.723 4.722a1.1 1.1 0 1 0 1.556 1.556l5.5-5.5a1.1 1.1 0 0 0 0-1.556z"/></g></mask><g mask="url(#a)"><path fill="#333" d="M0 0h24v24H0z"/></g></svg>