<svg width="24" height="24" viewBox="0 0 24 24" fill="none" xmlns="http://www.w3.org/2000/svg"><g><g><mask id="yds2-icon-__mask0_7_98" style="mask-type:alpha" maskUnits="userSpaceOnUse" x="3" y="2" width="18" height="19"><g><path d="M16.2311 12.1823C16.6079 11.7786 16.5861 11.1458 16.1823 10.7689C15.7786 10.3921 15.1458 10.4139 14.7689 10.8177L10.7915 15.0792L9.18966 13.5536C8.78973 13.1728 8.15675 13.1882 7.77586 13.5881C7.39498 13.9881 7.41042 14.621 7.81035 15.0019L10.1437 17.2241C10.337 17.4083 10.5959 17.5074 10.8628 17.4996C11.1296 17.4917 11.3822 17.3775 11.5644 17.1823L16.2311 12.1823Z" fill="currentColor"/><path fill-rule="evenodd" clip-rule="evenodd" d="M7 3V4H6C4.34315 4 3 5.34315 3 7V18C3 19.6569 4.34315 21 6 21H18C19.6569 21 21 19.6569 21 18V7C21 5.34315 19.6569 4 18 4L17 4V3C17 2.44772 16.5523 2 16 2C15.4477 2 15 2.44772 15 3V4L9 4V3C9 2.44772 8.55228 2 8 2C7.44772 2 7 2.44772 7 3ZM6 6C5.44772 6 5 6.44772 5 7V7.5H19V7C19 6.44772 18.5523 6 18 6H6ZM19 9H5V18C5 18.5523 5.44772 19 6 19H18C18.5523 19 19 18.5523 19 18V9Z" fill="currentColor"/></g></mask><g mask="url(#yds2-icon-__mask0_7_98)"><rect width="24" height="24" fill="currentColor"/></g></g></g></svg>