<svg width="24" height="24" viewBox="0 0 24 24" fill="none" xmlns="http://www.w3.org/2000/svg"><g><g><mask id="yds2-icon-__mask0_7_109" style="mask-type:alpha" maskUnits="userSpaceOnUse" x="2" y="2" width="20" height="20"><g><path d="M13 16C13 16.55 12.55 17 12 17C11.45 17 11 16.55 11 16C11 15.45 11.45 15 12 15C12.55 15 13 15.45 13 16Z" fill="currentColor"/><path d="M12 6.5C11.3235 6.5 10.7881 7.07225 10.8331 7.74723L11.2001 13.2517C11.2282 13.6728 11.578 14 12 14C12.422 14 12.7718 13.6728 12.7999 13.2517L13.1669 7.74723C13.2119 7.07225 12.6765 6.5 12 6.5Z" fill="currentColor"/><path fill-rule="evenodd" clip-rule="evenodd" d="M2.5 12C2.5 6.75329 6.75329 2.5 12 2.5C17.2467 2.5 21.5 6.75329 21.5 12C21.5 17.2467 17.2467 21.5 12 21.5C6.75329 21.5 2.5 17.2467 2.5 12ZM12 4.5C7.85786 4.5 4.5 7.85786 4.5 12C4.5 16.1421 7.85786 19.5 12 19.5C16.1421 19.5 19.5 16.1421 19.5 12C19.5 7.85786 16.1421 4.5 12 4.5Z" fill="currentColor"/></g></mask><g mask="url(#yds2-icon-__mask0_7_109)"><rect width="24" height="24" fill="currentColor"/></g></g></g></svg>