<svg width="24" height="24" viewBox="0 0 24 24" fill="none" xmlns="http://www.w3.org/2000/svg"><g><g><mask id="yds2-icon-__mask0_7_99" style="mask-type:alpha" maskUnits="userSpaceOnUse" x="2" y="4" width="19" height="15"><path fill-rule="evenodd" clip-rule="evenodd" d="M5 4C3.34315 4 2 5.34315 2 7V16C2 17.6569 3.34315 19 5 19H18C19.6569 19 21 17.6569 21 16V7C21 5.34315 19.6569 4 18 4H5ZM4 7C4 6.44772 4.44772 6 5 6H18C18.5523 6 19 6.44772 19 7V7.04881L12.1616 13.0827C11.7836 13.4162 11.2164 13.4162 10.8384 13.0827L4 7.04881V7ZM4 9.71606V16C4 16.5523 4.44772 17 5 17H18C18.5523 17 19 16.5523 19 16V9.71606L13.4849 14.5824C12.3508 15.583 10.6492 15.583 9.51514 14.5824L4 9.71606Z" fill="currentColor"/></mask><g mask="url(#yds2-icon-__mask0_7_99)"><rect width="24" height="24" fill="currentColor"/></g></g></g></svg>