<svg width="24" height="24" viewBox="0 0 24 24" fill="none" xmlns="http://www.w3.org/2000/svg"><g><g><mask id="yds2-icon-__mask0_7_93" style="mask-type:alpha" maskUnits="userSpaceOnUse" x="3" y="3" width="18" height="18"><path d="M13 4C13 3.44772 13.4477 3 14 3H20C20.5523 3 21 3.44772 21 4V10C21 10.5523 20.5523 11 20 11C19.4477 11 19 10.5523 19 10V6.41423L6.41422 19L10 19C10.5523 19 11 19.4477 11 20C11 20.5523 10.5523 21 10 21H4C3.44771 21 3 20.5523 3 20V14C3 13.4477 3.44772 13 4 13C4.55228 13 5 13.4477 5 14L5 17.5858L17.5858 5H14C13.4477 5 13 4.55228 13 4Z" fill="currentColor"/></mask><g mask="url(#yds2-icon-__mask0_7_93)"><rect width="24" height="24" fill="currentColor"/></g></g></g></svg>