<svg width="24" height="24" viewBox="0 0 24 24" fill="none" xmlns="http://www.w3.org/2000/svg"><g><g><mask id="yds2-icon-__mask0_7_120" style="mask-type:alpha" maskUnits="userSpaceOnUse" x="3" y="3" width="18" height="18"><path fill-rule="evenodd" clip-rule="evenodd" d="M21 12C21 16.9706 16.9706 21 12 21C7.02944 21 3 16.9706 3 12C3 7.02944 7.02944 3 12 3C16.9706 3 21 7.02944 21 12ZM13 16C13 16.55 12.55 17 12 17C11.45 17 11 16.55 11 16C11 15.45 11.45 15 12 15C12.55 15 13 15.45 13 16ZM12 6.5C11.3235 6.5 10.7881 7.07225 10.8331 7.74723L11.2001 13.2517C11.2282 13.6728 11.578 14 12 14C12.422 14 12.7718 13.6728 12.7999 13.2517L13.1669 7.74723C13.2119 7.07225 12.6765 6.5 12 6.5Z" fill="currentColor"/></mask><g mask="url(#yds2-icon-__mask0_7_120)"><rect width="24" height="24" fill="currentColor"/></g></g></g></svg>