<svg xmlns="http://www.w3.org/2000/svg" width="24" height="24" fill="none"><mask id="a" width="20" height="20" x="2" y="2" maskUnits="userSpaceOnUse" style="mask-type:alpha"><g fill="#333"><path d="M13 16c0 .55-.45 1-1 1s-1-.45-1-1 .45-1 1-1 1 .45 1 1M12 6.5a1.17 1.17 0 0 0-1.167 1.247l.367 5.505a.802.802 0 0 0 1.6 0l.367-5.505A1.17 1.17 0 0 0 12 6.5"/><path fill-rule="evenodd" d="M2.5 12a9.5 9.5 0 1 1 19 0 9.5 9.5 0 0 1-19 0M12 4.5a7.5 7.5 0 1 0 0 15 7.5 7.5 0 0 0 0-15" clip-rule="evenodd"/></g></mask><g mask="url(#a)"><path fill="#333" d="M0 0h24v24H0z"/></g></svg>