<svg width="24" height="24" viewBox="0 0 24 24" fill="none" xmlns="http://www.w3.org/2000/svg"><g><g><mask id="yds2-icon-__mask0_7_78" style="mask-type:alpha" maskUnits="userSpaceOnUse" x="4" y="2" width="17" height="20"><g><path d="M4 5.5C4 3.84315 5.34315 2.5 7 2.5H17C18.6569 2.5 20 3.84315 20 5.5V12C20 12.5523 19.5523 13 19 13C18.4477 13 18 12.5523 18 12V5.5C18 4.94772 17.5523 4.5 17 4.5H7C6.44772 4.5 6 4.94772 6 5.5V18.5C6 19.0523 6.44772 19.5 7 19.5H11C11.5523 19.5 12 19.9477 12 20.5C12 21.0523 11.5523 21.5 11 21.5H7C5.34315 21.5 4 20.1569 4 18.5V5.5Z" fill="currentColor"/><path d="M8 7.25C8 6.83579 8.33579 6.5 8.75 6.5H15.25C15.6642 6.5 16 6.83579 16 7.25C16 7.66421 15.6642 8 15.25 8H8.75C8.33579 8 8 7.66421 8 7.25Z" fill="currentColor"/><path d="M8.75 9.5C8.33579 9.5 8 9.83579 8 10.25C8 10.6642 8.33579 11 8.75 11H15.25C15.6642 11 16 10.6642 16 10.25C16 9.83579 15.6642 9.5 15.25 9.5H8.75Z" fill="currentColor"/><path d="M8 13.25C8 12.8358 8.33579 12.5 8.75 12.5H11.25C11.6642 12.5 12 12.8358 12 13.25C12 13.6642 11.6642 14 11.25 14H8.75C8.33579 14 8 13.6642 8 13.25Z" fill="currentColor"/><path d="M20.7311 15.6823C21.1079 15.2786 21.0861 14.6458 20.6823 14.2689C20.2786 13.8921 19.6458 13.9139 19.2689 14.3177L15.2915 18.5792L13.6897 17.0536C13.2897 16.6728 12.6567 16.6882 12.2759 17.0881C11.895 17.4881 11.9104 18.121 12.3103 18.5019L14.6437 20.7241C14.837 20.9083 15.0959 21.0074 15.3628 20.9996C15.6296 20.9917 15.8822 20.8775 16.0644 20.6823L20.7311 15.6823Z" fill="currentColor"/></g></mask><g mask="url(#yds2-icon-__mask0_7_78)"><rect width="24" height="24" fill="currentColor"/></g></g></g></svg>