<svg width="24" height="24" viewBox="0 0 24 24" fill="none" xmlns="http://www.w3.org/2000/svg"><g><g><mask id="yds2-icon-__mask0_7_97" style="mask-type:alpha" maskUnits="userSpaceOnUse" x="5" y="4" width="14" height="16"><g><path fill-rule="evenodd" clip-rule="evenodd" d="M12.5 4C15.8137 4 18.5 6.68629 18.5 10V17C18.5 18.6569 17.1569 20 15.5 20H14.2143C13.662 20 13.2143 19.5523 13.2143 19C13.2143 18.4477 13.662 18 14.2143 18H15.5C16.0523 18 16.5 17.5523 16.5 17V10H12.75C12.3358 10 12 9.66421 12 9.25V6H8.5C7.94771 6 7.5 6.44772 7.5 7V9.17647C7.5 9.72876 7.05229 10.1765 6.5 10.1765C5.94771 10.1765 5.5 9.72876 5.5 9.17647V7C5.5 5.34315 6.84315 4 8.5 4H12.5ZM13.5 8.5L16.2092 8.5C15.7379 7.33562 14.7342 6.44369 13.5 6.12602V8.5Z" fill="currentColor"/><path d="M10.2155 10.8014C10.0273 10.6087 9.76937 10.5 9.5 10.5C9.23063 10.5 8.97266 10.6087 8.78448 10.8014L5.78448 13.8741C5.39866 14.2693 5.40624 14.9024 5.80141 15.2882C6.19658 15.674 6.8297 15.6665 7.21552 15.2713L8.5 13.9557V19C8.5 19.5523 8.94772 20 9.5 20C10.0523 20 10.5 19.5523 10.5 19V13.9557L11.7845 15.2713C12.1703 15.6665 12.8034 15.674 13.1986 15.2882C13.5938 14.9024 13.6013 14.2693 13.2155 13.8741L10.2155 10.8014Z" fill="currentColor"/></g></mask><g mask="url(#yds2-icon-__mask0_7_97)"><rect width="24" height="24" fill="currentColor"/></g></g></g></svg>