<svg width="24" height="24" viewBox="0 0 24 24" fill="none" xmlns="http://www.w3.org/2000/svg"><g><g><mask id="yds2-icon-__mask0_7_87" style="mask-type:alpha" maskUnits="userSpaceOnUse" x="2" y="2" width="20" height="20"><g><path fill-rule="evenodd" clip-rule="evenodd" d="M12.1449 4.5H3C2.44772 4.5 2 4.94772 2 5.5C2 6.05228 2.44772 6.5 3 6.5H12.1449C12.5752 7.94574 13.9145 9 15.5 9C17.0855 9 18.4248 7.94574 18.8551 6.5H21C21.5523 6.5 22 6.05228 22 5.5C22 4.94772 21.5523 4.5 21 4.5H18.8551C18.4248 3.05426 17.0855 2 15.5 2C13.9145 2 12.5752 3.05426 12.1449 4.5ZM14 5.5C14 4.67157 14.6716 4 15.5 4C16.3284 4 17 4.67157 17 5.5C17 6.32843 16.3284 7 15.5 7C14.6716 7 14 6.32843 14 5.5Z" fill="currentColor"/><path fill-rule="evenodd" clip-rule="evenodd" d="M2 18.5C2 17.9477 2.44772 17.5 3 17.5H12.1449C12.5752 16.0543 13.9145 15 15.5 15C17.0855 15 18.4248 16.0543 18.8551 17.5H21C21.5523 17.5 22 17.9477 22 18.5C22 19.0523 21.5523 19.5 21 19.5H18.8551C18.4248 20.9457 17.0855 22 15.5 22C13.9145 22 12.5752 20.9457 12.1449 19.5H3C2.44772 19.5 2 19.0523 2 18.5ZM15.5 17C16.3284 17 17 17.6716 17 18.5C17 19.3284 16.3284 20 15.5 20C14.6716 20 14 19.3284 14 18.5C14 17.6716 14.6716 17 15.5 17Z" fill="currentColor"/><path fill-rule="evenodd" clip-rule="evenodd" d="M21 11C21.5523 11 22 11.4477 22 12C22 12.5523 21.5523 13 21 13H11.8551C11.4248 14.4457 10.0855 15.5 8.5 15.5C6.91449 15.5 5.57521 14.4457 5.14494 13H3C2.44772 13 2 12.5523 2 12C2 11.4477 2.44772 11 3 11H5.14494C5.57521 9.55426 6.91449 8.5 8.5 8.5C10.0855 8.5 11.4248 9.55426 11.8551 11H21ZM7 12C7 12.8284 7.67157 13.5 8.5 13.5C9.32843 13.5 10 12.8284 10 12C10 11.1716 9.32843 10.5 8.5 10.5C7.67157 10.5 7 11.1716 7 12Z" fill="currentColor"/></g></mask><g mask="url(#yds2-icon-__mask0_7_87)"><rect width="24" height="24" fill="currentColor"/></g></g></g></svg>