<svg width="24" height="24" viewBox="0 0 24 24" fill="none" xmlns="http://www.w3.org/2000/svg"><g><g><mask id="yds2-icon-__mask0_7_79" style="mask-type:alpha" maskUnits="userSpaceOnUse" x="3" y="6" width="18" height="12"><g><path d="M3.00003 7.5C3.00003 6.94772 3.44775 6.5 4.00003 6.5H20C20.5523 6.5 21 6.94772 21 7.5C21 8.05228 20.5523 8.5 20 8.5H4.00003C3.44775 8.5 3.00003 8.05228 3.00003 7.5Z" fill="currentColor"/><path d="M6.00003 12C6.00003 11.4477 6.44775 11 7.00003 11H17C17.5523 11 18 11.4477 18 12C18 12.5523 17.5523 13 17 13H7.00003C6.44775 13 6.00003 12.5523 6.00003 12Z" fill="currentColor"/><path d="M11 15.5C10.4477 15.5 10 15.9477 10 16.5C10 17.0523 10.4477 17.5 11 17.5H13C13.5523 17.5 14 17.0523 14 16.5C14 15.9477 13.5523 15.5 13 15.5H11Z" fill="currentColor"/></g></mask><g mask="url(#yds2-icon-__mask0_7_79)"><rect width="24" height="24" fill="currentColor"/></g></g></g></svg>