<svg xmlns="http://www.w3.org/2000/svg" width="24" height="24" fill="none"><mask id="a" width="16" height="20" x="4" y="2" maskUnits="userSpaceOnUse" style="mask-type:alpha"><g fill="#333"><path d="M8.75 16.5a.75.75 0 0 1 0-1.5h6.5a.75.75 0 0 1 0 1.5zM8 12.75c0 .414.336.75.75.75h6.5a.75.75 0 0 0 0-1.5h-6.5a.75.75 0 0 0-.75.75M8.75 10.5a.75.75 0 0 1 0-1.5h1.5a.75.75 0 0 1 0 1.5z"/><path fill-rule="evenodd" d="M7 21.5a3 3 0 0 1-3-3v-13a3 3 0 0 1 3-3h6a7 7 0 0 1 7 7v9a3 3 0 0 1-3 3zm-1-3a1 1 0 0 0 1 1h10a1 1 0 0 0 1-1v-9q0-.254-.025-.5H13.75a.75.75 0 0 1-.75-.75V4.5H7a1 1 0 0 0-1 1zm11.584-11H14.5V4.729A5.01 5.01 0 0 1 17.584 7.5" clip-rule="evenodd"/></g></mask><g mask="url(#a)"><path fill="#333" d="M0 0h24v24H0z"/></g></svg>