<svg width="24" height="24" viewBox="0 0 24 24" fill="none" xmlns="http://www.w3.org/2000/svg"><g><g><mask id="yds2-icon-__mask0_7_50" style="mask-type:alpha" maskUnits="userSpaceOnUse" x="4" y="2" width="16" height="20"><g><path d="M8.75 16.5C8.33579 16.5 8 16.1642 8 15.75C8 15.3358 8.33579 15 8.75 15L15.25 15C15.6642 15 16 15.3358 16 15.75C16 16.1642 15.6642 16.5 15.25 16.5L8.75 16.5Z" fill="currentColor"/><path d="M8 12.75C8 13.1642 8.33579 13.5 8.75 13.5L15.25 13.5C15.6642 13.5 16 13.1642 16 12.75C16 12.3358 15.6642 12 15.25 12L8.75 12C8.33579 12 8 12.3358 8 12.75Z" fill="currentColor"/><path d="M8.75 10.5C8.33579 10.5 8 10.1642 8 9.75C8 9.33579 8.33579 9 8.75 9H10.25C10.6642 9 11 9.33579 11 9.75C11 10.1642 10.6642 10.5 10.25 10.5H8.75Z" fill="currentColor"/><path fill-rule="evenodd" clip-rule="evenodd" d="M7 21.5C5.34315 21.5 4 20.1569 4 18.5V5.5C4 3.84315 5.34314 2.5 7 2.5H13C16.866 2.5 20 5.63401 20 9.5L20 18.5C20 20.1569 18.6569 21.5 17 21.5L7 21.5ZM6 18.5C6 19.0523 6.44772 19.5 7 19.5L17 19.5C17.5523 19.5 18 19.0523 18 18.5L18 9.5C18 9.33125 17.9916 9.16445 17.9753 9L13.75 9C13.3358 9 13 8.66421 13 8.25L13 4.5L7 4.5C6.44771 4.5 6 4.94771 6 5.5L6 18.5ZM17.584 7.5L14.5 7.5V4.7289C15.8842 5.16366 17.0091 6.1842 17.584 7.5Z" fill="currentColor"/></g></mask><g mask="url(#yds2-icon-__mask0_7_50)"><rect width="24" height="24" fill="currentColor"/></g></g></g></svg>