<svg width="24" height="24" viewBox="0 0 24 24" fill="none" xmlns="http://www.w3.org/2000/svg"><g><g><mask id="yds2-icon-__mask0_7_88" style="mask-type:alpha" maskUnits="userSpaceOnUse" x="3" y="2" width="18" height="20"><g><path fill-rule="evenodd" clip-rule="evenodd" d="M13.5 2.5C17.366 2.5 20.5 5.63401 20.5 9.5V18.5C20.5 20.1569 19.1569 21.5 17.5 21.5H14.1429C13.5906 21.5 13.1429 21.0523 13.1429 20.5C13.1429 19.9477 13.5906 19.5 14.1429 19.5H17.5C18.0523 19.5 18.5 19.0523 18.5 18.5V9.5L14.5 9.5C13.9477 9.5 13.5 9.05228 13.5 8.5V4.5H6.5C5.94772 4.5 5.5 4.94772 5.5 5.5V9C5.5 9.55228 5.05229 10 4.5 10C3.94772 10 3.5 9.55228 3.5 9V5.5C3.5 3.84315 4.84315 2.5 6.5 2.5H13.5ZM15.5 7.5L18.084 7.5C17.58 6.34656 16.6534 5.42 15.5 4.91604V7.5Z" fill="currentColor"/><path d="M8.7027 10.7885C8.31321 10.4038 7.68679 10.4038 7.2973 10.7885L3.7973 14.2453C3.40436 14.6334 3.40042 15.2665 3.78852 15.6595C4.17661 16.0524 4.80976 16.0564 5.2027 15.6683L7 13.8932V20.5C7 21.0523 7.44772 21.5 8 21.5C8.55228 21.5 9 21.0523 9 20.5V13.8932L10.7973 15.6683C11.1902 16.0564 11.8234 16.0524 12.2115 15.6595C12.5996 15.2665 12.5956 14.6334 12.2027 14.2453L8.7027 10.7885Z" fill="currentColor"/></g></mask><g mask="url(#yds2-icon-__mask0_7_88)"><rect width="24" height="24" fill="currentColor"/></g></g></g></svg>