<svg width="24" height="24" viewBox="0 0 24 24" fill="none" xmlns="http://www.w3.org/2000/svg"><g><g><mask id="yds2-icon-__mask0_1_637" style="mask-type:alpha" maskUnits="userSpaceOnUse" x="1" y="1" width="22" height="22"><g><path d="M10.3979 11.0587C10.9109 10.1627 12.0554 9.85349 12.9585 10.3771L12.9603 10.3781C13.4645 10.669 13.7863 11.1692 13.8721 11.7167C13.9576 12.2623 14.4692 12.6353 15.0148 12.5499C15.5604 12.4644 15.9335 11.9528 15.848 11.4072C15.6738 10.2953 15.0164 9.25607 13.9616 8.64678C12.1055 7.5708 9.73124 8.20061 8.66354 10.0627C7.5895 11.9184 8.21949 14.291 10.0807 15.3583C11.1731 15.9911 12.4677 16.032 13.5509 15.5581C14.0568 15.3367 14.2876 14.7471 14.0662 14.2411C13.8448 13.7351 13.2552 13.5044 12.7492 13.7258C12.2332 13.9515 11.609 13.9328 11.0819 13.627L11.0769 13.6241C10.1808 13.1111 9.87161 11.9666 10.3952 11.0634L10.3979 11.0587Z" fill="currentColor"/><path fill-rule="evenodd" clip-rule="evenodd" d="M14.093 1.75H10.0934C9.57333 1.75 9.14007 2.14865 9.09686 2.66692L8.8582 5.52978C8.62001 5.65161 8.38885 5.78609 8.16569 5.93208L5.46212 4.6579C4.99167 4.43618 4.42981 4.61207 4.16977 5.06247L2.16998 8.52622C1.90994 8.97662 2.03854 9.55116 2.46578 9.84771L4.77407 11.4499C4.74807 11.7425 4.74093 12.039 4.75401 12.338L2.37265 13.991C1.94541 14.2875 1.81681 14.8621 2.07685 15.3125L4.07664 18.7762C4.33668 19.2266 4.89855 19.4025 5.36899 19.1808L7.95114 17.9638C8.18749 18.1265 8.42723 18.2731 8.66971 18.4041L8.91388 21.3331C8.95709 21.8514 9.39035 22.25 9.91042 22.25H13.91C14.4301 22.25 14.8633 21.8514 14.9066 21.3331L15.1454 18.4685C15.3835 18.3465 15.6146 18.2119 15.8377 18.0658L18.5397 19.3393C19.0101 19.561 19.572 19.3851 19.832 18.9347L21.8318 15.4709C22.0918 15.0205 21.9632 14.446 21.536 14.1494L19.2263 12.5462C19.2522 12.2536 19.2592 11.9571 19.2459 11.6581L21.6258 10.0062C22.0531 9.70963 22.1817 9.13509 21.9217 8.68469L19.9219 5.22094C19.6618 4.77054 19.1 4.59465 18.6295 4.81637L16.0461 6.03392C15.8118 5.87287 15.5742 5.72752 15.3339 5.59753L15.0895 2.66692C15.0463 2.14864 14.6131 1.75 14.093 1.75ZM10.8028 6.27704L11.0135 3.75H13.1729L13.3879 6.32847C13.4184 6.69418 13.6467 7.0138 13.9828 7.16119C14.4211 7.35341 14.8642 7.61952 15.3035 7.973C15.6016 8.21293 16.0106 8.26165 16.3567 8.0985L18.6499 7.01777L19.7295 8.88785L17.6277 10.3468C17.3179 10.5618 17.1554 10.9329 17.2075 11.3064C17.2797 11.8242 17.2633 12.3375 17.1702 12.8345C17.0977 13.2217 17.2592 13.6154 17.5829 13.8401L19.6397 15.2678L18.56 17.1379L16.1603 16.0069C15.8193 15.8462 15.4169 15.8909 15.1195 16.1226C14.7199 16.4339 14.2816 16.6899 13.819 16.879C13.4708 17.0212 13.232 17.3468 13.2007 17.7216L12.9899 20.25H10.8305L10.6157 17.6729C10.5852 17.307 10.3566 16.9872 10.0203 16.84C9.58034 16.6473 9.13542 16.3801 8.69444 16.0249C8.39627 15.7847 7.98713 15.7359 7.64079 15.8991L5.34864 16.9794L4.26895 15.1093L6.37192 13.6496C6.68156 13.4346 6.84405 13.0638 6.79219 12.6905C6.72028 12.1727 6.73706 11.6594 6.83043 11.1625C6.90323 10.7751 6.74166 10.3811 6.41785 10.1563L4.36208 8.72938L5.44177 6.8593L7.84268 7.99083C8.18352 8.15147 8.58573 8.10688 8.88311 7.87548C9.28284 7.56443 9.72125 7.30866 10.184 7.11988C10.5324 6.97775 10.7716 6.65204 10.8028 6.27704Z" fill="currentColor"/></g></mask><g mask="url(#yds2-icon-__mask0_1_637)"><rect width="24" height="24" fill="currentColor"/></g></g></g></svg>