<svg width="24" height="24" viewBox="0 0 24 24" fill="none" xmlns="http://www.w3.org/2000/svg"><g><g><mask id="yds2-icon-__mask0_7_127" style="mask-type:alpha" maskUnits="userSpaceOnUse" x="1" y="1" width="22" height="22"><path fill-rule="evenodd" clip-rule="evenodd" d="M10.0934 1.75H14.093C14.6131 1.75 15.0463 2.14864 15.0895 2.66692L15.3339 5.59753C15.5742 5.72752 15.8118 5.87287 16.0461 6.03392L18.6295 4.81637C19.1 4.59465 19.6618 4.77054 19.9219 5.22094L21.9216 8.68469C22.1817 9.13509 22.0531 9.70963 21.6258 10.0062L19.2459 11.6581C19.2592 11.9571 19.2522 12.2536 19.2263 12.5462L21.536 14.1494C21.9632 14.446 22.0918 15.0205 21.8318 15.4709L19.832 18.9347C19.572 19.3851 19.0101 19.561 18.5396 19.3393L15.8377 18.0658C15.6146 18.2119 15.3835 18.3465 15.1454 18.4685L14.9065 21.3331C14.8633 21.8514 14.4301 22.25 13.91 22.25H9.91042C9.39034 22.25 8.95708 21.8514 8.91387 21.3331L8.66971 18.4041C8.42723 18.2731 8.18748 18.1265 7.95113 17.9638L5.36899 19.1808C4.89854 19.4025 4.33667 19.2266 4.07663 18.7762L2.07684 15.3125C1.8168 14.8621 1.94541 14.2875 2.37264 13.991L4.754 12.338C4.74092 12.039 4.74807 11.7425 4.77406 11.4499L2.46578 9.84771C2.03854 9.55116 1.90993 8.97662 2.16997 8.52622L4.16976 5.06247C4.4298 4.61207 4.99166 4.43618 5.46211 4.6579L8.16568 5.93208C8.38884 5.78609 8.62 5.65161 8.8582 5.52978L9.09686 2.66692C9.14006 2.14865 9.57332 1.75 10.0934 1.75ZM12 14.88C13.5906 14.88 14.88 13.5906 14.88 12C14.88 10.4094 13.5906 9.12 12 9.12C10.4094 9.12 9.12 10.4094 9.12 12C9.12 13.5906 10.4094 14.88 12 14.88Z" fill="currentColor"/></mask><g mask="url(#yds2-icon-__mask0_7_127)"><rect width="24" height="24" fill="currentColor"/></g></g></g></svg>