<svg width="24" height="24" viewBox="0 0 24 24" fill="none" xmlns="http://www.w3.org/2000/svg"><g><g><mask id="yds2-icon-__mask0_7_83" style="mask-type:alpha" maskUnits="userSpaceOnUse" x="2" y="2" width="20" height="20"><path fill-rule="evenodd" clip-rule="evenodd" d="M9.08966 3.62639L12 6.57613L14.9103 3.62639C16.2513 2.26724 18.5 3.2583 18.5 5.11708V6.99995C20.1569 6.99995 21.5 8.3431 21.5 9.99996V12.0263C21.5 12.543 21.1081 12.9682 20.6053 13.0208V18.5C20.6053 20.1568 19.2621 21.5 17.6053 21.5H6.39474C4.73788 21.5 3.39474 20.1568 3.39474 18.5V13.0208C2.89193 12.9682 2.5 12.543 2.5 12.0263V9.99995C2.5 8.3431 3.84315 6.99995 5.5 6.99995V5.11708C5.5 3.2583 7.74866 2.26724 9.08966 3.62639ZM7.5 5.11708C7.5 5.07427 7.5108 5.05589 7.51701 5.04696C7.52621 5.03373 7.54266 5.01895 7.56614 5.00909C7.58963 4.99923 7.6089 4.99907 7.61934 5.0009C7.62444 5.00179 7.63972 5.00446 7.66597 5.03107L9.60856 6.99995H7.5V5.11708ZM9.46052 8.99995L5.5 8.99995C4.94772 8.99995 4.5 9.44767 4.5 9.99995V10.885C4.60258 10.8323 4.71887 10.8026 4.84211 10.8026H9.46052V8.99995ZM5.39474 12.3026V18.5C5.39474 19.0522 5.84245 19.5 6.39474 19.5H9.46052V12.3026H5.39474ZM10.9605 19.5H13.0395V12.3026H10.9605V19.5ZM14.5395 19.5H17.6053C18.1575 19.5 18.6053 19.0522 18.6053 18.5V12.3026H14.5395V19.5ZM19.5 10.8026V9.99996C19.5 9.44767 19.0523 8.99995 18.5 8.99995L14.5395 8.99995V10.8026H19.5ZM13.0395 8.99995H10.9605V10.8026H13.0395V8.99995ZM16.334 5.03107L14.3914 6.99995H16.5V5.11708C16.5 5.07427 16.4892 5.05589 16.483 5.04696C16.4738 5.03373 16.4573 5.01895 16.4339 5.00909C16.4104 4.99923 16.3911 4.99907 16.3807 5.0009C16.3756 5.00179 16.3603 5.00446 16.334 5.03107Z" fill="currentColor"/></mask><g mask="url(#yds2-icon-__mask0_7_83)"><rect width="24" height="24" fill="currentColor"/></g></g></g></svg>