<svg width="24" height="24" viewBox="0 0 24 24" fill="none" xmlns="http://www.w3.org/2000/svg"><g><g><mask id="yds2-icon-__mask0_7_82" style="mask-type:alpha" maskUnits="userSpaceOnUse" x="3" y="3" width="18" height="18"><path fill-rule="evenodd" clip-rule="evenodd" d="M12 21C16.9706 21 21 16.9706 21 12C21 7.02944 16.9706 3 12 3C7.02944 3 3 7.02944 3 12C3 16.9706 7.02944 21 12 21ZM5.07089 11C5.5094 7.93431 7.93431 5.5094 11 5.07089V7C11 7.55228 11.4477 8 12 8C12.5523 8 13 7.55228 13 7V5.07089C16.0657 5.5094 18.4906 7.93431 18.9291 11H17C16.4477 11 16 11.4477 16 12C16 12.5523 16.4477 13 17 13H18.9291C18.4906 16.0657 16.0657 18.4906 13 18.9291V17C13 16.4477 12.5523 16 12 16C11.4477 16 11 16.4477 11 17V18.9291C7.93431 18.4906 5.5094 16.0657 5.07089 13H7C7.55228 13 8 12.5523 8 12C8 11.4477 7.55228 11 7 11H5.07089ZM12 13.5C12.8284 13.5 13.5 12.8284 13.5 12C13.5 11.1716 12.8284 10.5 12 10.5C11.1716 10.5 10.5 11.1716 10.5 12C10.5 12.8284 11.1716 13.5 12 13.5Z" fill="currentColor"/></mask><g mask="url(#yds2-icon-__mask0_7_82)"><rect width="24" height="24" fill="currentColor"/></g></g></g></svg>