<svg xmlns="http://www.w3.org/2000/svg" width="24" height="24" fill="none"><mask id="a" width="22" height="22" x="1" y="1" maskUnits="userSpaceOnUse" style="mask-type:alpha"><path fill="#000" fill-rule="evenodd" d="M10.093 1.75h4a1 1 0 0 1 .996.917l.245 2.93q.36.195.712.437l2.584-1.218a1 1 0 0 1 1.292.405l2 3.464a1 1 0 0 1-.296 1.321l-2.38 1.652q.02.45-.02.888l2.31 1.603a1 1 0 0 1 .296 1.322l-2 3.464a1 1 0 0 1-1.292.404l-2.702-1.273a8 8 0 0 1-.693.402l-.239 2.865a1 1 0 0 1-.996.917h-4a1 1 0 0 1-.996-.917l-.244-2.929a8 8 0 0 1-.719-.44L5.37 19.18a1 1 0 0 1-1.292-.405l-2-3.463a1 1 0 0 1 .296-1.322l2.381-1.653a7 7 0 0 1 .02-.888L2.466 9.848a1 1 0 0 1-.296-1.322l2-3.464a1 1 0 0 1 1.292-.404l2.704 1.274q.335-.219.692-.402l.239-2.863a1 1 0 0 1 .996-.917M12 14.88a2.88 2.88 0 1 0 0-5.76 2.88 2.88 0 0 0 0 5.76" clip-rule="evenodd"/></mask><g mask="url(#a)"><path fill="#333" d="M0 0h24v24H0z"/></g></svg>