<svg xmlns="http://www.w3.org/2000/svg" width="24" height="24" fill="none"><mask id="a" width="22" height="22" x="1" y="1" maskUnits="userSpaceOnUse" style="mask-type:alpha"><g fill="#000"><path d="M10.398 11.059a1.866 1.866 0 0 1 2.56-.682l.002.001c.504.291.826.791.912 1.339a1 1 0 0 0 1.976-.31 3.88 3.88 0 0 0-1.886-2.76 3.866 3.866 0 0 0-5.298 1.416 3.866 3.866 0 0 0 1.417 5.295 3.85 3.85 0 0 0 3.47.2 1 1 0 0 0-.802-1.832 1.85 1.85 0 0 1-1.667-.099l-.005-.003a1.866 1.866 0 0 1-.682-2.56z"/><path fill-rule="evenodd" d="M14.093 1.75h-4a1 1 0 0 0-.996.917L8.858 5.53q-.358.183-.692.402L5.462 4.658a1 1 0 0 0-1.292.404l-2 3.464a1 1 0 0 0 .296 1.322l2.308 1.602q-.04.44-.02.888l-2.381 1.653a1 1 0 0 0-.296 1.322l2 3.463a1 1 0 0 0 1.292.405l2.582-1.217q.354.245.719.44l.244 2.93a1 1 0 0 0 .996.916h4a1 1 0 0 0 .997-.917l.238-2.864a8 8 0 0 0 .693-.403l2.702 1.273a1 1 0 0 0 1.292-.404l2-3.464a1 1 0 0 0-.296-1.322l-2.31-1.603q.04-.439.02-.888l2.38-1.652a1 1 0 0 0 .296-1.321l-2-3.464a1 1 0 0 0-1.293-.405l-2.583 1.218a8 8 0 0 0-.712-.436l-.245-2.931a1 1 0 0 0-.996-.917m-3.29 4.527.21-2.527h2.16l.215 2.578a1 1 0 0 0 .595.833 5.9 5.9 0 0 1 1.32.812 1 1 0 0 0 1.054.125l2.293-1.08 1.08 1.87-2.102 1.459a1 1 0 0 0-.42.96 4.7 4.7 0 0 1-.038 1.527 1 1 0 0 0 .413 1.006l2.057 1.428-1.08 1.87-2.4-1.131a1 1 0 0 0-1.04.116 5.5 5.5 0 0 1-1.301.756 1 1 0 0 0-.618.843l-.211 2.528h-2.16l-.214-2.577a1 1 0 0 0-.596-.833 5.9 5.9 0 0 1-1.326-.815 1 1 0 0 0-1.053-.126l-2.292 1.08-1.08-1.87 2.103-1.46a1 1 0 0 0 .42-.958 4.7 4.7 0 0 1 .038-1.529 1 1 0 0 0-.412-1.006L4.362 8.73l1.08-1.87 2.4 1.132a1 1 0 0 0 1.041-.116c.4-.31.838-.566 1.301-.755a1 1 0 0 0 .619-.843" clip-rule="evenodd"/></g></mask><g mask="url(#a)"><path fill="#333" d="M0 0h24v24H0z"/></g></svg>