<svg width="24" height="24" viewBox="0 0 24 24" fill="none" xmlns="http://www.w3.org/2000/svg"><g><g><mask id="yds2-icon-__mask0_7_131" style="mask-type:alpha" maskUnits="userSpaceOnUse" x="2" y="1" width="20" height="21"><path fill-rule="evenodd" clip-rule="evenodd" d="M9.47705 2.76204C10.9469 1.56736 13.0531 1.56736 14.5229 2.76204L20.5229 7.6389C21.4574 8.39847 22 9.53863 22 10.7429V16.7079C22 19.1146 20.2751 21.2197 17.843 21.5568C16.6089 21.7278 15.2107 21.891 14.0462 21.9448C12.4554 22.0184 11.5446 22.0184 9.95378 21.9448C8.78934 21.891 7.39108 21.7278 6.15704 21.5568C3.72486 21.2197 2 19.1146 2 16.7079V10.7429C2 9.53863 2.54255 8.39847 3.47705 7.6389L9.47705 2.76204ZM16.0676 16.8232C16.5223 16.5097 16.6368 15.887 16.3233 15.4323C16.0098 14.9776 15.387 14.8632 14.9324 15.1767C14.1643 15.7063 13.1059 16 11.9993 16C10.8927 16 9.83497 15.7063 9.068 15.1769C8.61345 14.8632 7.99067 14.9774 7.67697 15.432C7.36327 15.8865 7.47746 16.5093 7.932 16.823C9.09703 17.627 10.5724 18 11.9993 18C13.4263 18 14.9019 17.627 16.0676 16.8232Z" fill="currentColor"/></mask><g mask="url(#yds2-icon-__mask0_7_131)"><rect width="24" height="24" fill="currentColor"/></g></g></g></svg>