<svg xmlns="http://www.w3.org/2000/svg" width="24" height="24" fill="none"><mask id="a" width="20" height="17" x="2" y="3" maskUnits="userSpaceOnUse" style="mask-type:alpha"><path fill="#333" d="M2 9.03C2 5.702 4.684 3 8.004 3c1.54 0 2.939.583 3.997 1.537A5.96 5.96 0 0 1 15.996 3C19.316 3 22 5.702 22 9.03c0 3.502-1.636 6.007-3.58 7.723-1.923 1.694-4.17 2.645-5.535 3.111A2.8 2.8 0 0 1 12 20c-.272 0-.593-.034-.885-.136-1.366-.466-3.612-1.417-5.534-3.111C3.636 15.037 2 12.532 2 9.03"/></mask><g mask="url(#a)"><path fill="#333" d="M0 0h24v24H0z"/></g></svg>