<svg xmlns="http://www.w3.org/2000/svg" width="24" height="24" fill="none"><mask id="a" width="20" height="20" x="2" y="2" maskUnits="userSpaceOnUse" style="mask-type:alpha"><path fill="#000" fill-rule="evenodd" d="M11.219 4.596c.754-.608.808-.608 1.563 0l6.157 4.722c.48.387.758.967.758 1.58v5.619c0 1.483-1.063 2.722-2.495 2.92-1.248.17-2.61.327-3.71.377-1.332.061-1.652.061-2.984 0-1.1-.05-2.462-.206-3.71-.378C5.366 19.24 4.303 18 4.303 16.517v-5.62c0-.612.278-1.192.758-1.579zm2.857-1.58c-1.508-1.216-2.644-1.216-4.152 0L3.766 7.738a4.06 4.06 0 0 0-1.516 3.16v5.619c0 2.45 1.77 4.593 4.266 4.936 1.267.174 2.702.34 3.897.395 1.42.065 1.762.065 3.174 0 1.195-.055 2.63-.221 3.897-.395 2.496-.343 4.266-2.486 4.266-4.936v-5.62a4.06 4.06 0 0 0-1.516-3.159zm1.992 13.307a1 1 0 0 0-1.136-1.646c-.768.53-1.826.823-2.933.823s-2.164-.294-2.931-.823a1 1 0 0 0-1.136 1.646c1.165.804 2.64 1.177 4.067 1.177s2.903-.373 4.069-1.177" clip-rule="evenodd"/></mask><g mask="url(#a)"><path fill="#333" d="M0 0h24v24H0z"/></g></svg>