<svg width="24" height="24" viewBox="0 0 24 24" fill="none" xmlns="http://www.w3.org/2000/svg"><g><g><mask id="yds2-icon-__mask0_7_122" style="mask-type:alpha" maskUnits="userSpaceOnUse" x="2" y="4" width="20" height="16"><g><path d="M2 5.90005C2 5.29254 2.49249 4.80005 3.1 4.80005H20.9C21.5075 4.80005 22 5.29254 22 5.90005C22 6.50756 21.5075 7.00005 20.9 7.00005H3.1C2.49249 7.00005 2 6.50756 2 5.90005Z" fill="currentColor"/><path d="M2 12C2 11.3925 2.49249 10.9 3.1 10.9H20.9C21.5075 10.9 22 11.3925 22 12C22 12.6075 21.5075 13.1 20.9 13.1H3.1C2.49249 13.1 2 12.6075 2 12Z" fill="currentColor"/><path d="M3.1 17C2.49249 17 2 17.4925 2 18.1C2 18.7075 2.49249 19.2 3.1 19.2H20.9C21.5075 19.2 22 18.7075 22 18.1C22 17.4925 21.5075 17 20.9 17H3.1Z" fill="currentColor"/></g></mask><g mask="url(#yds2-icon-__mask0_7_122)"><rect width="24" height="24" fill="currentColor"/></g></g></g></svg>