<svg width="24" height="24" viewBox="0 0 24 24" fill="none" xmlns="http://www.w3.org/2000/svg"><g><g><mask id="yds2-icon-__mask0_7_106" style="mask-type:alpha" maskUnits="userSpaceOnUse" x="2" y="3" width="20" height="19"><g><path fill-rule="evenodd" clip-rule="evenodd" d="M6.24642 11.445C6.24642 10.344 7.14667 9.46367 8.24474 9.46367C9.34281 9.46367 10.2431 10.344 10.2431 11.445C10.2431 12.5322 9.34672 13.4263 8.24474 13.4263C7.14667 13.4263 6.24642 12.5459 6.24642 11.445ZM8.24474 10.9496C7.96897 10.9496 7.74516 11.1701 7.74516 11.445C7.74516 11.7198 7.96897 11.9403 8.24474 11.9403C8.5166 11.9403 8.74432 11.7139 8.74432 11.445C8.74432 11.1701 8.52051 10.9496 8.24474 10.9496Z" fill="currentColor"/><path fill-rule="evenodd" clip-rule="evenodd" d="M15.9682 20.9208C16.1768 20.9701 16.4447 20.9998 16.7426 21.0001H16.7376H16.7476H16.7426C17.701 20.999 18.9265 20.661 19.4453 19.3754C19.5552 19.0881 19.6352 19.0287 19.6352 19.0287C20.1047 18.8504 20.4744 18.5631 20.7742 17.8201C21.004 17.2356 23.0023 12.0248 21.3537 9.6077C21.0639 9.19158 20.5743 8.70617 19.7651 8.48826C19.4253 6.60601 18.0465 3.90157 14.4096 3.24771C10.6727 2.57401 7.31547 3.28737 4.95747 5.23891C3.04916 6.81401 2 9.08262 2 11.6186C2 12.0546 2.28979 12.4409 2.70936 12.5697C2.88927 12.6291 3.15906 12.7975 3.15906 12.7975V12.9164C2.99916 15.1156 4.15822 18.3451 15.9682 20.9208ZM5.16738 12.7975C5.16738 11.9357 4.60779 11.3413 4.02832 10.9945C4.17822 9.31045 4.94747 7.82449 6.23642 6.75463C8.13485 5.18933 10.9125 4.62472 14.0598 5.18933C17.7167 5.84319 17.8666 9.2015 17.8666 9.36995C17.8699 9.54699 17.9203 9.71327 18.0058 9.85645L13.5286 9.37322C13.5153 9.37176 13.502 9.37068 13.4887 9.36995C13.4751 9.36923 13.4613 9.36886 13.4475 9.36886C13.0045 9.36886 12.4845 9.48266 12.0633 9.83879C11.6208 10.2129 11.3893 10.7681 11.3893 11.4393V13.4206L11.3892 13.4593C11.3881 13.6444 11.386 13.9814 11.5585 14.3024C11.749 14.6571 12.0803 14.8825 12.4399 15.0692C13.5569 15.6519 14.7091 16.1369 15.8375 16.6015L16.2115 16.7553C16.897 17.0368 17.5714 17.3137 18.2341 17.6072C18.0051 17.8305 17.7952 18.1488 17.5968 18.6325C17.3771 19.1772 16.3979 18.9792 16.3979 18.9792C11.1523 17.8399 4.94747 15.8884 5.15737 13.0551C5.16738 12.9561 5.16738 12.8668 5.16738 12.7975ZM19.1806 16.4009C18.3863 16.0401 17.5826 15.7102 16.7937 15.3863L16.7856 15.3826L16.4123 15.2292C15.2843 14.7647 14.1881 14.3021 13.1371 13.7537L13.1354 13.7529C12.9937 13.6794 12.923 13.6294 12.8911 13.6038C12.8887 13.5688 12.888 13.5178 12.888 13.4206V11.4393C12.888 11.4035 12.8893 11.3703 12.8916 11.3396C12.8976 11.2587 12.9105 11.195 12.927 11.1443C12.96 11.0425 13.0065 10.9943 13.0359 10.9695C13.0642 10.9455 13.1026 10.9224 13.1517 10.9033C13.2183 10.8773 13.3047 10.8588 13.412 10.8554L19.989 11.5652C20.1572 12.8424 19.7163 14.8498 19.1806 16.4009Z" fill="currentColor"/></g></mask><g mask="url(#yds2-icon-__mask0_7_106)"><rect width="24" height="24" fill="currentColor"/></g></g></g></svg>