<svg width="24" height="24" viewBox="0 0 24 24" fill="none" xmlns="http://www.w3.org/2000/svg"><g><g><mask id="yds2-icon-__mask0_1_657" style="mask-type:alpha" maskUnits="userSpaceOnUse" x="2" y="2" width="20" height="20"><path fill-rule="evenodd" clip-rule="evenodd" d="M11.2185 4.59591C11.9727 3.98785 12.0273 3.98785 12.7815 4.59591L18.9394 9.31799C19.419 9.70458 19.6974 10.2849 19.6974 10.8978V16.517C19.6974 18.0005 18.6337 19.2394 17.2018 19.4362C15.9544 19.6077 14.5926 19.7636 13.492 19.8141C12.1598 19.8753 11.84 19.8752 10.508 19.8141C9.40737 19.7636 8.04562 19.6077 6.79823 19.4362C5.36625 19.2394 4.30263 18.0005 4.30263 16.517V10.8978C4.30263 10.2849 4.58105 9.70458 5.06059 9.31799L11.2185 4.59591ZM14.0762 3.01609C12.5677 1.79998 11.4323 1.79998 9.92381 3.01609L3.76592 7.73817C2.80683 8.51136 2.25 9.67196 2.25 10.8978V16.517C2.25 18.9669 4.02025 21.1097 6.51643 21.4528C7.78296 21.6269 9.218 21.793 10.4131 21.8478C11.8321 21.9129 12.1755 21.9126 13.5869 21.8478C14.782 21.793 16.217 21.6269 17.4836 21.4528C19.9797 21.1097 21.75 18.9669 21.75 16.517V10.8978C21.75 9.67196 21.1932 8.51136 20.2341 7.73817L14.0762 3.01609ZM16.0676 16.3234C16.5223 16.0099 16.6367 15.3871 16.3232 14.9325C16.0097 14.4778 15.387 14.3633 14.9323 14.6768C14.1643 15.2064 13.1059 15.5001 11.9993 15.5001C10.8927 15.5001 9.83494 15.2064 9.06797 14.6771C8.61342 14.3634 7.99064 14.4776 7.67694 14.9321C7.36324 15.3867 7.47742 16.0094 7.93197 16.3231C9.097 17.1272 10.5724 17.5001 11.9993 17.5001C13.4263 17.5001 14.9019 17.1272 16.0676 16.3234Z" fill="currentColor"/></mask><g mask="url(#yds2-icon-__mask0_1_657)"><rect width="24" height="24" fill="currentColor"/></g></g></g></svg>