<svg width="24" height="24" viewBox="0 0 24 24" fill="none" xmlns="http://www.w3.org/2000/svg"><g><g><mask id="yds2-icon-__mask0_7_125" style="mask-type:alpha" maskUnits="userSpaceOnUse" x="2" y="3" width="20" height="18"><path fill-rule="evenodd" clip-rule="evenodd" d="M12.1218 3.00001C5.92532 2.99281 3.85982 6.92412 2.83064 9.06979L2.05161 11.0066C1.90867 11.3595 2.07305 11.7699 2.41611 11.9283L3.16655 12.2739C3.16655 14.7724 4.19573 16.918 5.91817 17.6308C6.43276 17.8468 12.665 19.6901 12.665 19.6901L13.2915 19.8754L13.2931 19.8759C14.3699 20.1944 15.4893 20.5254 16.5887 20.8565C17.4607 21.1517 18.8687 21.1517 19.4547 19.2581C20.0551 19.1357 20.5697 18.7253 20.7984 18.1276C21.22 17.062 21.9133 14.7796 21.9991 11.2442C22.0205 10.5314 21.6703 9.86901 21.1128 9.4658L20.3552 8.91858C20.2766 8.86098 20.1909 8.80338 20.1051 8.75298C19.4404 6.1609 17.3964 3.00721 12.1218 3.00001ZM20.4531 12.9816C20.2999 14.789 20.0367 16.0865 19.7507 17C19.0849 16.6974 18.3792 16.4382 17.6694 16.1775C16.1998 15.6378 14.7128 15.0917 13.5265 14.1405C13.4877 13.5893 13.4996 13.0292 13.5115 12.4716C13.5173 12.2025 13.523 11.9341 13.523 11.6675C13.523 11.3025 13.6354 11.1785 13.6921 11.1307C13.7703 11.0647 13.916 11.0043 14.1379 11L20.4206 11.4223C20.5344 11.8318 20.5076 12.3393 20.4531 12.9816ZM8 11.5C8 10.6925 8.64952 10 9.5 10C10.3505 10 11 10.6925 11 11.5C11 12.2971 10.3534 13 9.5 13C8.64952 13 8 12.3075 8 11.5Z" fill="currentColor"/></mask><g mask="url(#yds2-icon-__mask0_7_125)"><rect width="24" height="24" fill="currentColor"/></g></g></g></svg>