<svg width="24" height="24" viewBox="0 0 24 24" fill="none" xmlns="http://www.w3.org/2000/svg"><g><g><mask id="yds2-icon-__mask0_1_609" style="mask-type:alpha" maskUnits="userSpaceOnUse" x="2" y="4" width="20" height="17"><path fill-rule="evenodd" clip-rule="evenodd" d="M8.004 6C5.79777 6 4 7.79736 4 10.03C4 12.8269 5.28006 14.8206 6.90368 16.2525C8.54851 17.7031 10.5203 18.5478 11.765 18.9726L11.7748 18.976C11.7748 18.976 11.7961 18.983 11.843 18.9897C11.8877 18.996 11.9418 19 12 19C12.0582 19 12.1123 18.996 12.157 18.9897C12.2018 18.9833 12.2252 18.976 12.2252 18.976L12.235 18.9726C13.4796 18.5477 15.4515 17.7031 17.0963 16.2525C18.7199 14.8206 20 12.8269 20 10.03C20 7.79736 18.2022 6 15.996 6C14.6973 6 13.5316 6.63074 12.8028 7.6119C12.6141 7.86589 12.3164 8.01562 12 8.01562C11.6836 8.01562 11.3859 7.86589 11.1972 7.6119C10.4678 6.62991 9.31071 6 8.004 6ZM2 10.03C2 6.70178 4.68423 4 8.004 4C9.54315 4 10.9428 4.58263 12.0005 5.53685C13.0607 4.58226 14.4645 4 15.996 4C19.3158 4 22 6.70178 22 10.03C22 13.532 20.3641 16.0373 18.4192 17.7525C16.4974 19.4473 14.2508 20.3975 12.8851 20.864C12.5933 20.966 12.2722 21 12 21C11.7278 21 11.4067 20.966 11.1149 20.864C9.74916 20.3975 7.50256 19.4473 5.58082 17.7525C3.63594 16.0373 2 13.532 2 10.03Z" fill="currentColor"/></mask><g mask="url(#yds2-icon-__mask0_1_609)"><rect width="24" height="24" fill="currentColor"/></g></g></g></svg>