<svg width="24" height="24" viewBox="0 0 24 24" fill="none" xmlns="http://www.w3.org/2000/svg"><g><g><mask id="yds2-icon-__mask0_7_126" style="mask-type:alpha" maskUnits="userSpaceOnUse" x="2" y="3" width="20" height="17"><path d="M2 9.03004C2 5.70178 4.68423 3 8.004 3C9.54315 3 10.9428 3.58263 12.0005 4.53685C13.0607 3.58226 14.4645 3 15.996 3C19.3158 3 22 5.70178 22 9.03004C22 12.532 20.3641 15.0373 18.4192 16.7525C16.4974 18.4473 14.2508 19.3975 12.8851 19.864C12.5933 19.966 12.2722 20 12 20C11.7278 20 11.4067 19.966 11.1149 19.864C9.74916 19.3975 7.50256 18.4473 5.58082 16.7525C3.63594 15.0373 2 12.532 2 9.03004Z" fill="currentColor"/></mask><g mask="url(#yds2-icon-__mask0_7_126)"><rect width="24" height="24" fill="currentColor"/></g></g></g></svg>