<svg xmlns="http://www.w3.org/2000/svg" width="24" height="24" fill="none"><mask id="a" width="20" height="19" x="2" y="3" maskUnits="userSpaceOnUse" style="mask-type:alpha"><g fill="#333" fill-rule="evenodd" clip-rule="evenodd"><path d="M6.246 11.445c0-1.101.9-1.981 1.999-1.981a1.99 1.99 0 0 1 1.998 1.981 1.996 1.996 0 0 1-1.998 1.981 1.99 1.99 0 0 1-1.999-1.981m1.999-.495c-.276 0-.5.22-.5.495s.224.495.5.495c.272 0 .5-.226.5-.495a.497.497 0 0 0-.5-.495"/><path d="M15.968 20.92c.209.05.477.08.775.08h-.005.01-.005c.958-.001 2.184-.339 2.702-1.625.11-.287.19-.346.19-.346.47-.179.84-.466 1.14-1.209.229-.584 2.227-5.795.579-8.212a2.78 2.78 0 0 0-1.589-1.12c-.34-1.882-1.718-4.586-5.355-5.24-3.737-.674-7.095.04-9.453 1.99C3.05 6.815 2 9.084 2 11.619a1 1 0 0 0 .71.952c.18.06.45.227.45.227v.12c-.16 2.199.998 5.428 12.808 8.004m-10.8-8.123c0-.861-.56-1.456-1.14-1.803.15-1.684.92-3.17 2.208-4.24 1.899-1.565 4.677-2.13 7.824-1.565 3.657.654 3.807 4.012 3.807 4.18a1 1 0 0 0 .139.487l-4.477-.483a1 1 0 0 0-.082-.004c-.442 0-.962.114-1.384.47-.442.374-.674.93-.674 1.6v2.02c0 .185-.003.522.17.843.19.355.521.58.88.767 1.118.583 2.27 1.068 3.399 1.533l.374.153c.685.282 1.36.559 2.022.852-.229.224-.439.542-.637 1.026-.22.544-1.2.346-1.2.346-5.245-1.14-11.45-3.09-11.24-5.924.01-.099.01-.188.01-.258m14.013 3.604c-.795-.36-1.598-.69-2.387-1.015l-.008-.003-.374-.154c-1.128-.464-2.224-.927-3.275-1.475l-.002-.001a1.5 1.5 0 0 1-.244-.15 3 3 0 0 1-.003-.182v-1.982q0-.054.004-.1a.8.8 0 0 1 .035-.195.36.36 0 0 1 .109-.175.4.4 0 0 1 .116-.066.8.8 0 0 1 .26-.048l6.577.71c.168 1.277-.273 3.285-.808 4.836"/></g></mask><g mask="url(#a)"><path fill="#333" d="M0 0h24v24H0z"/></g></svg>