<svg width="24" height="24" viewBox="0 0 24 24" fill="none" xmlns="http://www.w3.org/2000/svg"><g><g><mask id="yds2-icon-__mask0_7_107" style="mask-type:alpha" maskUnits="userSpaceOnUse" x="2" y="2" width="20" height="20"><g><path d="M13.25 7.75C13.25 8.4375 12.6875 9 12 9C11.3125 9 10.75 8.4375 10.75 7.75C10.75 7.0625 11.3125 6.5 12 6.5C12.6875 6.5 13.25 7.0625 13.25 7.75Z" fill="currentColor"/><path d="M11 10C10.7239 10 10.5 10.2239 10.5 10.5V11C10.5 11.2761 10.7239 11.5 11 11.5V15.5H10.5C10.2239 15.5 10 15.7239 10 16V16.5C10 16.7761 10.2239 17 10.5 17H13.5C13.7761 17 14 16.7761 14 16.5V16C14 15.7239 13.7761 15.5 13.5 15.5H13V10.5C13 10.2239 12.7761 10 12.5 10H11Z" fill="currentColor"/><path fill-rule="evenodd" clip-rule="evenodd" d="M2.5 12C2.5 6.75329 6.75329 2.5 12 2.5C17.2467 2.5 21.5 6.75329 21.5 12C21.5 17.2467 17.2467 21.5 12 21.5C6.75329 21.5 2.5 17.2467 2.5 12ZM12 4.5C7.85786 4.5 4.5 7.85786 4.5 12C4.5 16.1421 7.85786 19.5 12 19.5C16.1421 19.5 19.5 16.1421 19.5 12C19.5 7.85786 16.1421 4.5 12 4.5Z" fill="currentColor"/></g></mask><g mask="url(#yds2-icon-__mask0_7_107)"><rect width="24" height="24" fill="currentColor"/></g></g></g></svg>