<svg width="24" height="24" viewBox="0 0 24 24" fill="none" xmlns="http://www.w3.org/2000/svg"><g><g><mask id="yds2-icon-__mask0_7_115" style="mask-type:alpha" maskUnits="userSpaceOnUse" x="3" y="3" width="18" height="18"><path fill-rule="evenodd" clip-rule="evenodd" d="M12 21C16.9706 21 21 16.9706 21 12C21 7.02944 16.9706 3 12 3C7.02944 3 3 7.02944 3 12C3 16.9706 7.02944 21 12 21ZM12 9C12.6875 9 13.25 8.4375 13.25 7.75C13.25 7.0625 12.6875 6.5 12 6.5C11.3125 6.5 10.75 7.0625 10.75 7.75C10.75 8.4375 11.3125 9 12 9ZM10.5 10.5C10.5 10.2239 10.7239 10 11 10H12.5C12.7761 10 13 10.2239 13 10.5V15.5H13.5C13.7761 15.5 14 15.7239 14 16V16.5C14 16.7761 13.7761 17 13.5 17H10.5C10.2239 17 10 16.7761 10 16.5V16C10 15.7239 10.2239 15.5 10.5 15.5H11V11.5C10.7239 11.5 10.5 11.2761 10.5 11V10.5Z" fill="currentColor"/></mask><g mask="url(#yds2-icon-__mask0_7_115)"><rect width="24" height="24" fill="currentColor"/></g></g></g></svg>