<svg xmlns="http://www.w3.org/2000/svg" width="24" height="24" fill="none"><mask id="a" width="18" height="18" x="3" y="3" maskUnits="userSpaceOnUse" style="mask-type:alpha"><path fill="#333" fill-rule="evenodd" d="M12 21a9 9 0 1 0 0-18 9 9 0 0 0 0 18m0-12c.688 0 1.25-.562 1.25-1.25S12.688 6.5 12 6.5s-1.25.563-1.25 1.25S11.313 9 12 9m-1.5 1.5a.5.5 0 0 1 .5-.5h1.5a.5.5 0 0 1 .5.5v5h.5a.5.5 0 0 1 .5.5v.5a.5.5 0 0 1-.5.5h-3a.5.5 0 0 1-.5-.5V16a.5.5 0 0 1 .5-.5h.5v-4a.5.5 0 0 1-.5-.5z" clip-rule="evenodd"/></mask><g mask="url(#a)"><path fill="#333" d="M0 0h24v24H0z"/></g></svg>