<svg width="24" height="24" viewBox="0 0 24 24" fill="none" xmlns="http://www.w3.org/2000/svg"><g><g><mask id="yds2-icon-__mask0_7_101" style="mask-type:alpha" maskUnits="userSpaceOnUse" x="1" y="5" width="22" height="14"><g><path d="M16.0001 15.9C18.154 15.9 19.9001 14.1539 19.9001 12C19.9001 9.84605 18.154 8.09996 16.0001 8.09996L14.5001 8.09996C13.8926 8.09996 13.4001 7.60748 13.4001 6.99996C13.4001 6.39245 13.8926 5.89996 14.5001 5.89996H16.0001C19.369 5.89996 22.1001 8.63103 22.1001 12C22.1001 15.3689 19.369 18.1 16.0001 18.1H14.5001C13.8926 18.1 13.4001 17.6075 13.4001 17C13.4001 16.3924 13.8926 15.9 14.5001 15.9H16.0001Z" fill="currentColor"/><path d="M7.9999 8.10001C5.84599 8.10001 4.0999 9.8461 4.0999 12C4.0999 14.1539 5.84599 15.9 7.9999 15.9H9.4999C10.1074 15.9 10.5999 16.3925 10.5999 17C10.5999 17.6075 10.1074 18.1 9.4999 18.1H7.9999C4.63097 18.1 1.8999 15.3689 1.8999 12C1.8999 8.63107 4.63097 5.90001 7.9999 5.90001H9.4999C10.1074 5.90001 10.5999 6.3925 10.5999 7.00001C10.5999 7.60752 10.1074 8.10001 9.4999 8.10001H7.9999Z" fill="currentColor"/><path d="M8.9999 10.9C8.39239 10.9 7.8999 11.3925 7.8999 12C7.8999 12.6075 8.39239 13.1 8.9999 13.1H14.9999C15.6074 13.1 16.0999 12.6075 16.0999 12C16.0999 11.3925 15.6074 10.9 14.9999 10.9H8.9999Z" fill="currentColor"/></g></mask><g mask="url(#yds2-icon-__mask0_7_101)"><rect width="24" height="24" fill="currentColor"/></g></g></g></svg>