<svg width="24" height="24" viewBox="0 0 24 24" fill="none" xmlns="http://www.w3.org/2000/svg"><g><g><mask id="yds2-icon-__mask0_7_53" style="mask-type:alpha" maskUnits="userSpaceOnUse" x="3" y="2" width="18" height="20"><g><path fill-rule="evenodd" clip-rule="evenodd" d="M12 6.11401C9.85949 6.11401 8.12427 7.84924 8.12427 9.98975C8.12427 12.1303 9.85949 13.8655 12 13.8655C14.1405 13.8655 15.8757 12.1303 15.8757 9.98975C15.8757 7.84924 14.1405 6.11401 12 6.11401ZM10.1243 9.98975C10.1243 8.95381 10.9641 8.11401 12 8.11401C13.0359 8.11401 13.8757 8.95381 13.8757 9.98975C13.8757 11.0257 13.0359 11.8655 12 11.8655C10.9641 11.8655 10.1243 11.0257 10.1243 9.98975Z" fill="currentColor"/><path fill-rule="evenodd" clip-rule="evenodd" d="M12.7086 21.7079L17.9779 16.4493C21.31 13.1239 21.3474 7.75325 18.0489 4.44828L18.0461 4.44547C14.7356 1.15482 9.35764 1.192 6.02656 4.51637C2.69622 7.84 2.64319 13.2117 5.95692 16.5188L5.95972 16.5216C6.70121 17.2558 8.03986 18.5568 9.18961 19.671C9.76524 20.2288 10.2947 20.7409 10.6803 21.1136L11.3071 21.719C11.6992 22.0974 12.3229 22.0929 12.7086 21.7079ZM16.6347 5.86251C14.1187 3.3631 10.0038 3.37274 7.43934 5.93201C4.87414 8.49205 4.85708 12.5941 7.36835 15.1018C8.10117 15.8274 9.43097 17.1199 10.5814 18.2347C11.1177 18.7544 11.6139 19.2344 11.9908 19.5987L16.5651 15.0337C19.1284 12.4755 19.138 8.3723 16.6347 5.86251Z" fill="currentColor"/></g></mask><g mask="url(#yds2-icon-__mask0_7_53)"><rect width="24" height="24" fill="currentColor"/></g></g></g></svg>