<svg width="24" height="24" viewBox="0 0 24 24" fill="none" xmlns="http://www.w3.org/2000/svg"><g><g><mask id="yds2-icon-__mask0_7_108" style="mask-type:alpha" maskUnits="userSpaceOnUse" x="1" y="2" width="22" height="20"><g><path d="M3.53033 2.46967C3.23744 2.17678 2.76256 2.17678 2.46967 2.46967C2.17678 2.76256 2.17678 3.23744 2.46967 3.53033L5.41327 6.47393C3.33749 7.44724 1.8999 9.55572 1.8999 12C1.8999 15.3689 4.63097 18.1 7.9999 18.1H9.4999C10.1074 18.1 10.5999 17.6075 10.5999 17C10.5999 16.3925 10.1074 15.9 9.4999 15.9H7.9999C5.84599 15.9 4.0999 14.1539 4.0999 12C4.0999 10.1431 5.39754 8.58939 7.13544 8.1961L9.8393 10.9H8.9999C8.39239 10.9 7.8999 11.3925 7.8999 12C7.8999 12.6075 8.39239 13.1 8.9999 13.1H12.0393L14.8393 15.8999H14.5001C13.8926 15.8999 13.4001 16.3924 13.4001 16.9999C13.4001 17.6074 13.8926 18.0999 14.5001 18.0999H16.0001C16.3279 18.0999 16.6498 18.0741 16.9636 18.0243L20.4697 21.5303C20.7626 21.8232 21.2374 21.8232 21.5303 21.5303C21.8232 21.2374 21.8232 20.7626 21.5303 20.4697L3.53033 2.46967Z" fill="currentColor"/><path d="M17.6543 15.5329L19.2712 17.1498C20.9719 16.0673 22.1002 14.1654 22.1002 12C22.1002 8.63109 19.3691 5.90002 16.0002 5.90002H14.5002C13.8927 5.90002 13.4002 6.39251 13.4002 7.00002C13.4002 7.60754 13.8927 8.10002 14.5002 8.10002L16.0002 8.10002C18.1541 8.10003 19.9002 9.84611 19.9002 12C19.9002 13.5626 18.9812 14.9105 17.6543 15.5329Z" fill="currentColor"/><path d="M13.0215 10.9001L15.2028 13.0814C15.7134 12.9862 16.1 12.5383 16.1 12.0001C16.1 11.3926 15.6075 10.9001 15 10.9001H13.0215Z" fill="currentColor"/><path d="M10.0653 7.94388L8.02148 5.90007H9.49998C10.1075 5.90007 10.6 6.39256 10.6 7.00007C10.6 7.40087 10.3856 7.75161 10.0653 7.94388Z" fill="currentColor"/></g></mask><g mask="url(#yds2-icon-__mask0_7_108)"><rect width="24" height="24" fill="currentColor"/></g></g></g></svg>