<svg xmlns="http://www.w3.org/2000/svg" width="24" height="24" fill="none"><mask id="a" width="18" height="20" x="3" y="2" maskUnits="userSpaceOnUse" style="mask-type:alpha"><g fill="#333" fill-rule="evenodd" clip-rule="evenodd"><path d="M12 6.114a3.876 3.876 0 1 0 0 7.751 3.876 3.876 0 0 0 0-7.751M10.124 9.99a1.876 1.876 0 1 1 3.752 0 1.876 1.876 0 0 1-3.752 0"/><path d="m12.709 21.708 5.269-5.259c3.332-3.325 3.37-8.696.07-12l-.002-.004c-3.31-3.29-8.688-3.253-12.02.071-3.33 3.324-3.383 8.696-.07 12.003l.004.003c.741.734 2.08 2.035 3.23 3.149l1.49 1.443.627.605a1 1 0 0 0 1.402-.011m3.926-15.845c-2.516-2.5-6.631-2.49-9.196.069s-2.582 6.662-.07 9.17c.732.725 2.062 2.018 3.212 3.133l1.41 1.364 4.574-4.565c2.563-2.559 2.573-6.662.07-9.171"/></g></mask><g mask="url(#a)"><path fill="#333" d="M0 0h24v24H0z"/></g></svg>