<svg xmlns="http://www.w3.org/2000/svg" width="24" height="24" fill="none"><mask id="a" width="22" height="14" x="1" y="5" maskUnits="userSpaceOnUse" style="mask-type:alpha"><g fill="#333"><path d="M16 15.9a3.9 3.9 0 0 0 0-7.8h-1.5a1.1 1.1 0 0 1 0-2.2H16a6.1 6.1 0 0 1 0 12.2h-1.5a1.1 1.1 0 0 1 0-2.2zM8 8.1a3.9 3.9 0 1 0 0 7.8h1.5a1.1 1.1 0 0 1 0 2.2H8A6.1 6.1 0 0 1 8 5.9h1.5a1.1 1.1 0 0 1 0 2.2z"/><path d="M9 10.9a1.1 1.1 0 0 0 0 2.2h6a1.1 1.1 0 0 0 0-2.2z"/></g></mask><g mask="url(#a)"><path fill="#333" d="M0 0h24v24H0z"/></g></svg>