<svg width="24" height="24" viewBox="0 0 24 24" fill="none" xmlns="http://www.w3.org/2000/svg"><g><g><mask id="yds2-icon-__mask0_7_121" style="mask-type:alpha" maskUnits="userSpaceOnUse" x="2" y="9" width="20" height="6"><g><path d="M6.50004 12C6.50004 13.2426 5.49268 14.25 4.25004 14.25C3.0074 14.25 2.00004 13.2426 2.00004 12C2.00004 10.7574 3.0074 9.75 4.25004 9.75C5.49268 9.75 6.50004 10.7574 6.50004 12Z" fill="currentColor"/><path d="M22 12C22 13.2426 20.9927 14.25 19.75 14.25C18.5074 14.25 17.5 13.2426 17.5 12C17.5 10.7574 18.5074 9.75 19.75 9.75C20.9927 9.75 22 10.7574 22 12Z" fill="currentColor"/><path d="M12 14.25C13.2427 14.25 14.25 13.2426 14.25 12C14.25 10.7574 13.2427 9.75 12 9.75C10.7574 9.75 9.75004 10.7574 9.75004 12C9.75004 13.2426 10.7574 14.25 12 14.25Z" fill="currentColor"/></g></mask><g mask="url(#yds2-icon-__mask0_7_121)"><rect width="24" height="24" fill="currentColor"/></g></g></g></svg>