<svg width="24" height="24" viewBox="0 0 24 24" fill="none" xmlns="http://www.w3.org/2000/svg"><g><g><mask id="yds2-icon-__mask0_7_90" style="mask-type:alpha" maskUnits="userSpaceOnUse" x="10" y="5" width="4" height="14"><path d="M12 19C11.5875 19 11.235 18.85 10.9425 18.5575C10.65 18.265 10.5 17.9125 10.5 17.5C10.5 17.0875 10.65 16.735 10.9425 16.4425C11.235 16.15 11.5875 16 12 16C12.4125 16 12.765 16.15 13.0575 16.4425C13.35 16.735 13.5 17.0875 13.5 17.5C13.5 17.9125 13.35 18.265 13.0575 18.5575C12.765 18.85 12.4125 19 12 19ZM12 13.5C11.5875 13.5 11.235 13.35 10.9425 13.0575C10.65 12.765 10.5 12.4125 10.5 12C10.5 11.5875 10.65 11.235 10.9425 10.9425C11.235 10.65 11.5875 10.5 12 10.5C12.4125 10.5 12.765 10.65 13.0575 10.9425C13.35 11.235 13.5 11.5875 13.5 12C13.5 12.4125 13.35 12.765 13.0575 13.0575C12.765 13.35 12.4125 13.5 12 13.5ZM12 8C11.5875 8 11.235 7.85 10.9425 7.5575C10.65 7.265 10.5 6.9125 10.5 6.5C10.5 6.0875 10.65 5.735 10.9425 5.4425C11.235 5.15 11.5875 5 12 5C12.4125 5 12.765 5.15 13.0575 5.4425C13.35 5.735 13.5 6.0875 13.5 6.5C13.5 6.9125 13.35 7.265 13.0575 7.5575C12.765 7.85 12.4125 8 12 8Z" fill="currentColor"/></mask><g mask="url(#yds2-icon-__mask0_7_90)"><rect width="24" height="24" fill="currentColor"/></g></g></g></svg>