<svg width="24" height="24" viewBox="0 0 24 24" fill="none" xmlns="http://www.w3.org/2000/svg"><g><g><mask id="yds2-icon-__mask0_7_75" style="mask-type:alpha" maskUnits="userSpaceOnUse" x="2" y="2" width="20" height="20"><g><path d="M12.7244 9.54183C12.4313 9.2487 12.4313 8.77345 12.7244 8.48032L14.1397 7.06498C14.4329 6.77186 14.9081 6.77186 15.2012 7.06498C15.4944 7.35811 15.4944 7.83336 15.2012 8.12649L13.7859 9.54183C13.4928 9.83495 13.0175 9.83495 12.7244 9.54183Z" fill="currentColor"/><path d="M16.7935 6.53422C17.0866 6.24109 17.0866 5.76584 16.7935 5.47271C16.5004 5.17959 16.0251 5.17959 15.732 5.47271C15.4389 5.76584 15.4389 6.24109 15.732 6.53422C16.0251 6.82734 16.5004 6.82734 16.7935 6.53422Z" fill="currentColor"/><path fill-rule="evenodd" clip-rule="evenodd" d="M4.21368 12.7077C2.2595 14.6618 2.2595 17.8302 4.21368 19.7844C6.16786 21.7385 9.3362 21.7385 11.2904 19.7844L19.7824 11.2923C21.7366 9.33815 21.7366 6.16981 19.7824 4.21563C17.8282 2.26146 14.6599 2.26146 12.7057 4.21563L4.21368 12.7077ZM5.62902 18.369C4.45651 17.1965 4.45651 15.2955 5.62902 14.123L9.16738 10.5847L13.4134 14.8307L9.87504 18.369C8.70253 19.5415 6.80152 19.5415 5.62902 18.369ZM14.8287 13.4153L18.3671 9.87699C19.5396 8.70448 19.5396 6.80348 18.3671 5.63097C17.1946 4.45847 15.2936 4.45847 14.1211 5.63097L10.5827 9.16931L14.8287 13.4153Z" fill="currentColor"/></g></mask><g mask="url(#yds2-icon-__mask0_7_75)"><rect width="24" height="24" fill="currentColor"/></g></g></g></svg>