<svg width="24" height="24" viewBox="0 0 24 24" fill="none" xmlns="http://www.w3.org/2000/svg"><g><g><mask id="yds2-icon-__mask0_7_116" style="mask-type:alpha" maskUnits="userSpaceOnUse" x="2" y="4" width="20" height="16"><path fill-rule="evenodd" clip-rule="evenodd" d="M2.5 6C2.5 4.89543 3.39543 4 4.5 4H19.5C20.6046 4 21.5 4.89543 21.5 6V15C21.5 16.1046 20.6046 17 19.5 17H18.5V18H21C21.5523 18 22 18.4477 22 19C22 19.5523 21.5523 20 21 20H3C2.44772 20 2 19.5523 2 19C2 18.4477 2.44772 18 3 18H5.5V17H4.5C3.39543 17 2.5 16.1046 2.5 15V6ZM19.5 15H4.5V6L19.5 6V15Z" fill="currentColor"/></mask><g mask="url(#yds2-icon-__mask0_7_116)"><rect width="24" height="24" fill="currentColor"/></g></g></g></svg>