<svg width="24" height="24" viewBox="0 0 24 24" fill="none" xmlns="http://www.w3.org/2000/svg"><g><g><mask id="yds2-icon-__mask0_1_671" style="mask-type:alpha" maskUnits="userSpaceOnUse" x="1" y="2" width="22" height="20"><g><path d="M16.0676 11.8232C16.5223 11.5097 16.6367 10.887 16.3232 10.4323C16.0097 9.97764 15.387 9.8632 14.9323 10.1767C14.1643 10.7063 13.1059 11 11.9993 11C10.8927 11 9.83494 10.7063 9.06797 10.1769C8.61342 9.86324 7.99064 9.97743 7.67694 10.432C7.36324 10.8865 7.47742 11.5093 7.93197 11.823C9.097 12.627 10.5724 13 11.9993 13C13.4263 13 14.9019 12.627 16.0676 11.8232Z" fill="currentColor"/><path fill-rule="evenodd" clip-rule="evenodd" d="M4.35923 9.62252C4.35923 5.27154 7.95249 2 12.0001 2C16.0474 2 19.6406 5.27157 19.6406 9.62252C19.6406 11.4665 18.8662 13.2611 17.843 14.6139C18.8018 15.3634 19.6254 16.2908 20.2737 17.3467C20.333 17.3092 20.3919 17.2713 20.4502 17.2329C20.9115 16.9293 21.5317 17.0571 21.8353 17.5185C22.1389 17.9798 22.0111 18.5999 21.5498 18.9035C18.867 20.6693 15.407 21.5228 11.9983 21.5228C8.58961 21.5228 5.1306 20.6693 2.44987 18.9033C1.98866 18.5995 1.86108 17.9793 2.1649 17.5181C2.46873 17.0569 3.08891 16.9293 3.55011 17.2331C3.60832 17.2715 3.66702 17.3094 3.72621 17.3468C4.3746 16.2909 5.19808 15.3635 6.15706 14.6139C5.13359 13.2611 4.35923 11.4665 4.35923 9.62252ZM15.8419 15.6587C16.8964 16.2965 17.8057 17.1922 18.4937 18.2723C16.5465 19.0981 14.286 19.5228 11.9983 19.5228C9.71098 19.5228 7.45155 19.0983 5.50593 18.2728C6.19411 17.1924 7.1034 16.2966 8.15818 15.6588C8.42087 15.4999 8.59605 15.2292 8.63334 14.9245C8.67063 14.6198 8.56591 14.3149 8.34928 14.0974C7.24908 12.9927 6.35923 11.2632 6.35923 9.62252C6.35923 6.43144 9.0009 4 12.0001 4C14.9989 4 17.6406 6.43141 17.6406 9.62252C17.6406 11.2632 16.7507 12.9928 15.6508 14.0975C15.4342 14.315 15.3295 14.6199 15.3668 14.9246C15.4041 15.2292 15.5793 15.4999 15.8419 15.6587Z" fill="currentColor"/></g></mask><g mask="url(#yds2-icon-__mask0_1_671)"><rect width="24" height="24" fill="currentColor"/></g></g></g></svg>