<svg width="24" height="24" viewBox="0 0 24 24" fill="none" xmlns="http://www.w3.org/2000/svg"><g><g><mask id="yds2-icon-__mask0_7_129" style="mask-type:alpha" maskUnits="userSpaceOnUse" x="3" y="3" width="18" height="18"><path fill-rule="evenodd" clip-rule="evenodd" d="M12 21C16.9706 21 21 16.9706 21 12C21 7.02944 16.9706 3 12 3C7.02944 3 3 7.02944 3 12C3 16.9706 7.02944 21 12 21ZM15.5 17C15.7761 17 16 16.7761 16 16.5V7.5C16 7.22386 15.7761 7 15.5 7H14.4797C14.2036 7 13.9797 7.22386 13.9797 7.5V13.5934L10.1727 7.24291C10.0823 7.09222 9.91951 7 9.74381 7H8.5C8.22386 7 8 7.22386 8 7.5V16.5C8 16.7761 8.22386 17 8.5 17H9.52703C9.80317 17 10.027 16.7761 10.027 16.5V10.4203L13.8273 16.7572C13.9177 16.9078 14.0805 17 14.2561 17H15.5Z" fill="currentColor"/></mask><g mask="url(#yds2-icon-__mask0_7_129)"><rect width="24" height="24" fill="currentColor"/></g></g></g></svg>