<svg width="24" height="24" viewBox="0 0 24 24" fill="none" xmlns="http://www.w3.org/2000/svg"><g><g><mask id="yds2-icon-__mask0_7_77" style="mask-type:alpha" maskUnits="userSpaceOnUse" x="2" y="3" width="21" height="18"><path fill-rule="evenodd" clip-rule="evenodd" d="M19 16.4994V12.7363C19.0821 12.7453 19.1655 12.75 19.25 12.75H20.25C21.4926 12.75 22.5 11.7426 22.5 10.5C22.5 9.25736 21.4926 8.25 20.25 8.25H19.25C19.1655 8.25 19.0821 8.25466 19 8.26373V4.5C19 4.16818 18.8354 3.85797 18.5606 3.67194C18.2859 3.48591 17.9367 3.44829 17.6286 3.57153C15.2714 4.51441 12.3071 5.13637 7.82143 5.13637C6.15876 5.13637 4.69803 5.64956 3.64183 6.61621C2.57878 7.58912 2 8.95513 2 10.5C2 12.0682 2.627 13.4457 3.78808 14.4141C4.65735 15.1391 5.78067 15.5988 7.07605 15.7781C7.13801 16.3328 7.21945 16.9823 7.31171 17.5797C7.37842 18.0117 7.45343 18.4339 7.53435 18.779C7.57451 18.9504 7.62042 19.1214 7.67347 19.2732C7.71343 19.3875 7.80091 19.6261 7.97384 19.8242C8.10722 19.977 8.28393 20.0857 8.48051 20.1358L11.7532 20.9691C12.0852 21.0536 12.4373 20.9624 12.6864 20.7272C12.9355 20.4921 13.0469 20.1459 12.9817 19.8096C12.8617 19.1906 12.6815 18.2203 12.5318 17.3247C12.4529 16.8532 12.3881 16.4332 12.343 16.1025C14.5208 16.3657 16.4196 16.8278 17.5528 17.3944C17.8628 17.5494 18.2309 17.5329 18.5257 17.3507C18.8205 17.1684 19 16.846 19 16.4994ZM17 15.0277V5.9212C14.9837 6.56615 12.6057 6.98909 9.56087 7.10446C9.46501 7.23729 9.36617 7.40883 9.27114 7.62262C8.96098 8.3205 8.75 9.33718 8.75 10.5C8.75 11.6628 8.96098 12.6795 9.27114 13.3774C9.36349 13.5852 9.45945 13.753 9.55277 13.8842C12.2607 13.9768 14.9947 14.3781 17 15.0277ZM7.84063 13.847C7.46401 12.9342 7.25 11.7574 7.25 10.5C7.25 9.23496 7.46663 8.05149 7.84755 7.13636C7.83884 7.13637 7.83014 7.13637 7.82143 7.13637C6.56743 7.13637 5.61744 7.51928 4.9921 8.09159C4.3736 8.65764 4 9.47345 4 10.5C4 11.5032 4.3849 12.3075 5.06907 12.8781C5.68614 13.3928 6.608 13.7655 7.84063 13.847ZM19.25 11.25C19.1623 11.25 19.0782 11.235 19 11.2073V9.79268C19.0782 9.76504 19.1623 9.75 19.25 9.75H20.25C20.6642 9.75 21 10.0858 21 10.5C21 10.9142 20.6642 11.25 20.25 11.25H19.25ZM10.3063 15.921C9.90734 15.8977 9.50438 15.8812 9.09998 15.8721C9.15347 16.3253 9.21784 16.8183 9.28828 17.2745C9.35187 17.6863 9.41777 18.0505 9.48155 18.3225L9.48262 18.3271L10.7308 18.6449C10.6725 18.3187 10.6139 17.9821 10.5591 17.6545C10.4567 17.042 10.3567 16.3999 10.3063 15.921ZM9.57772 18.6546C9.57772 18.6546 9.5757 18.651 9.5721 18.6419C9.57599 18.6498 9.57772 18.6546 9.57772 18.6546Z" fill="currentColor"/></mask><g mask="url(#yds2-icon-__mask0_7_77)"><rect width="24" height="24" fill="currentColor"/></g></g></g></svg>