<svg xmlns="http://www.w3.org/2000/svg" width="24" height="24" fill="none"><mask id="a" width="20" height="18" x="2" y="4" maskUnits="userSpaceOnUse" style="mask-type:alpha"><g fill="#333"><path fill-rule="evenodd" d="M2 7a3 3 0 0 1 3-3h14a3 3 0 0 1 3 3v3.941c0 .701-.385 1.344-1 1.676v.065A6 6 0 0 1 11.528 20H6a3 3 0 0 1-3-3v-4.383c-.615-.332-1-.975-1-1.676zm18 3.032a2.26 2.26 0 0 1-.816.882A5.97 5.97 0 0 0 16 10h-.016a2.24 2.24 0 0 1-.234-1V6H19a1 1 0 0 1 1 1zM14.25 9c0 .551-.198 1.056-.527 1.447-.485.2-.937.46-1.349.772q-.183.03-.374.031A2.25 2.25 0 0 1 9.75 9V6h4.5zM9 11.25a3.75 3.75 0 0 0 2.038 1.376A5.97 5.97 0 0 0 10 16c0 .701.12 1.374.341 2H6a1 1 0 0 1-1-1v-4.385a3.75 3.75 0 0 0 4-1.365M5 6a1 1 0 0 0-1 1v3.032A2.25 2.25 0 0 0 8.25 9V6zm11 14.5a4.5 4.5 0 1 0 0-9 4.5 4.5 0 0 0 0 9" clip-rule="evenodd"/><path d="M14.5 13.951a.25.25 0 0 1 .383-.212l3.278 2.049a.25.25 0 0 1 0 .424l-3.279 2.049a.25.25 0 0 1-.382-.212z"/></g></mask><g mask="url(#a)"><path fill="#333" d="M0 0h24v24H0z"/></g></svg>