<svg width="24" height="24" viewBox="0 0 24 24" fill="none" xmlns="http://www.w3.org/2000/svg"><g><g><mask id="yds2-icon-__mask0_7_43" style="mask-type:alpha" maskUnits="userSpaceOnUse" x="3" y="3" width="18" height="18"><g><path d="M15.7929 3.79289C16.1834 3.40237 16.8166 3.40237 17.2071 3.79289L20.2071 6.79289C20.5976 7.18342 20.5976 7.81658 20.2071 8.20711L17.2071 11.2071C16.8166 11.5976 16.1834 11.5976 15.7929 11.2071C15.4024 10.8166 15.4024 10.1834 15.7929 9.79289L17.0559 8.52984C15.8785 8.60994 15.0652 8.85062 14.5289 9.24391C13.934 9.68015 13.5 10.4447 13.5 12C13.5 12.5523 13.0523 13 12.5 13C11.9477 13 11.5 12.5523 11.5 12C11.5 10.0553 12.066 8.56985 13.3461 7.63109C14.3496 6.89525 15.6602 6.6008 17.1085 6.5227L15.7929 5.20711C15.4024 4.81658 15.4024 4.18342 15.7929 3.79289Z" fill="currentColor"/><path d="M6.5 3.5C4.84315 3.5 3.5 4.84315 3.5 6.5V17.5C3.5 19.1569 4.84315 20.5 6.5 20.5H17.5C19.1569 20.5 20.5 19.1569 20.5 17.5V13.5C20.5 12.9477 20.0523 12.5 19.5 12.5C18.9477 12.5 18.5 12.9477 18.5 13.5V17.5C18.5 18.0523 18.0523 18.5 17.5 18.5H6.5C5.94772 18.5 5.5 18.0523 5.5 17.5V6.5C5.5 5.94772 5.94772 5.5 6.5 5.5H11.5C12.0523 5.5 12.5 5.05228 12.5 4.5C12.5 3.94772 12.0523 3.5 11.5 3.5H6.5Z" fill="currentColor"/></g></mask><g mask="url(#yds2-icon-__mask0_7_43)"><rect width="24" height="24" fill="currentColor"/></g></g></g></svg>