<svg width="24" height="24" viewBox="0 0 24 24" fill="none" xmlns="http://www.w3.org/2000/svg"><g><g><mask id="yds2-icon-__mask0_7_89" style="mask-type:alpha" maskUnits="userSpaceOnUse" x="2" y="4" width="20" height="18"><g><path fill-rule="evenodd" clip-rule="evenodd" d="M2 7C2 5.34315 3.34315 4 5 4H19C20.6569 4 22 5.34315 22 7V10.941C22 11.6425 21.6146 12.2854 21 12.617V12.6822C21.6318 13.6325 22 14.7733 22 16C22 19.3137 19.3137 22 16 22C14.223 22 12.6264 21.2275 11.5278 20H6C4.34315 20 3 18.6569 3 17V12.617C2.38542 12.2854 2 11.6425 2 10.941V7ZM20 10.0318C19.8126 10.3944 19.5295 10.6994 19.1841 10.9136C18.2613 10.3347 17.1697 10 16 10L15.9839 10C15.8342 9.69878 15.75 9.35922 15.75 9V6H19C19.5523 6 20 6.44772 20 7V10.0318ZM14.25 9C14.25 9.55113 14.0518 10.056 13.7229 10.4472C13.2383 10.6461 12.7855 10.9066 12.3742 11.219C12.2525 11.2394 12.1275 11.25 12 11.25C10.7574 11.25 9.75 10.2426 9.75 9V6H14.25V9ZM9 11.2504C9.49873 11.9142 10.2126 12.4071 11.0382 12.6255C10.383 13.587 10 14.7488 10 16C10 16.7013 10.1203 17.3744 10.3414 18H6C5.44772 18 5 17.5523 5 17V12.6152C5.31836 12.7031 5.6537 12.75 6 12.75C7.2267 12.75 8.31583 12.161 9 11.2504ZM5 6C4.44772 6 4 6.44772 4 7V10.0318C4.37406 10.7554 5.12927 11.25 6 11.25C7.24264 11.25 8.25 10.2426 8.25 9V6H5ZM16 20.5C18.4853 20.5 20.5 18.4853 20.5 16C20.5 13.5147 18.4853 11.5 16 11.5C13.5147 11.5 11.5 13.5147 11.5 16C11.5 18.4853 13.5147 20.5 16 20.5Z" fill="currentColor"/><path d="M14.5 13.9511C14.5 13.7547 14.716 13.635 14.8825 13.7391L18.1608 15.788C18.3175 15.8859 18.3175 16.1141 18.1608 16.212L14.8825 18.2609C14.716 18.365 14.5 18.2453 14.5 18.0489V13.9511Z" fill="currentColor"/></g></mask><g mask="url(#yds2-icon-__mask0_7_89)"><rect width="24" height="24" fill="currentColor"/></g></g></g></svg>