<svg width="24" height="24" viewBox="0 0 24 24" fill="none" xmlns="http://www.w3.org/2000/svg"><g><g><mask id="yds2-icon-__mask0_7_133" style="mask-type:alpha" maskUnits="userSpaceOnUse" x="2" y="3" width="20" height="19"><path fill-rule="evenodd" clip-rule="evenodd" d="M19 3C20.6569 3 22 4.34315 22 6V9C22 10.6569 20.6569 12 19 12V18.6315C19 20.2289 17.2197 21.1817 15.8906 20.2956L15 19.7019L13.1094 20.9622C12.4376 21.4101 11.5624 21.4101 10.8906 20.9622L9 19.7019L8.1094 20.2956C6.78029 21.1817 5 20.2289 5 18.6315V12C3.34315 12 2 10.6569 2 9V6C2 4.34315 3.34315 3 5 3H19ZM5 10V8.5C5 7.39543 5.89543 6.5 7 6.5H17C18.1046 6.5 19 7.39543 19 8.5V10C19.5523 10 20 9.55228 20 9V6C20 5.44772 19.5523 5 19 5H5C4.44772 5 4 5.44772 4 6V9C4 9.55228 4.44772 10 5 10ZM9 11.25C9 10.8358 9.33579 10.5 9.75 10.5H12.25C12.6642 10.5 13 10.8358 13 11.25C13 11.6642 12.6642 12 12.25 12H9.75C9.33579 12 9 11.6642 9 11.25ZM9 14.25C9 13.8358 9.33579 13.5 9.75 13.5H14.25C14.6642 13.5 15 13.8358 15 14.25C15 14.6642 14.6642 15 14.25 15H9.75C9.33579 15 9 14.6642 9 14.25Z" fill="currentColor"/></mask><g mask="url(#yds2-icon-__mask0_7_133)"><rect width="24" height="24" fill="currentColor"/></g></g></g></svg>