<svg xmlns="http://www.w3.org/2000/svg" width="24" height="24" fill="none"><mask id="a" width="18" height="18" x="3" y="3" maskUnits="userSpaceOnUse" style="mask-type:alpha"><g fill="#333"><path d="M15.793 3.793a1 1 0 0 1 1.414 0l3 3a1 1 0 0 1 0 1.414l-3 3a1 1 0 0 1-1.414-1.414l1.263-1.263c-1.178.08-1.99.32-2.527.714-.595.436-1.029 1.2-1.029 2.756a1 1 0 1 1-2 0c0-1.945.566-3.43 1.846-4.369 1.004-.736 2.314-1.03 3.762-1.108l-1.315-1.316a1 1 0 0 1 0-1.414"/><path d="M6.5 3.5a3 3 0 0 0-3 3v11a3 3 0 0 0 3 3h11a3 3 0 0 0 3-3v-4a1 1 0 1 0-2 0v4a1 1 0 0 1-1 1h-11a1 1 0 0 1-1-1v-11a1 1 0 0 1 1-1h5a1 1 0 1 0 0-2z"/></g></mask><g mask="url(#a)"><path fill="#333" d="M0 0h24v24H0z"/></g></svg>