<svg xmlns="http://www.w3.org/2000/svg" width="24" height="24" fill="none"><mask id="a" width="20" height="19" x="2" y="3" maskUnits="userSpaceOnUse" style="mask-type:alpha"><g fill="#333"><path d="M9 11.25a.75.75 0 0 1 .75-.75h2.5a.75.75 0 0 1 0 1.5h-2.5a.75.75 0 0 1-.75-.75M9.75 13.5a.75.75 0 0 0 0 1.5h4.5a.75.75 0 0 0 0-1.5z"/><path fill-rule="evenodd" d="M19 3a3 3 0 0 1 3 3v3a3 3 0 0 1-3 3v6.631c0 1.598-1.78 2.55-3.11 1.665l-.89-.594-1.89 1.26a2 2 0 0 1-2.22 0L9 19.702l-.89.594C6.78 21.182 5 20.229 5 18.63V12a3 3 0 0 1-3-3V6a3 3 0 0 1 3-3zM5 10V8.5a2 2 0 0 1 2-2h10a2 2 0 0 1 2 2V10a1 1 0 0 0 1-1V6a1 1 0 0 0-1-1H5a1 1 0 0 0-1 1v3a1 1 0 0 0 1 1m2-1.5h10v10.131l-.89-.593a2 2 0 0 0-2.22 0L12 19.298l-1.89-1.26a2 2 0 0 0-2.22 0L7 18.63z" clip-rule="evenodd"/></g></mask><g mask="url(#a)"><path fill="#333" d="M0 0h24v24H0z"/></g></svg>