<svg xmlns="http://www.w3.org/2000/svg" width="24" height="24" fill="none"><mask id="a" width="18" height="18" x="3" y="3" maskUnits="userSpaceOnUse" style="mask-type:alpha"><g fill="#333"><path d="M9 10.5a1.5 1.5 0 1 0 0-3 1.5 1.5 0 0 0 0 3"/><path fill-rule="evenodd" d="M3.5 6.5a3 3 0 0 1 3-3h11a3 3 0 0 1 3 3v11a3 3 0 0 1-3 3h-11a3 3 0 0 1-3-3zm3-1a1 1 0 0 0-1 1v11a1 1 0 0 0 1 1h2.512A10 10 0 0 1 18.5 9.012V6.5a1 1 0 0 0-1-1zm11 13h-6.485a8 8 0 0 1 7.485-7.485V17.5a1 1 0 0 1-1 1" clip-rule="evenodd"/></g></mask><g mask="url(#a)"><path fill="#333" d="M0 0h24v24H0z"/></g></svg>