<svg width="24" height="24" viewBox="0 0 24 24" fill="none" xmlns="http://www.w3.org/2000/svg"><g><g><mask id="yds2-icon-__mask0_7_76" style="mask-type:alpha" maskUnits="userSpaceOnUse" x="2" y="2" width="20" height="20"><g><path fill-rule="evenodd" clip-rule="evenodd" d="M11.0977 13.2548H12.2972C12.8093 13.2548 13.2481 13.1651 13.6134 12.9856C13.9818 12.8061 14.2633 12.5513 14.458 12.2212C14.6527 11.891 14.75 11.5 14.75 11.0481C14.75 10.6026 14.6527 10.2067 14.458 9.86058C14.2633 9.51442 13.9818 9.24359 13.6134 9.04808C13.2481 8.84936 12.8093 8.75 12.2972 8.75H9.75V15.75H11.0977V13.2548ZM11.0977 12.1298V9.87981H12.2972C12.5547 9.87981 12.7644 9.93429 12.9261 10.0433C13.0878 10.1522 13.2061 10.2965 13.281 10.476C13.3559 10.6554 13.3933 10.8494 13.3933 11.0577C13.3933 11.2628 13.3559 11.4471 13.281 11.6106C13.2061 11.774 13.0878 11.9022 12.9261 11.9952C12.7644 12.0849 12.5547 12.1298 12.2972 12.1298H11.0977Z" fill="currentColor"/><path fill-rule="evenodd" clip-rule="evenodd" d="M5.25 12C5.25 8.27208 8.27208 5.25 12 5.25C15.7279 5.25 18.75 8.27208 18.75 12C18.75 15.7279 15.7279 18.75 12 18.75C8.27208 18.75 5.25 15.7279 5.25 12ZM12 6.75C9.1005 6.75 6.75 9.1005 6.75 12C6.75 14.8995 9.1005 17.25 12 17.25C14.8995 17.25 17.25 14.8995 17.25 12C17.25 9.1005 14.8995 6.75 12 6.75Z" fill="currentColor"/><path fill-rule="evenodd" clip-rule="evenodd" d="M2.5 12C2.5 6.75329 6.75329 2.5 12 2.5C17.2467 2.5 21.5 6.75329 21.5 12C21.5 17.2467 17.2467 21.5 12 21.5C6.75329 21.5 2.5 17.2467 2.5 12ZM12 4.5C7.85786 4.5 4.5 7.85786 4.5 12C4.5 16.1421 7.85786 19.5 12 19.5C16.1421 19.5 19.5 16.1421 19.5 12C19.5 7.85786 16.1421 4.5 12 4.5Z" fill="currentColor"/></g></mask><g mask="url(#yds2-icon-__mask0_7_76)"><rect width="24" height="24" fill="currentColor"/></g></g></g></svg>