<svg width="24" height="24" viewBox="0 0 24 24" fill="none" xmlns="http://www.w3.org/2000/svg"><g><g><mask id="yds2-icon-__mask0_7_92" style="mask-type:alpha" maskUnits="userSpaceOnUse" x="3" y="3" width="18" height="18"><g><path d="M9 10.5C9.82843 10.5 10.5 9.82843 10.5 9C10.5 8.17157 9.82843 7.5 9 7.5C8.17157 7.5 7.5 8.17157 7.5 9C7.5 9.82843 8.17157 10.5 9 10.5Z" fill="currentColor"/><path fill-rule="evenodd" clip-rule="evenodd" d="M3.5 6.5C3.5 4.84315 4.84315 3.5 6.5 3.5H17.5C19.1569 3.5 20.5 4.84315 20.5 6.5V17.5C20.5 19.1569 19.1569 20.5 17.5 20.5H6.5C4.84315 20.5 3.5 19.1569 3.5 17.5V6.5ZM6.5 5.5C5.94772 5.5 5.5 5.94772 5.5 6.5V17.5C5.5 18.0523 5.94772 18.5 6.5 18.5H9.01228C9.26464 13.3751 13.3751 9.26464 18.5 9.01228V6.5C18.5 5.94772 18.0523 5.5 17.5 5.5H6.5ZM17.5 18.5H11.0154C11.2633 14.48 14.48 11.2633 18.5 11.0154V17.5C18.5 18.0523 18.0523 18.5 17.5 18.5Z" fill="currentColor"/></g></mask><g mask="url(#yds2-icon-__mask0_7_92)"><rect width="24" height="24" fill="currentColor"/></g></g></g></svg>