<svg xmlns="http://www.w3.org/2000/svg" width="24" height="24" fill="none"><mask id="a" width="20" height="20" x="2" y="2" maskUnits="userSpaceOnUse" style="mask-type:alpha"><g fill="#333" fill-rule="evenodd" clip-rule="evenodd"><path d="M11.098 13.255h1.2q.767 0 1.315-.27.553-.269.845-.764t.292-1.173a2.4 2.4 0 0 0-.292-1.187 2.04 2.04 0 0 0-.845-.813q-.548-.298-1.316-.298H9.75v7h1.348zm0-1.125V9.88h1.2q.385 0 .628.163.243.165.355.433.112.27.112.582 0 .308-.112.553a.84.84 0 0 1-.355.384q-.242.135-.629.135z"/><path d="M5.25 12a6.75 6.75 0 1 1 13.5 0 6.75 6.75 0 0 1-13.5 0M12 6.75a5.25 5.25 0 1 0 0 10.5 5.25 5.25 0 0 0 0-10.5"/><path d="M2.5 12a9.5 9.5 0 1 1 19 0 9.5 9.5 0 0 1-19 0M12 4.5a7.5 7.5 0 1 0 0 15 7.5 7.5 0 0 0 0-15"/></g></mask><g mask="url(#a)"><path fill="#333" d="M0 0h24v24H0z"/></g></svg>