<svg width="24" height="24" viewBox="0 0 24 24" fill="none" xmlns="http://www.w3.org/2000/svg"><g><g><mask id="yds2-icon-__mask0_7_73" style="mask-type:alpha" maskUnits="userSpaceOnUse" x="3" y="3" width="18" height="18"><path fill-rule="evenodd" clip-rule="evenodd" d="M3.50439 5.5696C3.42722 4.397 4.38409 3.5 5.47297 3.5H7.00514C8.13192 3.5 8.95947 4.40196 9.04884 5.41424C9.10901 6.09574 9.2358 6.75738 9.42178 7.39654C9.62288 8.08765 9.46705 8.87818 8.91513 9.4301L7.16273 11.1825C8.45899 13.5711 10.4289 15.541 12.8175 16.8373L14.5732 15.0816C15.1212 14.5336 15.9069 14.3744 16.5975 14.5734C17.2415 14.7591 17.9059 14.8884 18.588 14.9501C19.5982 15.0415 20.5 15.8679 20.5 16.9949V18.5271C20.5 19.6159 19.603 20.5728 18.4304 20.4956C10.4272 19.9689 4.03108 13.5728 3.50439 5.5696ZM14.7758 17.7125C15.9515 18.1328 17.1996 18.4005 18.4964 18.4919V16.9949C18.4964 16.9938 18.4965 16.9946 18.4965 16.9945C18.4961 16.9936 18.4937 16.9884 18.4864 16.981C18.4703 16.9644 18.4422 16.9487 18.4075 16.9456C17.591 16.8717 16.8012 16.7174 16.0425 16.4987C16.0229 16.493 16.0067 16.4939 15.9969 16.4962C15.9927 16.4972 15.9905 16.4982 15.9896 16.4988L14.7758 17.7125ZM6.28748 9.22422L7.49794 8.01376C7.49852 8.01273 7.49962 8.0103 7.5007 8.00572C7.5032 7.99514 7.50412 7.97749 7.49796 7.95632C7.27645 7.19506 7.12491 6.40503 7.053 5.59044C7.04999 5.55642 7.03466 5.52899 7.01851 5.51327C7.01162 5.50657 7.0068 5.50415 7.0056 5.50361C7.00547 5.50361 7.00532 5.50361 7.00514 5.50361H5.50814C5.59954 6.80042 5.86726 8.04857 6.28748 9.22422ZM7.49752 8.01437C7.49752 8.01434 7.49764 8.01415 7.49788 8.01386L7.49752 8.01437Z" fill="currentColor"/></mask><g mask="url(#yds2-icon-__mask0_7_73)"><rect width="24" height="24" fill="currentColor"/></g></g></g></svg>