<svg width="24" height="24" viewBox="0 0 24 24" fill="none" xmlns="http://www.w3.org/2000/svg"><g><g><mask id="yds2-icon-__mask0_1_759" style="mask-type:alpha" maskUnits="userSpaceOnUse" x="2" y="2" width="19" height="20"><g><path d="M9 11C9 11.4142 9.33579 11.75 9.75 11.75L16.25 11.75C16.6642 11.75 17 11.4142 17 11C17 10.5858 16.6642 10.25 16.25 10.25L9.75 10.25C9.33579 10.25 9 10.5858 9 11Z" fill="currentColor"/><path d="M9.75 8.74998C9.33579 8.74998 9 8.41419 9 7.99998C9 7.58576 9.33579 7.24998 9.75 7.24998L12.25 7.24998C12.6642 7.24998 13 7.58576 13 7.99998C13 8.41419 12.6642 8.74998 12.25 8.74998L9.75 8.74998Z" fill="currentColor"/><path fill-rule="evenodd" clip-rule="evenodd" d="M17.5 21.25H6C4.067 21.25 2.5 19.683 2.5 17.75C2.5 16.1645 3.55426 14.8252 5 14.3949V5.75C5 4.09315 6.34315 2.75 8 2.75L18 2.75C19.6569 2.75 21 4.09315 21 5.75L21 17.75C21 19.683 19.433 21.25 17.5 21.25ZM19 5.75V17.75C19 18.5784 18.3284 19.25 17.5 19.25C16.6716 19.25 16 18.5784 16 17.75C16 16.9215 16.6716 16.25 17.5 16.25C18.0523 16.25 18.5 15.8023 18.5 15.25C18.5 14.6977 18.0523 14.25 17.5 14.25H7V5.75C7 5.19772 7.44772 4.75 8 4.75L18 4.75C18.5523 4.75 19 5.19772 19 5.75ZM14.3368 16.25H6C5.17157 16.25 4.5 16.9215 4.5 17.75C4.5 18.5784 5.17157 19.25 6 19.25H14.3368C14.1208 18.7953 14 18.2868 14 17.75C14 17.2132 14.1208 16.7046 14.3368 16.25Z" fill="currentColor"/></g></mask><g mask="url(#yds2-icon-__mask0_1_759)"><rect width="24" height="24" fill="currentColor"/></g></g></g></svg>