<svg width="24" height="24" viewBox="0 0 24 24" fill="none" xmlns="http://www.w3.org/2000/svg"><g><g><mask id="yds2-icon-__mask0_7_46" style="mask-type:alpha" maskUnits="userSpaceOnUse" x="2" y="3" width="20" height="19"><g><path d="M7.20253 11.4333C7.23243 11.4179 7.26757 11.4179 7.29747 11.4333L8.37716 11.9882C8.45568 12.0286 8.54515 11.9592 8.52951 11.87L8.32625 10.7114C8.31974 10.6743 8.33204 10.6363 8.35885 10.6108L9.21556 9.79435C9.28178 9.73125 9.24706 9.617 9.15782 9.60432L7.96323 9.43462C7.92902 9.42976 7.89921 9.40808 7.88325 9.37645L7.3445 8.30919C7.30466 8.23027 7.19534 8.23027 7.1555 8.30919L6.61675 9.37645C6.60079 9.40808 6.57098 9.42976 6.53677 9.43462L5.34218 9.60432C5.25294 9.617 5.21822 9.73125 5.28443 9.79435L6.14115 10.6108C6.16796 10.6363 6.18026 10.6743 6.17376 10.7114L5.97049 11.87C5.95485 11.9592 6.04432 12.0286 6.12284 11.9882L7.20253 11.4333Z" fill="currentColor"/><path d="M11.9525 11.4333C11.9824 11.4179 12.0176 11.4179 12.0475 11.4333L13.1272 11.9882C13.2057 12.0286 13.2951 11.9592 13.2795 11.87L13.0762 10.7114C13.0697 10.6743 13.082 10.6363 13.1089 10.6108L13.9656 9.79435C14.0318 9.73125 13.9971 9.617 13.9078 9.60432L12.7132 9.43462C12.679 9.42976 12.6492 9.40808 12.6332 9.37645L12.0945 8.30919C12.0547 8.23027 11.9453 8.23027 11.9055 8.30919L11.3668 9.37645C11.3508 9.40808 11.321 9.42976 11.2868 9.43462L10.0922 9.60432C10.0029 9.617 9.96822 9.73125 10.0344 9.79435L10.8911 10.6108C10.918 10.6363 10.9303 10.6743 10.9238 10.7114L10.7205 11.87C10.7049 11.9592 10.7943 12.0286 10.8728 11.9882L11.9525 11.4333Z" fill="currentColor"/><path d="M16.7975 11.4333C16.7676 11.4179 16.7324 11.4179 16.7025 11.4333L15.6228 11.9882C15.5443 12.0286 15.4549 11.9592 15.4705 11.87L15.6738 10.7114C15.6803 10.6743 15.668 10.6363 15.6411 10.6108L14.7844 9.79435C14.7182 9.73125 14.7529 9.617 14.8422 9.60432L16.0368 9.43462C16.071 9.42976 16.1008 9.40808 16.1168 9.37645L16.6555 8.30919C16.6953 8.23027 16.8047 8.23027 16.8445 8.30919L17.3832 9.37645C17.3992 9.40808 17.429 9.42976 17.4632 9.43462L18.6578 9.60432C18.7471 9.617 18.7818 9.73125 18.7156 9.79435L17.8589 10.6108C17.832 10.6363 17.8197 10.6743 17.8262 10.7114L18.0295 11.87C18.0451 11.9592 17.9557 12.0286 17.8772 11.9882L16.7975 11.4333Z" fill="currentColor"/><path fill-rule="evenodd" clip-rule="evenodd" d="M5 3C3.34315 3 2 4.34315 2 6V14.5C2 16.1569 3.34315 17.5 5 17.5H7V19.9449C7 21.2103 8.47046 21.9071 9.44986 21.1058L13.857 17.5H19C20.6569 17.5 22 16.1569 22 14.5V6C22 4.34315 20.6569 3 19 3H5ZM4 6C4 5.44772 4.44772 5 5 5H19C19.5523 5 20 5.44772 20 6V14.5C20 15.0523 19.5523 15.5 19 15.5H13.5C13.2692 15.5 13.0454 15.5799 12.8668 15.726L9 18.8898V16.5C9 15.9477 8.55228 15.5 8 15.5H5C4.44772 15.5 4 15.0523 4 14.5V6Z" fill="currentColor"/></g></mask><g mask="url(#yds2-icon-__mask0_7_46)"><rect width="24" height="24" fill="currentColor"/></g></g></g></svg>