<svg width="24" height="24" viewBox="0 0 24 24" fill="none" xmlns="http://www.w3.org/2000/svg"><g><g><mask id="yds2-icon-__mask0_1_840" style="mask-type:alpha" maskUnits="userSpaceOnUse" x="3" y="3" width="18" height="18"><path d="M20.5 4C20.5 3.44772 20.0523 3 19.5 3C18.9477 3 18.5 3.44772 18.5 4V6.52277C16.9414 4.67495 14.6085 3.5 12 3.5C7.30558 3.5 3.5 7.30558 3.5 12C3.5 16.6944 7.30558 20.5 12 20.5C15.4871 20.5 18.4816 18.4003 19.7923 15.4004C20.0134 14.8943 19.7824 14.3048 19.2763 14.0836C18.7702 13.8625 18.1807 14.0935 17.9596 14.5996C16.9556 16.8974 14.6639 18.5 12 18.5C8.41015 18.5 5.5 15.5899 5.5 12C5.5 8.41015 8.41015 5.5 12 5.5C14.0803 5.5 15.9338 6.4774 17.1241 8H14.5C13.9477 8 13.5 8.44772 13.5 9C13.5 9.55228 13.9477 10 14.5 10H18.854C18.8689 10.0003 18.8839 10.0003 18.8989 10H19.5C20.0523 10 20.5 9.55228 20.5 9V4Z" fill="currentColor"/></mask><g mask="url(#yds2-icon-__mask0_1_840)"><rect width="24" height="24" fill="currentColor"/></g></g></g></svg>