<svg xmlns="http://www.w3.org/2000/svg" width="24" height="24" fill="none"><mask id="a" width="19" height="20" x="2" y="2" maskUnits="userSpaceOnUse" style="mask-type:alpha"><g fill="#333"><path d="M9 11c0 .414.336.75.75.75h6.5a.75.75 0 0 0 0-1.5h-6.5A.75.75 0 0 0 9 11M9.75 8.75a.75.75 0 0 1 0-1.5h2.5a.75.75 0 0 1 0 1.5z"/><path fill-rule="evenodd" d="M17.5 21.25H6a3.5 3.5 0 0 1-1-6.855V5.75a3 3 0 0 1 3-3h10a3 3 0 0 1 3 3v12a3.5 3.5 0 0 1-3.5 3.5M19 5.75v12a1.5 1.5 0 1 1-1.5-1.5 1 1 0 1 0 0-2H7v-8.5a1 1 0 0 1 1-1h10a1 1 0 0 1 1 1m-4.663 10.5H6a1.5 1.5 0 1 0 0 3h8.337a3.5 3.5 0 0 1-.337-1.5c0-.537.12-1.045.337-1.5" clip-rule="evenodd"/></g></mask><g mask="url(#a)"><path fill="#333" d="M0 0h24v24H0z"/></g></svg>