<svg xmlns="http://www.w3.org/2000/svg" width="24" height="24" fill="none"><mask id="a" width="20" height="18" x="2" y="4" maskUnits="userSpaceOnUse" style="mask-type:alpha"><g fill="#333" fill-rule="evenodd" clip-rule="evenodd"><path d="M7 6C5.839 6 4.5 7.319 4.5 9.5S5.839 13 7 13s2.5-1.319 2.5-3.5S8.161 6 7 6M2.5 9.5C2.5 6.71 4.295 4 7 4s4.5 2.71 4.5 5.5S9.705 15 7 15s-4.5-2.71-4.5-5.5M13.5 4.5a1 1 0 0 1 1 1V10c0 1.787 1.24 3 2.5 3s2.5-1.213 2.5-3V5.5a1 1 0 1 1 2 0V10c0 2.632-1.893 5-4.5 5s-4.5-2.368-4.5-5V5.5a1 1 0 0 1 1-1"/><path d="M7 14a1 1 0 0 1 1 1v6a1 1 0 1 1-2 0v-6a1 1 0 0 1 1-1M17 13a1 1 0 0 1 1 1v7a1 1 0 1 1-2 0v-7a1 1 0 0 1 1-1M17 4.5a1 1 0 0 1 1 1v5a1 1 0 1 1-2 0v-5a1 1 0 0 1 1-1"/></g></mask><g mask="url(#a)"><path fill="#333" d="M0 1h24v24H0z"/></g></svg>