<svg width="24" height="24" viewBox="0 0 24 24" fill="none" xmlns="http://www.w3.org/2000/svg"><g><g><mask id="yds2-icon-__mask0_1_896" style="mask-type:alpha" maskUnits="userSpaceOnUse" x="2" y="2" width="20" height="20"><path fill-rule="evenodd" clip-rule="evenodd" d="M17.5 10.5C16.2472 10.5 15.129 9.92408 14.3955 9.02256L10.434 11.2725C10.4774 11.5084 10.5 11.7516 10.5 12C10.5 12.2419 10.4785 12.4787 10.4374 12.7088L14.407 14.9634C15.1406 14.0699 16.2538 13.5 17.5 13.5C19.7091 13.5 21.5 15.2909 21.5 17.5C21.5 19.7091 19.7091 21.5 17.5 21.5C15.2909 21.5 13.5 19.7091 13.5 17.5C13.5 17.2558 13.5219 17.0167 13.5638 16.7845L9.59711 14.5316C8.86357 15.4279 7.74859 16 6.5 16C4.29086 16 2.5 14.2091 2.5 12C2.5 9.79086 4.29086 8 6.5 8C7.74205 8 8.85188 8.5661 9.58555 9.45436L13.5605 7.19677C13.5207 6.97049 13.5 6.73767 13.5 6.5C13.5 4.29086 15.2909 2.5 17.5 2.5C19.7091 2.5 21.5 4.29086 21.5 6.5C21.5 8.70914 19.7091 10.5 17.5 10.5ZM17.5 8.5C16.7031 8.5 16.015 8.0339 15.6936 7.35945C15.6765 7.30827 15.6551 7.25785 15.6292 7.20867C15.5457 6.9884 15.5 6.74954 15.5 6.5C15.5 5.39543 16.3954 4.5 17.5 4.5C18.6046 4.5 19.5 5.39543 19.5 6.5C19.5 7.60457 18.6046 8.5 17.5 8.5ZM6.5 14C5.39543 14 4.5 13.1046 4.5 12C4.5 10.8954 5.39543 10 6.5 10C7.60457 10 8.5 10.8954 8.5 12C8.5 13.1046 7.60457 14 6.5 14ZM15.5 17.5C15.5 18.6046 16.3954 19.5 17.5 19.5C18.6046 19.5 19.5 18.6046 19.5 17.5C19.5 16.3954 18.6046 15.5 17.5 15.5C16.3954 15.5 15.5 16.3954 15.5 17.5Z" fill="currentColor"/></mask><g mask="url(#yds2-icon-__mask0_1_896)"><rect width="24" height="24" fill="currentColor"/></g></g></g></svg>