<svg xmlns="http://www.w3.org/2000/svg" width="24" height="24" fill="none"><mask id="a" width="18" height="20" x="3" y="2" maskUnits="userSpaceOnUse" style="mask-type:alpha"><g fill="#333"><path d="M15.222 21.278a1.1 1.1 0 0 0 1.556 0l3.5-3.5a1.1 1.1 0 0 0-1.556-1.556L17.1 17.844V3.5a1.1 1.1 0 0 0-2.2 0v14.344l-1.622-1.622a1.1 1.1 0 0 0-1.556 1.556zM8.778 2.722a1.1 1.1 0 0 0-1.556 0l-3.5 3.5a1.1 1.1 0 0 0 1.556 1.556L6.9 6.156V20.5a1.1 1.1 0 0 0 2.2 0V6.156l1.622 1.622a1.1 1.1 0 1 0 1.556-1.556z"/></g></mask><g mask="url(#a)"><path fill="#333" d="M0 0h24v24H0z"/></g></svg>