<svg width="24" height="24" viewBox="0 0 24 24" fill="none" xmlns="http://www.w3.org/2000/svg"><g><g><mask id="yds2-icon-__mask0_1747_19" style="mask-type:alpha" maskUnits="userSpaceOnUse" x="2" y="4" width="20" height="18"><g><path fill-rule="evenodd" clip-rule="evenodd" d="M7 6C5.83861 6 4.5 7.31856 4.5 9.5C4.5 11.6814 5.83861 13 7 13C8.16139 13 9.5 11.6814 9.5 9.5C9.5 7.31856 8.16139 6 7 6ZM2.5 9.5C2.5 6.71088 4.2954 4 7 4C9.7046 4 11.5 6.71088 11.5 9.5C11.5 12.2891 9.7046 15 7 15C4.2954 15 2.5 12.2891 2.5 9.5Z" fill="currentColor"/><path fill-rule="evenodd" clip-rule="evenodd" d="M13.5 4.5C14.0523 4.5 14.5 4.94772 14.5 5.5V10C14.5 11.7865 15.7405 13 17 13C18.2595 13 19.5 11.7865 19.5 10V5.5C19.5 4.94772 19.9477 4.5 20.5 4.5C21.0523 4.5 21.5 4.94772 21.5 5.5V10C21.5 12.6318 19.6065 15 17 15C14.3935 15 12.5 12.6318 12.5 10V5.5C12.5 4.94772 12.9477 4.5 13.5 4.5Z" fill="currentColor"/><path fill-rule="evenodd" clip-rule="evenodd" d="M7 14C7.55228 14 8 14.4477 8 15V21C8 21.5523 7.55228 22 7 22C6.44772 22 6 21.5523 6 21V15C6 14.4477 6.44772 14 7 14Z" fill="currentColor"/><path fill-rule="evenodd" clip-rule="evenodd" d="M17 13C17.5523 13 18 13.4477 18 14V21C18 21.5523 17.5523 22 17 22C16.4477 22 16 21.5523 16 21V14C16 13.4477 16.4477 13 17 13Z" fill="currentColor"/><path fill-rule="evenodd" clip-rule="evenodd" d="M17 4.5C17.5523 4.5 18 4.94772 18 5.5V10.5C18 11.0523 17.5523 11.5 17 11.5C16.4477 11.5 16 11.0523 16 10.5V5.5C16 4.94772 16.4477 4.5 17 4.5Z" fill="currentColor"/></g></mask><g mask="url(#yds2-icon-__mask0_1747_19)"><rect y="1" width="24" height="24" fill="currentColor"/></g></g></g></svg>