<svg width="24" height="24" viewBox="0 0 24 24" fill="none" xmlns="http://www.w3.org/2000/svg"><g><g><mask id="yds2-icon-__mask0_1_621" style="mask-type:alpha" maskUnits="userSpaceOnUse" x="2" y="2" width="20" height="19"><path fill-rule="evenodd" clip-rule="evenodd" d="M11 4C7.13401 4 4 7.13401 4 11C4 14.866 7.13401 18 11 18C13.2101 18 15.1806 16.9769 16.4651 15.3745C17.4259 14.1759 18 12.6564 18 11C18 7.13401 14.866 4 11 4ZM2 11C2 6.02944 6.02944 2 11 2C15.9706 2 20 6.02944 20 11C20 12.7821 19.4812 14.4449 18.5868 15.8434L21.6335 18.5022C22.0496 18.8654 22.0925 19.4971 21.7294 19.9132C21.3663 20.3293 20.7346 20.3723 20.3185 20.0091L17.3282 17.3995C15.7033 19.0062 13.4675 20 11 20C6.02944 20 2 15.9706 2 11Z" fill="currentColor"/></mask><g mask="url(#yds2-icon-__mask0_1_621)"><path d="M0 0H24V24H0V0Z" fill="currentColor"/></g></g></g></svg>