<svg width="24" height="24" viewBox="0 0 24 24" fill="none" xmlns="http://www.w3.org/2000/svg"><g><g><mask id="yds2-icon-__mask0_7_48" style="mask-type:alpha" maskUnits="userSpaceOnUse" x="2" y="4" width="20" height="16"><path fill-rule="evenodd" clip-rule="evenodd" d="M5 4C3.34315 4 2 5.34315 2 7V10.941C2 11.6425 2.38542 12.2854 3 12.617V17C3 18.6569 4.34315 20 6 20H18C19.6569 20 21 18.6569 21 17V12.617C21.6146 12.2854 22 11.6425 22 10.941V7C22 5.34315 20.6569 4 19 4H5ZM4 7C4 6.44772 4.44772 6 5 6H8.25V9C8.25 10.2426 7.24264 11.25 6 11.25C5.12927 11.25 4.37406 10.7554 4 10.0318V7ZM5 12.6152V17C5 17.5523 5.44772 18 6 18H9.25L9.25 17C9.25 15.4812 10.4812 14.25 12 14.25C13.5188 14.25 14.75 15.4812 14.75 17V18H18C18.5523 18 19 17.5523 19 17V12.6152C18.6816 12.7031 18.3463 12.75 18 12.75C16.7733 12.75 15.6842 12.161 15 11.2504C14.3158 12.161 13.2267 12.75 12 12.75C10.7733 12.75 9.68417 12.161 9 11.2504C8.31583 12.161 7.2267 12.75 6 12.75C5.6537 12.75 5.31836 12.7031 5 12.6152ZM20 10.0318V7C20 6.44772 19.5523 6 19 6H15.75V9C15.75 10.2426 16.7574 11.25 18 11.25C18.8707 11.25 19.6259 10.7554 20 10.0318ZM14.25 6H9.75V9C9.75 10.2426 10.7574 11.25 12 11.25C13.2426 11.25 14.25 10.2426 14.25 9V6ZM13.25 18V17C13.25 16.3096 12.6904 15.75 12 15.75C11.3096 15.75 10.75 16.3096 10.75 17V18H13.25Z" fill="currentColor"/></mask><g mask="url(#yds2-icon-__mask0_7_48)"><rect width="24" height="24" fill="currentColor"/></g></g></g></svg>