<svg width="24" height="24" viewBox="0 0 24 24" fill="none" xmlns="http://www.w3.org/2000/svg"><g><g><mask id="yds2-icon-__mask0_7_103" style="mask-type:alpha" maskUnits="userSpaceOnUse" x="3" y="2" width="18" height="20"><g><path d="M15.2223 21.2778C15.4286 21.4841 15.7084 21.6 16.0001 21.6C16.2918 21.6 16.5716 21.4841 16.7779 21.2778L20.2779 17.7778C20.7075 17.3482 20.7075 16.6517 20.2779 16.2221C19.8483 15.7926 19.1519 15.7926 18.7223 16.2221L17.1001 17.8443L17.1001 3.49996C17.1001 2.89245 16.6076 2.39996 16.0001 2.39996C15.3926 2.39996 14.9001 2.89245 14.9001 3.49996L14.9001 17.8443L13.2779 16.2221C12.8483 15.7926 12.1519 15.7926 11.7223 16.2221C11.2927 16.6517 11.2927 17.3482 11.7223 17.7778L15.2223 21.2778Z" fill="currentColor"/><path d="M8.77772 2.7222C8.34814 2.29262 7.65166 2.29262 7.22208 2.7222L3.72208 6.2222C3.29251 6.65177 3.29251 7.34825 3.72208 7.77783C4.15166 8.20741 4.84814 8.20741 5.27772 7.77783L6.8999 6.15565V20.5C6.8999 21.1075 7.39239 21.6 7.9999 21.6C8.60742 21.6 9.0999 21.1075 9.0999 20.5V6.15565L10.7221 7.77783C11.1517 8.20741 11.8481 8.20741 12.2777 7.77783C12.7073 7.34825 12.7073 6.65177 12.2777 6.2222L8.77772 2.7222Z" fill="currentColor"/></g></mask><g mask="url(#yds2-icon-__mask0_7_103)"><rect width="24" height="24" fill="currentColor"/></g></g></g></svg>