<svg width="24" height="24" viewBox="0 0 24 24" fill="none" xmlns="http://www.w3.org/2000/svg"><g><g><mask id="yds2-icon-__mask0_7_45" style="mask-type:alpha" maskUnits="userSpaceOnUse" x="3" y="3" width="18" height="18"><g><path d="M7.75 7.5C7.33579 7.5 7 7.83579 7 8.25C7 8.66421 7.33579 9 7.75 9H14.25C14.6642 9 15 8.66421 15 8.25C15 7.83579 14.6642 7.5 14.25 7.5H7.75Z" fill="currentColor"/><path d="M7 11.25C7 10.8358 7.33579 10.5 7.75 10.5H10.25C10.6642 10.5 11 10.8358 11 11.25C11 11.6642 10.6642 12 10.25 12H7.75C7.33579 12 7 11.6642 7 11.25Z" fill="currentColor"/><path fill-rule="evenodd" clip-rule="evenodd" d="M12 3C12.5523 3 13 3.44772 13 4H18C19.6569 4 21 5.34315 21 7V14C21 15.6569 19.6569 17 18 17H13V19H14C14.5523 19 15 19.4477 15 20C15 20.5523 14.5523 21 14 21H10C9.44772 21 9 20.5523 9 20C9 19.4477 9.44772 19 10 19H11V17H6C4.34315 17 3 15.6569 3 14V7C3 5.34315 4.34315 4 6 4L11 4C11 3.44772 11.4477 3 12 3ZM6 6H18C18.5523 6 19 6.44772 19 7V14C19 14.5523 18.5523 15 18 15H6C5.44772 15 5 14.5523 5 14V7C5 6.44772 5.44772 6 6 6Z" fill="currentColor"/></g></mask><g mask="url(#yds2-icon-__mask0_7_45)"><rect width="24" height="24" fill="currentColor"/></g></g></g></svg>