<svg width="24" height="24" viewBox="0 0 24 24" fill="none" xmlns="http://www.w3.org/2000/svg"><g><g><mask id="yds2-icon-__mask0_7_72" style="mask-type:alpha" maskUnits="userSpaceOnUse" x="3" y="2" width="18" height="20"><g><path d="M11 7.5C11 7.22386 11.2239 7 11.5 7H12.5C12.7761 7 13 7.22386 13 7.5V10H15.5C15.7761 10 16 10.2239 16 10.5V11.5C16 11.7761 15.7761 12 15.5 12H13V14.5C13 14.7761 12.7761 15 12.5 15H11.5C11.2239 15 11 14.7761 11 14.5V12H8.5C8.22386 12 8 11.7761 8 11.5V10.5C8 10.2239 8.22386 10 8.5 10H11V7.5Z" fill="currentColor"/><path fill-rule="evenodd" clip-rule="evenodd" d="M12 2C8.66679 2 6.19711 2.63207 4.81485 3.10551C3.64073 3.50765 3 4.62218 3 5.74559V12.5527C3 15.4814 4.6296 17.6411 6.37462 19.1077C8.11844 20.5732 10.0873 21.4456 11.0544 21.8216C11.6661 22.0595 12.3339 22.0595 12.9456 21.8216C13.9127 21.4456 15.8816 20.5732 17.6254 19.1077C19.3704 17.6411 21 15.4814 21 12.5527V5.74559C21 4.62218 20.3593 3.50765 19.1851 3.10551C17.8029 2.63207 15.3332 2 12 2ZM5.46001 5.00809C6.669 4.594 8.91992 4.01003 12 4.01003C15.0801 4.01003 17.331 4.594 18.54 5.00809C18.7909 5.09402 19 5.35594 19 5.74559V12.5527C19 14.6561 17.844 16.3037 16.3424 17.5657C14.8396 18.8287 13.1009 19.606 12.224 19.947C12.0766 20.0043 11.9234 20.0043 11.776 19.947C10.8991 19.606 9.1604 18.8287 7.65761 17.5657C6.15601 16.3037 5 14.6561 5 12.5527V5.74559C5 5.35594 5.2091 5.09402 5.46001 5.00809Z" fill="currentColor"/></g></mask><g mask="url(#yds2-icon-__mask0_7_72)"><rect width="24" height="24" fill="currentColor"/></g></g></g></svg>