<svg width="24" height="24" viewBox="0 0 24 24" fill="none" xmlns="http://www.w3.org/2000/svg"><g><g><mask id="yds2-icon-__mask0_7_105" style="mask-type:alpha" maskUnits="userSpaceOnUse" x="2" y="3" width="20" height="18"><g><path d="M21.2779 8.77778C21.7074 8.3482 21.7074 7.65172 21.2779 7.22215L17.7779 3.72215C17.3483 3.29257 16.6518 3.29257 16.2222 3.72215C15.7926 4.15172 15.7926 4.8482 16.2222 5.27778L17.8444 6.89996L3.50004 6.89996C2.89253 6.89996 2.40004 7.39245 2.40004 7.99996C2.40004 8.60748 2.89253 9.09996 3.50004 9.09996L17.8444 9.09996L16.2222 10.7221C15.7926 11.1517 15.7926 11.8482 16.2222 12.2778C16.6518 12.7074 17.3483 12.7074 17.7779 12.2778L21.2779 8.77778Z" fill="currentColor"/><path d="M2.72227 15.2221C2.51598 15.4284 2.40009 15.7082 2.40009 15.9999C2.40009 16.2917 2.51598 16.5714 2.72227 16.7777L6.22227 20.2777C6.65185 20.7073 7.34833 20.7073 7.77791 20.2777C8.20748 19.8482 8.20748 19.1517 7.77791 18.7221L6.15573 17.0999L20.5001 17.0999C21.1076 17.0999 21.6001 16.6074 21.6001 15.9999C21.6001 15.3924 21.1076 14.8999 20.5001 14.8999L6.15573 14.8999L7.77791 13.2777C8.20748 12.8482 8.20748 12.1517 7.77791 11.7221C7.34833 11.2925 6.65185 11.2925 6.22227 11.7221L2.72227 15.2221Z" fill="currentColor"/></g></mask><g mask="url(#yds2-icon-__mask0_7_105)"><rect width="24" height="24" fill="currentColor"/></g></g></g></svg>