<svg width="24" height="24" viewBox="0 0 24 24" fill="none" xmlns="http://www.w3.org/2000/svg"><g><g><mask id="yds2-icon-__mask0_7_128" style="mask-type:alpha" maskUnits="userSpaceOnUse" x="3" y="4" width="18" height="16"><path fill-rule="evenodd" clip-rule="evenodd" d="M6 4C4.34315 4 3 5.34315 3 7V10.9901C3 11.641 3.33794 12.2432 3.88889 12.5831V17C3.88889 18.6569 5.23203 20 6.88889 20H17.1111C18.768 20 20.1111 18.6569 20.1111 17V12.5831C20.6621 12.2432 21 11.641 21 10.9901V7C21 5.34315 19.6569 4 18 4H6ZM5 7C5 6.44772 5.44772 6 6 6H8.58333V9.33333C8.58333 10.3919 7.72521 11.25 6.66667 11.25C5.95263 11.25 5.32978 10.8595 5 10.2805V7ZM19 10.2804V7C19 6.44772 18.5523 6 18 6H15.4167V9.33333L15.4167 9.3476C15.4243 10.3996 16.2795 11.25 17.3333 11.25C18.0474 11.25 18.6702 10.8595 19 10.2804ZM13.9166 6H10.0834V9.33333C10.0834 10.3919 10.9415 11.25 12 11.25C13.0538 11.25 13.909 10.3996 13.9167 9.34759L13.9166 9.33333V6Z" fill="currentColor"/></mask><g mask="url(#yds2-icon-__mask0_7_128)"><rect width="24" height="24" fill="currentColor"/></g></g></g></svg>