<svg xmlns="http://www.w3.org/2000/svg" width="24" height="24" fill="none"><mask id="a" width="18" height="16" x="3" y="4" maskUnits="userSpaceOnUse" style="mask-type:alpha"><path fill="#333" fill-rule="evenodd" d="M6 4a3 3 0 0 0-3 3v3.99c0 .651.338 1.253.889 1.593V17a3 3 0 0 0 3 3H17.11a3 3 0 0 0 3-3v-4.417c.551-.34.889-.942.889-1.593V7a3 3 0 0 0-3-3zM5 7a1 1 0 0 1 1-1h2.583v3.333A1.917 1.917 0 0 1 5 10.28zm14 3.28V7a1 1 0 0 0-1-1h-2.583v3.348A1.917 1.917 0 0 0 19 10.28M13.917 6h-3.834v3.333a1.917 1.917 0 0 0 3.834.015V6" clip-rule="evenodd"/></mask><g mask="url(#a)"><path fill="#333" d="M0 0h24v24H0z"/></g></svg>