<svg width="24" height="24" viewBox="0 0 24 24" fill="none" xmlns="http://www.w3.org/2000/svg"><g><g><mask id="yds2-icon-__mask0_7_100" style="mask-type:alpha" maskUnits="userSpaceOnUse" x="2" y="2" width="20" height="20"><g><path d="M4 12C4 7.58172 7.58172 4 12 4C12.9368 4 13.834 4.16061 14.6668 4.45496C15.1875 4.639 15.7588 4.36608 15.9428 3.84536C16.1269 3.32465 15.854 2.75332 15.3332 2.56928C14.2894 2.20032 13.167 2 12 2C6.47715 2 2 6.47715 2 12C2 17.5228 6.47715 22 12 22C17.5228 22 22 17.5228 22 12C22 10.8473 21.8046 9.73814 21.4442 8.70512C21.2623 8.18366 20.6921 7.9084 20.1706 8.09031C19.6492 8.27222 19.3739 8.84242 19.5558 9.36389C19.8433 10.188 20 11.0746 20 12C20 16.4183 16.4183 20 12 20C7.58172 20 4 16.4183 4 12Z" fill="currentColor"/><path d="M20.2831 5.77245C20.7097 5.33991 20.7049 4.64345 20.2723 4.21685C19.8398 3.79025 19.1433 3.79507 18.7167 4.2276L10.1086 12.9556L7.761 10.7058C7.32238 10.2855 6.62606 10.3003 6.20572 10.7389C5.78538 11.1775 5.80019 11.8739 6.23881 12.2942L9.36924 15.2942C9.80341 15.7103 10.4912 15.7006 10.9135 15.2724L20.2831 5.77245Z" fill="currentColor"/></g></mask><g mask="url(#yds2-icon-__mask0_7_100)"><rect width="24" height="24" fill="currentColor"/></g></g></g></svg>