<svg width="24" height="24" viewBox="0 0 24 24" fill="none" xmlns="http://www.w3.org/2000/svg"><g><g><mask id="yds2-icon-__mask0_7_124" style="mask-type:alpha" maskUnits="userSpaceOnUse" x="3" y="3" width="18" height="17"><g><path d="M13.3086 3.00044C14.4331 3.04932 16.334 3.41427 16.334 5.49479V8.4959C16.334 8.77215 16.5579 8.99609 16.834 8.99609H18.45C20.4333 8.99609 21 9.85355 21 10.9968C21 12.632 19.3866 16.4419 18.5262 18.3574C18.2105 19.0602 17.5098 19.5 16.7397 19.5H9C8.44772 19.5 8 19.0521 8 18.4996V9.99646C8 9.44397 8.44772 8.99609 9 8.99609H9.69098C9.88037 8.99609 10.0535 8.88905 10.1382 8.71959L12.8618 3.27035C12.9465 3.1009 13.1194 2.99221 13.3086 3.00044Z" fill="currentColor"/><path d="M4 8.99609C3.44772 8.99609 3 9.44397 3 9.99646V18.4996C3 19.0521 3.44772 19.5 4 19.5H5.5C6.05228 19.5 6.5 19.0521 6.5 18.4996V9.99646C6.5 9.44397 6.05228 8.99609 5.5 8.99609H4Z" fill="currentColor"/></g></mask><g mask="url(#yds2-icon-__mask0_7_124)"><rect width="24" height="24" fill="currentColor"/></g></g></g></svg>