<svg width="24" height="24" viewBox="0 0 24 24" fill="none" xmlns="http://www.w3.org/2000/svg"><g><g><mask id="yds2-icon-__mask0_7_70" style="mask-type:alpha" maskUnits="userSpaceOnUse" x="2" y="3" width="20" height="18"><path fill-rule="evenodd" clip-rule="evenodd" d="M12 3C9.51472 3 7.5 5.01472 7.5 7.5V8H5.5C3.84315 8 2.5 9.34315 2.5 11V15C2.5 18.3137 5.18629 21 8.5 21H15.5C18.8137 21 21.5 18.3137 21.5 15V11C21.5 9.34315 20.1569 8 18.5 8H16.5V7.5C16.5 5.01472 14.4853 3 12 3ZM14.5 10V12C14.5 12.5523 14.9477 13 15.5 13C16.0523 13 16.5 12.5523 16.5 12V10H18.5C19.0523 10 19.5 10.4477 19.5 11V15C19.5 17.2091 17.7091 19 15.5 19H8.5C6.29086 19 4.5 17.2091 4.5 15V11C4.5 10.4477 4.94772 10 5.5 10H7.5V12C7.5 12.5523 7.94772 13 8.5 13C9.05228 13 9.5 12.5523 9.5 12V10H14.5ZM14.5 8V7.5C14.5 6.11929 13.3807 5 12 5C10.6193 5 9.5 6.11929 9.5 7.5V8H14.5Z" fill="currentColor"/></mask><g mask="url(#yds2-icon-__mask0_7_70)"><rect width="24" height="24" fill="currentColor"/></g></g></g></svg>