<svg width="24" height="24" viewBox="0 0 24 24" fill="none" xmlns="http://www.w3.org/2000/svg"><g><g><mask id="yds2-icon-__mask0_7_112" style="mask-type:alpha" maskUnits="userSpaceOnUse" x="2" y="2" width="20" height="18"><g><path fill-rule="evenodd" clip-rule="evenodd" d="M12.5 2C12.0963 2 11.7322 2.24274 11.5769 2.61538L9.33333 8H8.5C7.94772 8 7.5 8.44772 7.5 9V18.5C7.5 19.0523 7.94772 19.5 8.5 19.5H17.235C18.3895 19.5 19.462 18.8355 19.9359 17.7485C20.3073 16.8968 20.8144 15.6755 21.2305 14.4586C21.6329 13.2819 22 11.972 22 11C22 10.2946 21.841 9.47013 21.1814 8.84539C20.5374 8.23545 19.608 8 18.5 8H16.834V5.5C16.834 4.75277 16.6434 4.11011 16.2868 3.58402C15.9346 3.06443 15.4621 2.71946 14.9905 2.49207C14.0772 2.05176 13.0566 2 12.5 2ZM10.9231 9.38462L13.1515 4.03649C13.4844 4.07586 13.8298 4.1528 14.122 4.29364C14.3541 4.40554 14.5205 4.54271 14.6313 4.70615C14.7376 4.8631 14.834 5.10438 14.834 5.5V9C14.834 9.55228 15.2817 10 15.834 10H18.5C19.3753 10 19.6959 10.1931 19.8061 10.2975C19.9006 10.387 20 10.5626 20 11C20 11.603 19.743 12.6275 19.3381 13.8115C18.947 14.9553 18.4637 16.121 18.1026 16.9492C17.959 17.2785 17.6256 17.5 17.235 17.5H9.5V10H10C10.4037 10 10.7678 9.75726 10.9231 9.38462Z" fill="currentColor"/><path d="M3.5 8C2.94772 8 2.5 8.44771 2.5 9V18.5C2.5 19.0523 2.94772 19.5 3.5 19.5H5C5.55228 19.5 6 19.0523 6 18.5V9C6 8.44772 5.55228 8 5 8H3.5Z" fill="currentColor"/></g></mask><g mask="url(#yds2-icon-__mask0_7_112)"><rect width="24" height="24" fill="currentColor"/></g></g></g></svg>