<svg width="24" height="24" viewBox="0 0 24 24" fill="none" xmlns="http://www.w3.org/2000/svg"><g><g><mask id="yds2-icon-__mask0_7_95" style="mask-type:alpha" maskUnits="userSpaceOnUse" x="2" y="2" width="20" height="19"><g><path d="M11 8.5C11 7.94772 11.4477 7.5 12 7.5C12.5523 7.5 13 7.94772 13 8.5V13C13 13.5523 12.5523 14 12 14C11.4477 14 11 13.5523 11 13V8.5Z" fill="currentColor"/><path d="M12 15C11.4477 15 11 15.4477 11 16C11 16.5523 11.4477 17 12 17C12.5523 17 13 16.5523 13 16C13 15.4477 12.5523 15 12 15Z" fill="currentColor"/><path fill-rule="evenodd" clip-rule="evenodd" d="M14.591 3.52345C13.4493 1.49218 10.5506 1.49218 9.40893 3.52346L2.39261 16.0066C1.26537 18.0121 2.69995 20.5 4.98364 20.5H19.0164C21.3001 20.5 22.7346 18.0121 21.6074 16.0066L14.591 3.52345ZM11.1363 4.51344C11.5169 3.83635 12.4831 3.83634 12.8636 4.51343L19.88 16.9966C20.2558 17.6651 19.7776 18.4944 19.0164 18.4944H4.98364C4.22241 18.4944 3.74422 17.6651 4.11996 16.9966L11.1363 4.51344Z" fill="currentColor"/></g></mask><g mask="url(#yds2-icon-__mask0_7_95)"><rect width="24" height="24" fill="currentColor"/></g></g></g></svg>