<svg width="24" height="24" viewBox="0 0 24 24" fill="none" xmlns="http://www.w3.org/2000/svg"><g><g><mask id="yds2-icon-__mask0_7_80" style="mask-type:alpha" maskUnits="userSpaceOnUse" x="2" y="2" width="20" height="20"><path fill-rule="evenodd" clip-rule="evenodd" d="M17.3886 3.08437C16.6095 2.30521 15.3462 2.30521 14.567 3.08437L3.08437 14.567C2.71021 14.9412 2.5 15.4487 2.5 15.9778L2.5 19.5048C2.5 20.6067 3.39327 21.5 4.49518 21.5H8.02218C8.55133 21.5 9.05881 21.2898 9.43298 20.9156L20.9156 9.43298C21.6948 8.65381 21.6948 7.39054 20.9156 6.61138L17.3886 3.08437ZM15.9778 4.49517L19.5048 8.02218L17.7413 9.78572L14.2143 6.25871L15.9778 4.49517ZM13.1562 7.31681L4.49518 15.9778V19.5048H8.02218L16.6832 10.8438L13.1562 7.31681Z" fill="currentColor"/></mask><g mask="url(#yds2-icon-__mask0_7_80)"><rect width="24" height="24" fill="currentColor"/></g></g></g></svg>