<svg xmlns="http://www.w3.org/2000/svg" width="24" height="24" fill="none"><mask id="a" width="20" height="20" x="2" y="2" maskUnits="userSpaceOnUse" style="mask-type:alpha"><path fill="#333" fill-rule="evenodd" d="M17.389 3.084a1.995 1.995 0 0 0-2.822 0L3.084 14.567a2 2 0 0 0-.584 1.41v3.528c0 1.102.893 1.995 1.995 1.995h3.527c.53 0 1.037-.21 1.411-.584L20.916 9.433c.779-.78.779-2.042 0-2.822zm-1.411 1.411 3.527 3.527-1.764 1.764-3.527-3.527zm-2.822 2.822-8.66 8.66v3.528h3.526l8.661-8.661z" clip-rule="evenodd"/></mask><g mask="url(#a)"><path fill="#333" d="M0 0h24v24H0z"/></g></svg>